<svg xmlns="http://www.w3.org/2000/svg" xmlns:xlink="http://www.w3.org/1999/xlink" viewBox="0 0 54.81 120.23"><defs><style>.cls-1{isolation:isolate;}.cls-2{fill:#ed1c24;}.cls-3{fill:#008ae8;}.cls-4{fill:url(#linear-gradient);}.cls-5{fill:url(#linear-gradient-2);}.cls-6{fill:url(#radial-gradient);}.cls-7{fill:url(#linear-gradient-3);}.cls-8{fill:url(#radial-gradient-2);}.cls-9{fill:url(#radial-gradient-3);}.cls-10{fill:url(#radial-gradient-4);}.cls-11{fill:url(#linear-gradient-4);}.cls-12{fill:url(#linear-gradient-5);}.cls-13{fill:url(#linear-gradient-6);}.cls-14{fill:url(#linear-gradient-7);}.cls-15{fill:url(#linear-gradient-8);}.cls-16{fill:url(#linear-gradient-9);}.cls-17{fill:url(#linear-gradient-10);}.cls-18{fill:url(#linear-gradient-11);}.cls-19{fill:url(#linear-gradient-12);}.cls-20{fill:url(#radial-gradient-5);}.cls-21{fill:url(#radial-gradient-6);}.cls-22{fill:#93091a;}.cls-23,.cls-25,.cls-38{mix-blend-mode:screen;}.cls-23{fill:url(#linear-gradient-13);}.cls-24{fill:url(#linear-gradient-14);}.cls-25{fill:#474747;}.cls-26{fill:url(#linear-gradient-15);}.cls-27{fill:url(#linear-gradient-16);}.cls-28{fill:url(#linear-gradient-17);}.cls-29{fill:url(#linear-gradient-18);}.cls-30{fill:url(#linear-gradient-19);}.cls-31{fill:url(#linear-gradient-20);}.cls-32{fill:url(#linear-gradient-21);}.cls-33{fill:#595959;}.cls-34{fill:url(#linear-gradient-22);}.cls-35{fill:url(#linear-gradient-23);}.cls-36{fill:#05242d;}.cls-37{fill:url(#linear-gradient-24);}.cls-38{fill:url(#linear-gradient-25);}.cls-39{fill:url(#radial-gradient-7);}.cls-40{fill:url(#linear-gradient-26);}.cls-41{fill:url(#radial-gradient-8);}.cls-42,.cls-43,.cls-45,.cls-46,.cls-47,.cls-48{mix-blend-mode:color-dodge;}.cls-42{fill:url(#radial-gradient-9);}.cls-43{fill:url(#radial-gradient-10);}.cls-44{fill:#ededed;}.cls-45{fill:url(#radial-gradient-11);}.cls-46{fill:url(#radial-gradient-12);}.cls-47{fill:url(#radial-gradient-13);}.cls-48{fill:url(#radial-gradient-14);}.cls-49{fill:#eaeaea;}</style><linearGradient id="linear-gradient" x1="15.86" y1="3.77" x2="38.96" y2="3.77" gradientUnits="userSpaceOnUse"><stop offset="0" stop-color="#525956"/><stop offset="1" stop-color="#2c2e2e"/></linearGradient><linearGradient id="linear-gradient-2" x1="48.14" y1="36.52" x2="44.4" y2="4.89" gradientUnits="userSpaceOnUse"><stop offset="0" stop-color="#0095da"/><stop offset="0.41" stop-color="#00aeee"/><stop offset="1" stop-color="#2bc4f3"/></linearGradient><radialGradient id="radial-gradient" cx="27.41" cy="-3931.43" r="30.26" gradientTransform="translate(0 9206.37) scale(1 2.33)" gradientUnits="userSpaceOnUse"><stop offset="0" stop-color="#f7f7f7"/><stop offset="1" stop-color="#a8abaa"/></radialGradient><linearGradient id="linear-gradient-3" x1="9.59" y1="11.64" x2="8.28" y2="33.17" gradientUnits="userSpaceOnUse"><stop offset="0" stop-color="#2bc4f3"/><stop offset="0.59" stop-color="#00aeee"/><stop offset="1" stop-color="#0095da"/></linearGradient><radialGradient id="radial-gradient-2" cx="27.41" cy="-3931.43" r="30.26" xlink:href="#radial-gradient"/><radialGradient id="radial-gradient-3" cx="27.41" cy="-5782.97" r="24.2" gradientTransform="translate(0 24853.83) scale(1 4.29)" gradientUnits="userSpaceOnUse"><stop offset="0" stop-color="#fff"/><stop offset="1" stop-color="#d2d6d5"/></radialGradient><radialGradient id="radial-gradient-4" cx="27.41" cy="-3931.43" r="30.26" xlink:href="#radial-gradient"/><linearGradient id="linear-gradient-4" x1="27.23" y1="29.67" x2="24.34" y2="-1.73" xlink:href="#linear-gradient-3"/><linearGradient id="linear-gradient-5" x1="7.82" y1="32.24" x2="47" y2="32.24" gradientUnits="userSpaceOnUse"><stop offset="0"/><stop offset="1" stop-color="#1b1c1c"/></linearGradient><linearGradient id="linear-gradient-6" x1="7.99" y1="41.22" x2="46.83" y2="41.22" gradientUnits="userSpaceOnUse"><stop offset="0" stop-color="#363b39"/><stop offset="1" stop-color="#1b1c1c"/></linearGradient><linearGradient id="linear-gradient-7" x1="27.19" y1="116.69" x2="27.19" y2="107.71" xlink:href="#linear-gradient-3"/><linearGradient id="linear-gradient-8" x1="12.13" y1="99.84" x2="42.7" y2="99.84" xlink:href="#linear-gradient-6"/><linearGradient id="linear-gradient-9" x1="5.13" y1="53.15" x2="10.32" y2="53.15" xlink:href="#linear-gradient-6"/><linearGradient id="linear-gradient-10" x1="44.5" y1="53.15" x2="49.69" y2="53.15" xlink:href="#linear-gradient-6"/><linearGradient id="linear-gradient-11" x1="5.31" y1="83.47" x2="10.72" y2="83.47" xlink:href="#linear-gradient-6"/><linearGradient id="linear-gradient-12" x1="44.1" y1="83.47" x2="49.51" y2="83.47" xlink:href="#linear-gradient-6"/><radialGradient id="radial-gradient-5" cx="10.74" cy="22.53" r="3.73" gradientTransform="translate(0 -20.78) scale(1 1.17)" gradientUnits="userSpaceOnUse"><stop offset="0" stop-color="#fff"/><stop offset="1" stop-color="#a0a3a2"/></radialGradient><radialGradient id="radial-gradient-6" cx="44.09" cy="22.53" r="3.73" xlink:href="#radial-gradient-5"/><linearGradient id="linear-gradient-13" x1="26.96" y1="37.16" x2="38.36" y2="45.27" gradientUnits="userSpaceOnUse"><stop offset="0" stop-color="#363b39"/><stop offset="1"/></linearGradient><linearGradient id="linear-gradient-14" x1="15.71" y1="52.34" x2="61.1" y2="126.85" gradientUnits="userSpaceOnUse"><stop offset="0" stop-color="#f7f7f7"/><stop offset="1" stop-color="#dbdbdb"/></linearGradient><linearGradient id="linear-gradient-15" x1="21.62" y1="56" x2="35.16" y2="95.41" xlink:href="#linear-gradient-3"/><linearGradient id="linear-gradient-16" x1="47.5" y1="37.12" x2="52.15" y2="46.12" xlink:href="#linear-gradient-6"/><linearGradient id="linear-gradient-17" x1="49.28" y1="39.8" x2="54.81" y2="39.8" gradientTransform="matrix(1, 0, 0, 1, 0, 0)" xlink:href="#radial-gradient-3"/><linearGradient id="linear-gradient-18" x1="49.28" y1="40.58" x2="54.81" y2="40.58" xlink:href="#linear-gradient-6"/><linearGradient id="linear-gradient-19" x1="5.71" y1="37.87" x2="9.77" y2="46.77" xlink:href="#linear-gradient-6"/><linearGradient id="linear-gradient-20" y1="39.72" x2="5.53" y2="39.72" gradientUnits="userSpaceOnUse"><stop offset="0" stop-color="#d2d6d5"/><stop offset="1" stop-color="#fff"/></linearGradient><linearGradient id="linear-gradient-21" x1="0" y1="40.49" x2="5.53" y2="40.49" xlink:href="#linear-gradient-6"/><linearGradient id="linear-gradient-22" x1="10.98" y1="99.64" x2="43.85" y2="99.64" xlink:href="#linear-gradient-5"/><linearGradient id="linear-gradient-23" x1="10.49" y1="51.19" x2="44.33" y2="51.19" xlink:href="#linear-gradient-5"/><linearGradient id="linear-gradient-24" x1="19.97" y1="119.79" x2="34.83" y2="119.79" xlink:href="#linear-gradient-6"/><linearGradient id="linear-gradient-25" x1="20.68" y1="86.51" x2="28.12" y2="97.94" xlink:href="#linear-gradient-13"/><radialGradient id="radial-gradient-7" cx="17.27" cy="66.7" r="4.05" gradientUnits="userSpaceOnUse"><stop offset="0" stop-color="#f37e5f"/><stop offset="0.39" stop-color="#ec1c24"/><stop offset="1" stop-color="#b30000"/></radialGradient><linearGradient id="linear-gradient-26" x1="27.37" y1="63.31" x2="27.37" y2="69.93" gradientUnits="userSpaceOnUse"><stop offset="0" stop-color="#363b39"/><stop offset="0.16" stop-color="#383d3a"/><stop offset="0.4"/><stop offset="0.74" stop-color="#5c6161"/><stop offset="1" stop-color="#1b1c1c"/></linearGradient><radialGradient id="radial-gradient-8" cx="37.53" cy="66.7" r="4.18" gradientUnits="userSpaceOnUse"><stop offset="0" stop-color="#2bc4f3"/><stop offset="0.35" stop-color="#00aeee"/><stop offset="1" stop-color="#0057da"/></radialGradient><radialGradient id="radial-gradient-9" cx="-139.19" cy="-197.55" r="1.26" gradientTransform="matrix(1.29, 0.56, -0.4, 0.92, 137.49, 260.38)" gradientUnits="userSpaceOnUse"><stop offset="0" stop-color="#ca92f3"/><stop offset="0.03" stop-color="#b986de"/><stop offset="0.11" stop-color="#8863a4"/><stop offset="0.19" stop-color="#5f4472"/><stop offset="0.27" stop-color="#3d2c49"/><stop offset="0.35" stop-color="#221929"/><stop offset="0.42" stop-color="#0f0b12"/><stop offset="0.5" stop-color="#040305"/><stop offset="0.56"/></radialGradient><radialGradient id="radial-gradient-10" cx="-268.45" cy="93.71" r="0.79" gradientTransform="matrix(2.2, -0.51, 0.29, 1.24, 580.48, -253.4)" gradientUnits="userSpaceOnUse"><stop offset="0" stop-color="#fff"/><stop offset="0.04" stop-color="#dedede"/><stop offset="0.12" stop-color="#a4a4a4"/><stop offset="0.2" stop-color="#727272"/><stop offset="0.28" stop-color="#494949"/><stop offset="0.35" stop-color="#292929"/><stop offset="0.43" stop-color="#121212"/><stop offset="0.5" stop-color="#050505"/><stop offset="0.56"/></radialGradient><radialGradient id="radial-gradient-11" cx="36.25" cy="65.42" r="4.51" gradientTransform="matrix(1, 0, 0, 1, 0, 0)" xlink:href="#radial-gradient-9"/><radialGradient id="radial-gradient-12" cx="38.58" cy="67.7" r="4.51" gradientTransform="matrix(1, 0, 0, 1, 0, 0)" xlink:href="#radial-gradient-9"/><radialGradient id="radial-gradient-13" cx="17" cy="67.7" r="4.51" gradientTransform="matrix(1, 0, 0, 1, 0, 0)" xlink:href="#radial-gradient-10"/><radialGradient id="radial-gradient-14" cx="19.09" cy="65.77" r="4.51" gradientTransform="matrix(1, 0, 0, 1, 0, 0)" xlink:href="#radial-gradient-10"/></defs><title>Enemy Car 3</title><g class="cls-1"><g id="Слой_2" data-name="Слой 2"><g id="Layer_1" data-name="Layer 1"><path class="cls-2" d="M19.09.57a.79.79,0,0,1-.54,1l-1.2.35a.81.81,0,0,1-1-.54h0a.8.8,0,0,1,.55-1L18.11,0a.79.79,0,0,1,1,.54Z"/><path class="cls-3" d="M35.75.57a.8.8,0,0,0,.55,1l1.2.35a.79.79,0,0,0,1-.54h0a.79.79,0,0,0-.54-1L36.74,0a.81.81,0,0,0-1,.54Z"/><path class="cls-4" d="M39,7.55V1.72a39.69,39.69,0,0,0-23.1,0V7.55Z"/><path class="cls-5" d="M49.94,20.2c.44,4.43.65,9.68.73,14.93h1.47c-.07-5.55-.28-11.12-.77-15.8-.55-5.3-1.42-8-3-10.25a2.23,2.23,0,0,1-1.93-.46L40.82,4a3.06,3.06,0,0,1-1-2c-.26-.11-.54-.21-.82-.3V3.5a12.43,12.43,0,0,1,3.85,2.29C47.24,9.92,49,11.39,49.94,20.2Z"/><path class="cls-6" d="M52.14,35.13H50.67c.16,10.77-.21,21.52-.18,25,.31,27.9-.94,44.88-2.56,50.75a5.14,5.14,0,0,1-2.06,2.75l-2.17-10H11.12L8.5,113.29a4.79,4.79,0,0,1-1.61-2.38C5.27,105,4,88.06,4.33,60.16c0-3.51-.34-14.26-.18-25H2.69C2.55,46.22,3,57.23,3,60.85c-.32,29,.91,46.62,2.63,52.73a5.42,5.42,0,0,0,2.27,2.9,2,2,0,0,1,.9-.2c2,0,3,1.46,5.2,1,1.47-.27,2,1.08,2.13,2,1.32.23,2.64.41,3.89.53a1.11,1.11,0,0,1,.92-.53h13a1.09,1.09,0,0,1,.92.53c.94-.09,1.91-.21,2.9-.36.14-1,.6-2.49,2.16-2.2,2.22.42,3.19-1,5.2-1a1.73,1.73,0,0,1,1.35.55,5.8,5.8,0,0,0,2.8-3.25c1.72-6.11,3-23.75,2.64-52.73C51.84,57.23,52.27,46.22,52.14,35.13Z"/><path class="cls-7" d="M4.89,20.2C5.78,11.39,7.58,9.92,12,5.79A12.38,12.38,0,0,1,15.86,3.5V1.72c-.28.09-.55.19-.82.3a3,3,0,0,1-1,2L8.37,8.62a2.25,2.25,0,0,1-1.93.46C4.88,11.28,4,14,3.45,19.33,3,24,2.76,29.58,2.69,35.13H4.15C4.23,29.88,4.44,24.63,4.89,20.2Z"/><path class="cls-8" d="M4.33,60.16C4,88.06,5.27,105,6.89,110.91a4.79,4.79,0,0,0,1.61,2.38l2.62-9.59H43.7l2.17,10a5.14,5.14,0,0,0,2.06-2.75c1.62-5.87,2.87-22.85,2.56-50.75,0-3.51.34-14.26.18-25H4.15C4,45.9,4.37,56.65,4.33,60.16Z"/><path class="cls-9" d="M4.33,60.16C4,88.06,5.27,105,6.89,110.91a4.79,4.79,0,0,0,1.61,2.38l2.62-9.59H43.7l2.17,10a5.14,5.14,0,0,0,2.06-2.75c1.62-5.87,2.87-22.85,2.56-50.75,0-3.51.34-14.26.18-25H4.15C4,45.9,4.37,56.65,4.33,60.16Z"/><path class="cls-10" d="M4.89,20.2c-.45,4.43-.66,9.68-.74,14.93H50.67c-.08-5.25-.29-10.5-.73-14.93-.9-8.81-2.7-10.28-7.13-14.41A12.43,12.43,0,0,0,39,3.5V7.55H15.86v-4A12.38,12.38,0,0,0,12,5.79C7.58,9.92,5.78,11.39,4.89,20.2Z"/><path class="cls-11" d="M49.94,20.2c-.9-8.81-2.7-10.28-7.13-14.41A12.43,12.43,0,0,0,39,3.5C32.56,1,22.26,1,15.86,3.5A12.38,12.38,0,0,0,12,5.79C7.58,9.92,5.78,11.39,4.89,20.2c-.45,4.43-.66,9.68-.74,14.93H50.67C50.59,29.88,50.38,24.63,49.94,20.2Z"/><path class="cls-12" d="M9.29,34.83a39.68,39.68,0,0,1,8.27-2.95,45.46,45.46,0,0,1,19.7,0,39.45,39.45,0,0,1,8.27,2.95,3.87,3.87,0,0,1,1.3.85v-.06a5.08,5.08,0,0,0,.1-1.76c-.16-.33-.61-.63-1.41-1a39.9,39.9,0,0,0-8.27-3,45.77,45.77,0,0,0-19.7,0,40.13,40.13,0,0,0-8.27,3c-.8.39-1.25.69-1.41,1A5.08,5.08,0,0,0,8,35.62v.06A4.1,4.1,0,0,1,9.29,34.83Z"/><path class="cls-13" d="M18.22,49.33a83.06,83.06,0,0,1,18.38,0,28.42,28.42,0,0,1,7.73,2.31l2.5-16a3.87,3.87,0,0,0-1.3-.85,39.45,39.45,0,0,0-8.27-2.95,45.46,45.46,0,0,0-19.7,0,39.68,39.68,0,0,0-8.27,2.95,4.1,4.1,0,0,0-1.3.85l2.5,16A28.54,28.54,0,0,1,18.22,49.33Z"/><path class="cls-14" d="M11.12,103.7,8.5,113.29c5,4.3,18.91,4,18.91,4s13.14.26,18.46-3.66l-2.17-10Z"/><path class="cls-15" d="M12.56,94.92a27.72,27.72,0,0,0-.3,7.62,41.11,41.11,0,0,0,7.49,1.83,74,74,0,0,0,15.32,0,40.82,40.82,0,0,0,7.49-1.83A27.71,27.71,0,0,0,42.28,95,71.48,71.48,0,0,1,27.41,96.3,75.19,75.19,0,0,1,12.56,94.92Z"/><path class="cls-16" d="M5.58,69.92l4.74,1.25-.57-16.5L6.61,35.13a36.88,36.88,0,0,0-1.45,12.2c.18,4.54.66,10.8.66,14.83C5.81,66,5.68,68.58,5.58,69.92Z"/><path class="cls-17" d="M49.25,69.92,44.5,71.17l.57-16.5,3.14-19.54a36.88,36.88,0,0,1,1.45,12.2c-.17,4.54-.66,10.8-.65,14.83C49,66,49.12,68.62,49.25,69.92Z"/><path class="cls-18" d="M5.48,71.44,10.34,73l.38,13.79a20.8,20.8,0,0,1-1.57,4.54,7.87,7.87,0,0,1-3.67,4.12S5.11,76.61,5.48,71.44Z"/><path class="cls-19" d="M49.34,71.44,44.48,73,44.1,86.83a21.52,21.52,0,0,0,1.57,4.54,7.87,7.87,0,0,0,3.67,4.12S49.72,76.61,49.34,71.44Z"/><path class="cls-20" d="M8.37,8.62,14,4a3,3,0,0,0,1-2,12.92,12.92,0,0,0-4,2.34,30.27,30.27,0,0,0-4.6,4.72A2.25,2.25,0,0,0,8.37,8.62Z"/><path class="cls-21" d="M40.82,4l5.64,4.61a2.23,2.23,0,0,0,1.93.46,30.74,30.74,0,0,0-4.6-4.72,13,13,0,0,0-4-2.34A3.06,3.06,0,0,0,40.82,4Z"/><path class="cls-22" d="M14,117.32c-2.22.42-3.2-1-5.2-1a2,2,0,0,0-.9.2c2,1.44,5.12,2.33,8.23,2.87C15.91,118.4,15.42,117.05,14,117.32Z"/><path class="cls-22" d="M39.89,117.32c-1.56-.29-2,1.25-2.16,2.2a24.84,24.84,0,0,0,8.71-2.69,1.73,1.73,0,0,0-1.35-.55C43.08,116.28,42.11,117.74,39.89,117.32Z"/><path class="cls-23" d="M45.53,34.83a39.45,39.45,0,0,0-8.27-2.95,35.53,35.53,0,0,0-4.62-.8c-4.16,5-9.08,14.07-11.1,17.91a85.47,85.47,0,0,1,15.06.34,28.42,28.42,0,0,1,7.73,2.31l2.5-16A3.87,3.87,0,0,0,45.53,34.83Z"/><path class="cls-24" d="M27.41,52.3C15.35,52,11.3,54.44,11.3,54.44s.15,32.65,1.07,35.89c.62,2.2,8.22,3.18,13.05,3.58h4c4.83-.4,12.43-1.38,13.06-3.58.92-3.24,1.06-35.89,1.06-35.89S39.48,52,27.41,52.3Z"/><path class="cls-25" d="M14,5.06a17.47,17.47,0,0,0-8,13.2c-.79,9.3-.67,14-.67,14S7.77,10,14,5.06Z"/><rect class="cls-26" x="23.15" y="49.53" width="8.51" height="46.59"/><path class="cls-25" d="M40.88,5.06a17.47,17.47,0,0,1,8,13.2c.79,9.3.68,14,.68,14S47.1,10,40.88,5.06Z"/><path class="cls-27" d="M48.07,36.35A2.45,2.45,0,0,1,50,38.57c0,1.8-1.89,5.45-1.93,3.14A43.3,43.3,0,0,1,48.07,36.35Z"/><path class="cls-28" d="M54.62,40.3c-.41-.63-4.2-1.94-4.2-1.94-.75-.28-1,.47-1.09,1.09l5.43,1.85A1.22,1.22,0,0,0,54.62,40.3Z"/><path class="cls-29" d="M49.33,39.45a5.11,5.11,0,0,0,0,.78l5.34,1.48a1.71,1.71,0,0,0,.14-.41Z"/><path class="cls-30" d="M6.73,36.22s-2,.42-2.05,2.22,2,5.46,2.05,3.15A41.5,41.5,0,0,0,6.73,36.22Z"/><path class="cls-31" d="M4.39,38.23S.6,39.55.18,40.17a1.39,1.39,0,0,0-.12,1.09L5.49,39.4C5.41,38.76,5.16,38,4.39,38.23Z"/><path class="cls-32" d="M.06,41.26c.06.19.12.33.12.33L5.52,40.1a4.06,4.06,0,0,0,0-.7Z"/><path class="cls-33" d="M3,60a.53.53,0,0,0-.5.55v4.64a.54.54,0,0,0,.5.56Z"/><path class="cls-33" d="M3.26,83.22a.54.54,0,0,0-.51.56v4.64a.54.54,0,0,0,.51.56Z"/><path class="cls-34" d="M43.08,94.79c-.13-.48-.27-1-.44-1.45,0,0-.22.09-.67.23-1.63.51-6.32,1.7-14.56,1.7a56.37,56.37,0,0,1-14.55-1.73c-.44-.12-.67-.2-.67-.2-.17.47-.31.94-.44,1.4a25.72,25.72,0,0,0-.63,9,47.33,47.33,0,0,0,8.06,1.84,87.14,87.14,0,0,0,16.47,0,47.35,47.35,0,0,0,8.05-1.84A25.57,25.57,0,0,0,43.08,94.79Zm-.52,7.75a40.82,40.82,0,0,1-7.49,1.83,74,74,0,0,1-15.32,0,41.11,41.11,0,0,1-7.49-1.83,27.72,27.72,0,0,1,.3-7.62A75.19,75.19,0,0,0,27.41,96.3,71.48,71.48,0,0,0,42.28,95,27.71,27.71,0,0,1,42.56,102.54Z"/><path class="cls-33" d="M51.82,60a.53.53,0,0,1,.5.55v4.64a.53.53,0,0,1-.5.56Z"/><path class="cls-35" d="M18.22,49.33a28.54,28.54,0,0,0-7.73,2.31l.31,1.92A25.31,25.31,0,0,1,18.62,51a77.22,77.22,0,0,1,17.59,0A25.31,25.31,0,0,1,44,53.56l.3-1.92a28.42,28.42,0,0,0-7.73-2.31A83.06,83.06,0,0,0,18.22,49.33Z"/><path class="cls-33" d="M51.57,83.22a.53.53,0,0,1,.5.56v4.64a.54.54,0,0,1-.5.56Z"/><path class="cls-36" d="M16.51,27.12c.8-.07,1.21-.58,2-.65a.12.12,0,0,0,.12-.13c0-.08-.05-.14-.12-.13-.8.07-1.21.58-2,.65a.13.13,0,0,0-.12.14A.11.11,0,0,0,16.51,27.12Z"/><path class="cls-36" d="M18.52,26.74c-.8.07-1.21.58-2,.65a.13.13,0,0,0-.12.14.11.11,0,0,0,.12.12c.8-.07,1.21-.58,2-.65a.13.13,0,0,0,.12-.14A.11.11,0,0,0,18.52,26.74Z"/><path class="cls-36" d="M18.52,27.27c-.8.07-1.21.58-2,.65a.13.13,0,0,0-.12.14.11.11,0,0,0,.12.12c.8-.07,1.21-.58,2-.65a.13.13,0,0,0,.12-.14A.11.11,0,0,0,18.52,27.27Z"/><path class="cls-36" d="M38.3,27.12c-.81-.07-1.21-.58-2-.65a.12.12,0,0,1-.11-.13c0-.08,0-.14.11-.13.81.07,1.21.58,2,.65a.14.14,0,0,1,.12.14A.12.12,0,0,1,38.3,27.12Z"/><path class="cls-36" d="M36.28,26.74c.81.07,1.21.58,2,.65a.13.13,0,0,1,.12.14.12.12,0,0,1-.12.12c-.81-.07-1.21-.58-2-.65a.13.13,0,0,1-.11-.14C36.17,26.79,36.22,26.73,36.28,26.74Z"/><path class="cls-36" d="M36.28,27.27c.81.07,1.21.58,2,.65a.13.13,0,0,1,.12.14.12.12,0,0,1-.12.12c-.81-.07-1.21-.58-2-.65a.13.13,0,0,1-.11-.14C36.17,27.32,36.22,27.26,36.28,27.27Z"/><path class="cls-37" d="M33.91,119.35h-13a1.11,1.11,0,0,0-.92.53,70.6,70.6,0,0,0,7.44.35,70.23,70.23,0,0,0,7.42-.35A1.09,1.09,0,0,0,33.91,119.35Z"/><path class="cls-38" d="M42.28,95A71.48,71.48,0,0,1,27.41,96.3c-1.51,0-2.94,0-4.28-.11-4.24,1.49-6.82,6.17-7.42,7.37,1.14.28,2.51.58,4,.81a74,74,0,0,0,15.32,0,40.82,40.82,0,0,0,7.49-1.83A27.71,27.71,0,0,0,42.28,95Z"/><path class="cls-39" d="M14.71,63.62a.73.73,0,0,0-.72.73v4.7a.72.72,0,0,0,.72.72h5.85V63.62Z"/><rect class="cls-40" x="20.56" y="63.62" width="13.63" height="6.15"/><path class="cls-41" d="M40.15,63.62h-6v6.15h6a.73.73,0,0,0,.73-.72v-4.7A.73.73,0,0,0,40.15,63.62Z"/><path class="cls-42" d="M38.3,1.74a1.21,1.21,0,0,1-1.63.35c-.7-.3-1.08-.95-.87-1.44A1.22,1.22,0,0,1,37.44.31C38.13.61,38.52,1.25,38.3,1.74Z"/><path class="cls-43" d="M19.05.65c.1.41-.42.89-1.16,1.07s-1.42,0-1.52-.45S16.79.37,17.53.2,19,.23,19.05.65Z"/><path class="cls-44" d="M37.12,14.84V11.35H38v9.9H36.48a1.41,1.41,0,0,1-.79-.23,1.75,1.75,0,0,1-.54-.65,3.36,3.36,0,0,1-.33-1,7.19,7.19,0,0,1-.1-1.27,7.66,7.66,0,0,1,.11-1.32,3.56,3.56,0,0,1,.33-1,1.86,1.86,0,0,1,.55-.67,1.28,1.28,0,0,1,.77-.24Zm0,1.43h-.64a.68.68,0,0,0-.4.13,1,1,0,0,0-.29.36,2.51,2.51,0,0,0-.17.58,4.4,4.4,0,0,0,0,.76,3.89,3.89,0,0,0,0,.71,2.24,2.24,0,0,0,.17.55.92.92,0,0,0,.29.35.68.68,0,0,0,.4.12h.64Z"/><path class="cls-44" d="M29.77,16.3a10.54,10.54,0,0,1,.17-2,6.53,6.53,0,0,1,.47-1.61,3.18,3.18,0,0,1,.72-1.06,1.35,1.35,0,0,1,1.88,0,3.2,3.2,0,0,1,.73,1.06,7,7,0,0,1,.47,1.61,11.42,11.42,0,0,1,.17,2,11.53,11.53,0,0,1-.17,2,6.9,6.9,0,0,1-.47,1.6A3.1,3.1,0,0,1,33,21a1.35,1.35,0,0,1-1.88,0,3.18,3.18,0,0,1-.72-1.06,6.45,6.45,0,0,1-.47-1.6A10.64,10.64,0,0,1,29.77,16.3Zm.87,0a9.13,9.13,0,0,0,.1,1.46,4.75,4.75,0,0,0,.28,1.1,1.8,1.8,0,0,0,.45.69.87.87,0,0,0,1.2,0,1.8,1.8,0,0,0,.45-.69,4.72,4.72,0,0,0,.29-1.1,9.13,9.13,0,0,0,.1-1.46,9.22,9.22,0,0,0-.1-1.46,4.5,4.5,0,0,0-.29-1.09,1.8,1.8,0,0,0-.45-.69.87.87,0,0,0-1.2,0,1.8,1.8,0,0,0-.45.69,4.53,4.53,0,0,0-.28,1.09A9.22,9.22,0,0,0,30.64,16.3Z"/><path class="cls-44" d="M28.32,12.87H26.5V11.35h2.67v9.9h-.85Z"/><path class="cls-44" d="M25,11.35h.85v9.9H25Z"/><path class="cls-44" d="M21,13.69s-.08,0-.12-.12l-.33-.79a3.11,3.11,0,0,1,.68-1.14,1.35,1.35,0,0,1,1-.4,1.31,1.31,0,0,1,.91.38,3,3,0,0,1,.69,1.05,7,7,0,0,1,.43,1.6,12.7,12.7,0,0,1,0,4.08,6.8,6.8,0,0,1-.48,1.59A2.94,2.94,0,0,1,23,21a1.38,1.38,0,0,1-.94.37,1.28,1.28,0,0,1-.89-.35,3.06,3.06,0,0,1-.65-.94l.29-.85a.39.39,0,0,1,.06-.15.13.13,0,0,1,.11-.06c.05,0,.1,0,.15.13a1.88,1.88,0,0,0,.19.26,1.26,1.26,0,0,0,.29.27.79.79,0,0,0,.45.12.86.86,0,0,0,.59-.24,1.89,1.89,0,0,0,.46-.7,4.61,4.61,0,0,0,.3-1.09,8.11,8.11,0,0,0,.11-1.46,8.27,8.27,0,0,0-.11-1.48,5.12,5.12,0,0,0-.29-1.1,2,2,0,0,0-.44-.68.75.75,0,0,0-.54-.24,1.06,1.06,0,0,0-.31,0,.71.71,0,0,0-.26.13,1.22,1.22,0,0,0-.22.23,2,2,0,0,0-.21.34l-.06.1A.1.1,0,0,1,21,13.69Z"/><path class="cls-44" d="M17.06,21.25V19.79h2V17H17.49V15.62h1.58V12.83h-2V11.35h2.86v9.9Z"/><path class="cls-45" d="M39.71,65.42A3.47,3.47,0,1,1,36.25,62,3.46,3.46,0,0,1,39.71,65.42Z"/><path class="cls-46" d="M42.05,67.7a3.47,3.47,0,1,1-3.47-3.47A3.47,3.47,0,0,1,42.05,67.7Z"/><path class="cls-47" d="M20.47,67.7A3.47,3.47,0,1,1,17,64.23,3.48,3.48,0,0,1,20.47,67.7Z"/><path class="cls-48" d="M22.55,65.77a3.47,3.47,0,1,1-3.46-3.46A3.46,3.46,0,0,1,22.55,65.77Z"/><path class="cls-49" d="M18.55,112v2.18h-.81V108h1.41a1.78,1.78,0,0,1,.76.14,1.32,1.32,0,0,1,.52.41,1.72,1.72,0,0,1,.31.62,2.87,2.87,0,0,1,.1.8,3,3,0,0,1-.1.82,2,2,0,0,1-.32.64,1.46,1.46,0,0,1-.53.42,1.68,1.68,0,0,1-.74.15Zm0-.9h.6a.94.94,0,0,0,.39-.07.89.89,0,0,0,.28-.23,1.19,1.19,0,0,0,.16-.36,2.26,2.26,0,0,0,.05-.47,2,2,0,0,0-.05-.45,1,1,0,0,0-.16-.34.74.74,0,0,0-.28-.22.94.94,0,0,0-.39-.07h-.6Z"/><path class="cls-49" d="M25.49,111.05a5.05,5.05,0,0,1-.16,1.26,3.53,3.53,0,0,1-.45,1,2.17,2.17,0,0,1-.69.66,1.81,1.81,0,0,1-1.8,0,2.2,2.2,0,0,1-.7-.66,3.53,3.53,0,0,1-.45-1,4.63,4.63,0,0,1-.16-1.26,4.53,4.53,0,0,1,.16-1.26,3.41,3.41,0,0,1,.45-1,2.12,2.12,0,0,1,.7-.67,1.83,1.83,0,0,1,.9-.23,1.73,1.73,0,0,1,.9.24,2.17,2.17,0,0,1,.69.66,3.41,3.41,0,0,1,.45,1A4.93,4.93,0,0,1,25.49,111.05Zm-.83,0a3.71,3.71,0,0,0-.1-.92,2.2,2.2,0,0,0-.27-.68,1.26,1.26,0,0,0-.43-.43,1.18,1.18,0,0,0-1.15,0,1.26,1.26,0,0,0-.43.43,2.48,2.48,0,0,0-.28.68,4.28,4.28,0,0,0-.09.92A4.19,4.19,0,0,0,22,112a2.24,2.24,0,0,0,.28.68,1.26,1.26,0,0,0,.43.43,1.18,1.18,0,0,0,1.15,0,1.26,1.26,0,0,0,.43-.43,2,2,0,0,0,.27-.68A3.62,3.62,0,0,0,24.66,111.05Z"/><path class="cls-49" d="M26.78,113.19h1.74v1H26V108h.8Z"/><path class="cls-49" d="M29.84,114.14H29V108h.81Z"/><path class="cls-49" d="M33.66,112.68a.15.15,0,0,1,.11.07l.32.5a2,2,0,0,1-.65.71,1.72,1.72,0,0,1-.93.25,1.57,1.57,0,0,1-.86-.24,2,2,0,0,1-.66-.65,2.93,2.93,0,0,1-.42-1,5.08,5.08,0,0,1-.15-1.27,4.67,4.67,0,0,1,.16-1.28,3.18,3.18,0,0,1,.46-1,2.27,2.27,0,0,1,.7-.65,1.89,1.89,0,0,1,.91-.23,1.61,1.61,0,0,1,.85.22,2.13,2.13,0,0,1,.62.58l-.27.54-.06.09a.18.18,0,0,1-.11,0,.21.21,0,0,1-.14-.07l-.18-.17a1.85,1.85,0,0,0-.29-.17,1,1,0,0,0-.43-.07,1.09,1.09,0,0,0-.56.15,1.29,1.29,0,0,0-.44.43,2.17,2.17,0,0,0-.29.69,3.62,3.62,0,0,0-.1.91,3.79,3.79,0,0,0,.1.93,2.36,2.36,0,0,0,.28.68,1.2,1.2,0,0,0,.42.42,1,1,0,0,0,.52.15l.3,0,.24-.08a.8.8,0,0,0,.21-.15,1.34,1.34,0,0,0,.2-.21l.07-.07Z"/><path class="cls-49" d="M37.3,108v.91H35.37v1.72h1.52v.88H35.37v1.75H37.3v.92H34.55V108Z"/></g></g></g></svg>