<svg xmlns="http://www.w3.org/2000/svg" xmlns:xlink="http://www.w3.org/1999/xlink" viewBox="0 0 55.94 120.94"><defs><style>.cls-1{isolation:isolate;}.cls-2{fill:url(#linear-gradient);}.cls-3{fill:url(#radial-gradient);}.cls-4{fill:url(#radial-gradient-2);}.cls-5{fill:url(#linear-gradient-2);}.cls-6{fill:url(#linear-gradient-3);}.cls-7{fill:url(#linear-gradient-4);}.cls-8{fill:url(#radial-gradient-3);}.cls-9{fill:url(#radial-gradient-4);}.cls-10{fill:url(#radial-gradient-5);}.cls-11{fill:url(#linear-gradient-5);}.cls-12{fill:#ed1c24;}.cls-13{fill:#008ae8;}.cls-14{fill:url(#linear-gradient-6);}.cls-15{fill:url(#linear-gradient-7);}.cls-16{fill:url(#linear-gradient-8);}.cls-17{fill:url(#linear-gradient-9);}.cls-18{fill:url(#linear-gradient-10);}.cls-19{fill:url(#linear-gradient-11);}.cls-20{fill:url(#linear-gradient-12);}.cls-21{fill:url(#linear-gradient-13);}.cls-22{fill:url(#radial-gradient-6);}.cls-23{fill:url(#radial-gradient-7);}.cls-24{fill:url(#linear-gradient-14);}.cls-25{fill:url(#linear-gradient-15);}.cls-26,.cls-28,.cls-40{mix-blend-mode:screen;}.cls-26{fill:url(#linear-gradient-16);}.cls-27{fill:url(#linear-gradient-17);}.cls-28{fill:#111;}.cls-29{fill:url(#linear-gradient-18);}.cls-30{fill:url(#linear-gradient-19);}.cls-31{fill:url(#linear-gradient-20);}.cls-32{fill:url(#linear-gradient-21);}.cls-33{fill:url(#linear-gradient-22);}.cls-34{fill:url(#linear-gradient-23);}.cls-35{fill:#595959;}.cls-36{fill:url(#linear-gradient-24);}.cls-37{fill:url(#linear-gradient-25);}.cls-38{fill:#9e9e9e;}.cls-39{fill:url(#linear-gradient-26);}.cls-40{fill:url(#linear-gradient-27);}.cls-41{fill:url(#radial-gradient-8);}.cls-42{fill:url(#linear-gradient-28);}.cls-43{fill:url(#radial-gradient-9);}.cls-44,.cls-45,.cls-47,.cls-48,.cls-49,.cls-50{mix-blend-mode:color-dodge;}.cls-44{fill:url(#radial-gradient-10);}.cls-45{fill:url(#radial-gradient-11);}.cls-46{fill:#afafaf;}.cls-47{fill:url(#radial-gradient-12);}.cls-48{fill:url(#radial-gradient-13);}.cls-49{fill:url(#radial-gradient-14);}.cls-50{fill:url(#radial-gradient-15);}</style><linearGradient id="linear-gradient" x1="16.19" y1="3.8" x2="39.77" y2="3.8" gradientUnits="userSpaceOnUse"><stop offset="0" stop-color="#525956"/><stop offset="1" stop-color="#2c2e2e"/></linearGradient><radialGradient id="radial-gradient" cx="39.05" cy="-4058.22" r="33.81" gradientTransform="translate(-4.11 9323.32) scale(1 2.28)" gradientUnits="userSpaceOnUse"><stop offset="0" stop-color="#f7f7f7"/><stop offset="1" stop-color="#a8abaa"/></radialGradient><radialGradient id="radial-gradient-2" cx="25.43" cy="-4058.22" r="34.24" xlink:href="#radial-gradient"/><linearGradient id="linear-gradient-2" x1="-29.58" y1="79.65" x2="15.43" y2="79.65" gradientTransform="translate(35.35 19) scale(1.04 1.15)" gradientUnits="userSpaceOnUse"><stop offset="0" stop-color="#363b39"/><stop offset="1" stop-color="#1b1c1c"/></linearGradient><linearGradient id="linear-gradient-3" x1="4.25" y1="-0.41" x2="17.16" y2="-0.41" gradientTransform="translate(35.35 19) scale(1.04 1.15)" gradientUnits="userSpaceOnUse"><stop offset="0" stop-color="#1b1c1c"/><stop offset="1" stop-color="#363b39"/></linearGradient><linearGradient id="linear-gradient-4" x1="-31.32" y1="-0.41" x2="-18.41" y2="-0.41" xlink:href="#linear-gradient-3"/><radialGradient id="radial-gradient-3" cx="32.24" cy="-4058.22" r="31.02" xlink:href="#radial-gradient"/><radialGradient id="radial-gradient-4" cx="32.24" cy="-5953.16" r="24.8" gradientTransform="translate(-4.11 25101.59) scale(1 4.21)" gradientUnits="userSpaceOnUse"><stop offset="0" stop-color="#fff"/><stop offset="1" stop-color="#d2d6d5"/></radialGradient><radialGradient id="radial-gradient-5" cx="32.24" cy="-4058.22" r="31.02" xlink:href="#radial-gradient"/><linearGradient id="linear-gradient-5" x1="4.24" y1="18.47" x2="51.72" y2="18.47" gradientTransform="matrix(1, 0, 0, 1, 0, 0)" xlink:href="#linear-gradient-2"/><linearGradient id="linear-gradient-6" x1="7.99" y1="32.43" x2="47.97" y2="32.43" gradientUnits="userSpaceOnUse"><stop offset="0"/><stop offset="1" stop-color="#1b1c1c"/></linearGradient><linearGradient id="linear-gradient-7" x1="8.16" y1="41.46" x2="47.8" y2="41.46" gradientTransform="matrix(1, 0, 0, 1, 0, 0)" xlink:href="#linear-gradient-2"/><linearGradient id="linear-gradient-8" x1="27.75" y1="117.37" x2="27.75" y2="108.34" gradientTransform="matrix(1, 0, 0, 1, 0, 0)" xlink:href="#linear-gradient-2"/><linearGradient id="linear-gradient-9" x1="12.38" y1="100.43" x2="43.58" y2="100.43" gradientTransform="matrix(1, 0, 0, 1, 0, 0)" xlink:href="#linear-gradient-2"/><linearGradient id="linear-gradient-10" x1="5.96" y1="53.46" x2="10.53" y2="53.46" gradientTransform="matrix(1, 0, 0, 1, 0, 0)" xlink:href="#linear-gradient-2"/><linearGradient id="linear-gradient-11" x1="45.42" y1="53.46" x2="50" y2="53.46" gradientTransform="matrix(1, 0, 0, 1, 0, 0)" xlink:href="#linear-gradient-2"/><linearGradient id="linear-gradient-12" x1="6.16" y1="83.96" x2="10.95" y2="83.96" gradientTransform="matrix(1, 0, 0, 1, 0, 0)" xlink:href="#linear-gradient-2"/><linearGradient id="linear-gradient-13" x1="45.01" y1="83.96" x2="49.8" y2="83.96" gradientTransform="matrix(1, 0, 0, 1, 0, 0)" xlink:href="#linear-gradient-2"/><radialGradient id="radial-gradient-6" cx="15.14" cy="-11.67" r="3.82" gradientTransform="translate(-4.11 19) scale(1 1.15)" xlink:href="#radial-gradient-4"/><radialGradient id="radial-gradient-7" cx="49.33" cy="-11.67" r="3.82" gradientTransform="translate(-4.11 19) scale(1 1.15)" xlink:href="#radial-gradient-4"/><linearGradient id="linear-gradient-14" x1="8.01" y1="118.51" x2="16.42" y2="118.51" gradientUnits="userSpaceOnUse"><stop offset="0" stop-color="#f37e5f"/><stop offset="0.5" stop-color="#ec1c24"/><stop offset="1" stop-color="#cf232a"/></linearGradient><linearGradient id="linear-gradient-15" x1="38.51" y1="118.59" x2="47.4" y2="118.59" xlink:href="#linear-gradient-14"/><linearGradient id="linear-gradient-16" x1="27.58" y1="37.35" x2="39.13" y2="45.57" gradientUnits="userSpaceOnUse"><stop offset="0" stop-color="#363b39"/><stop offset="1"/></linearGradient><linearGradient id="linear-gradient-17" x1="16.15" y1="52.54" x2="62.03" y2="127.85" gradientUnits="userSpaceOnUse"><stop offset="0" stop-color="#f7f7f7"/><stop offset="1" stop-color="#dbdbdb"/></linearGradient><linearGradient id="linear-gradient-18" x1="48.5" y1="37.34" x2="53.18" y2="46.39" gradientTransform="matrix(1, 0, 0, 1, 0, 0)" xlink:href="#linear-gradient-2"/><linearGradient id="linear-gradient-19" x1="50.3" y1="40.03" x2="55.94" y2="40.03" gradientTransform="matrix(1, 0, 0, 1, 0, 0)" xlink:href="#radial-gradient-4"/><linearGradient id="linear-gradient-20" x1="50.3" y1="40.82" x2="55.94" y2="40.82" gradientTransform="matrix(1, 0, 0, 1, 0, 0)" xlink:href="#linear-gradient-2"/><linearGradient id="linear-gradient-21" x1="5.84" y1="38.1" x2="9.91" y2="47.05" gradientTransform="matrix(1, 0, 0, 1, 0, 0)" xlink:href="#linear-gradient-2"/><linearGradient id="linear-gradient-22" y1="39.95" x2="5.64" y2="39.95" gradientUnits="userSpaceOnUse"><stop offset="0" stop-color="#d2d6d5"/><stop offset="1" stop-color="#fff"/></linearGradient><linearGradient id="linear-gradient-23" x1="0" y1="40.73" x2="5.64" y2="40.73" gradientTransform="matrix(1, 0, 0, 1, 0, 0)" xlink:href="#linear-gradient-2"/><linearGradient id="linear-gradient-24" x1="11.21" y1="100.22" x2="44.75" y2="100.22" xlink:href="#linear-gradient-6"/><linearGradient id="linear-gradient-25" x1="10.71" y1="51.49" x2="45.25" y2="51.49" xlink:href="#linear-gradient-6"/><linearGradient id="linear-gradient-26" x1="20.39" y1="120.5" x2="35.55" y2="120.5" gradientTransform="matrix(1, 0, 0, 1, 0, 0)" xlink:href="#linear-gradient-2"/><linearGradient id="linear-gradient-27" x1="21.14" y1="86.89" x2="28.71" y2="98.5" xlink:href="#linear-gradient-16"/><radialGradient id="radial-gradient-8" cx="21.84" cy="65.96" r="4.16" gradientTransform="translate(-4.11 2.38) scale(1 0.98)" gradientUnits="userSpaceOnUse"><stop offset="0" stop-color="#f37e5f"/><stop offset="0.39" stop-color="#ec1c24"/><stop offset="1" stop-color="#b30000"/></radialGradient><linearGradient id="linear-gradient-28" x1="27.94" y1="63.68" x2="27.94" y2="70.34" gradientUnits="userSpaceOnUse"><stop offset="0" stop-color="#363b39"/><stop offset="0.16" stop-color="#383d3a"/><stop offset="0.4"/><stop offset="0.74" stop-color="#5c6161"/><stop offset="1" stop-color="#1b1c1c"/></linearGradient><radialGradient id="radial-gradient-9" cx="42.62" cy="65.96" r="4.29" gradientTransform="translate(-4.11 2.38) scale(1 0.98)" gradientUnits="userSpaceOnUse"><stop offset="0" stop-color="#2bc4f3"/><stop offset="0.35" stop-color="#00aeee"/><stop offset="1" stop-color="#0057da"/></radialGradient><radialGradient id="radial-gradient-10" cx="-99.59" cy="-249.68" r="1.3" gradientTransform="matrix(1.28, 0.55, -0.4, 0.9, 66.31, 280.58)" gradientUnits="userSpaceOnUse"><stop offset="0" stop-color="#ca92f3"/><stop offset="0.03" stop-color="#b986de"/><stop offset="0.11" stop-color="#8863a4"/><stop offset="0.19" stop-color="#5f4472"/><stop offset="0.27" stop-color="#3d2c49"/><stop offset="0.35" stop-color="#221929"/><stop offset="0.42" stop-color="#0f0b12"/><stop offset="0.5" stop-color="#040305"/><stop offset="0.56"/></radialGradient><radialGradient id="radial-gradient-11" cx="-331.47" cy="53.64" r="0.81" gradientTransform="matrix(2.19, -0.5, 0.29, 1.22, 727.82, -231.51)" gradientUnits="userSpaceOnUse"><stop offset="0" stop-color="#fff"/><stop offset="0.04" stop-color="#dedede"/><stop offset="0.12" stop-color="#a4a4a4"/><stop offset="0.2" stop-color="#727272"/><stop offset="0.28" stop-color="#494949"/><stop offset="0.35" stop-color="#292929"/><stop offset="0.43" stop-color="#121212"/><stop offset="0.5" stop-color="#050505"/><stop offset="0.56"/></radialGradient><radialGradient id="radial-gradient-12" cx="41.29" cy="64.64" r="4.62" gradientTransform="translate(-4.11 2.38) scale(1 0.98)" xlink:href="#radial-gradient-10"/><radialGradient id="radial-gradient-13" cx="43.69" cy="66.98" r="4.62" gradientTransform="translate(-4.11 2.38) scale(1 0.98)" xlink:href="#radial-gradient-10"/><radialGradient id="radial-gradient-14" cx="21.56" cy="66.98" r="4.62" gradientTransform="translate(-4.11 2.38) scale(1 0.98)" xlink:href="#radial-gradient-11"/><radialGradient id="radial-gradient-15" cx="23.7" cy="65.01" r="4.62" gradientTransform="translate(-4.11 2.38) scale(1 0.98)" xlink:href="#radial-gradient-11"/></defs><title>Enemy Car 2 </title><g class="cls-1"><g id="Слой_2" data-name="Слой 2"><g id="Layer_1" data-name="Layer 1"><path class="cls-2" d="M39.77,7.59V1.73a41.15,41.15,0,0,0-23.58,0V7.59Z"/><path class="cls-3" d="M5.15,60.52c0-3.54-1.08-14.35-.91-25.18H2.74c-.13,11.16,1,22.23,1,25.87-.19,16.81.15,29.82.81,39H6.13C5.38,91.31,5,78.06,5.15,60.52Z"/><path class="cls-4" d="M52.22,61.21c0-3.64,1.13-14.71,1-25.87h-1.5c.17,10.83-.95,21.64-.91,25.18.19,17.54-.24,30.79-1,39.7h1.58C52.07,91,52.41,78,52.22,61.21Z"/><path class="cls-5" d="M49.83,100.22c-.45,5.35-.29,9.13-.9,11.35a5.27,5.27,0,0,1-2.1,2.76l-2.22-10H11.35L8.67,114A4.93,4.93,0,0,1,7,111.57c-.62-2.22-.45-6-.9-11.35H4.55C5,107,5,111.64,5.7,114.24A5.47,5.47,0,0,0,8,117.17a2,2,0,0,1,.92-.21c2.05,0,3,1.47,5.31,1.05,1.5-.28,2,1.08,2.18,2,1.34.24,2.69.41,4,.54a1.13,1.13,0,0,1,.93-.54h13.3a1.13,1.13,0,0,1,.93.54c1-.1,2-.22,3-.37.14-1,.62-2.5,2.2-2.21C43,118.43,44,117,46,117a1.78,1.78,0,0,1,1.37.56,5.83,5.83,0,0,0,2.86-3.28c.74-2.6.66-7.28,1.15-14Z"/><path class="cls-6" d="M51,20.32c.46,4.45.67,9.74.75,15h1.5c-.07-5.58-.29-11.19-.78-15.9-.56-5.33-1.46-8.09-3-10.31a2.25,2.25,0,0,1-2-.46L41.67,4a3,3,0,0,1-1.06-2q-.4-.16-.84-.3v1.8a12.34,12.34,0,0,1,3.92,2.3C48.22,10,50.06,11.46,51,20.32Z"/><path class="cls-7" d="M5,20.32C5.9,11.46,7.74,10,12.27,5.83a12.23,12.23,0,0,1,3.92-2.3V1.73q-.44.14-.84.3a3,3,0,0,1-1.06,2L8.54,8.67a2.25,2.25,0,0,1-2,.46c-1.59,2.22-2.49,5-3.05,10.31-.49,4.71-.71,10.32-.78,15.9h1.5C4.32,30.06,4.53,24.77,5,20.32Z"/><path class="cls-8" d="M5.15,60.52c-.31,28,.23,45.13,1.88,51A4.93,4.93,0,0,0,8.67,114l2.68-9.65H44.61l2.22,10a5.27,5.27,0,0,0,2.1-2.76c1.65-5.92,2.19-23,1.88-51,0-3.54,1.08-14.35.91-25.18H4.24C4.07,46.17,5.19,57,5.15,60.52Z"/><path class="cls-9" d="M5.15,60.52c-.31,28,.23,45.13,1.88,51A4.93,4.93,0,0,0,8.67,114l2.68-9.65H44.61l2.22,10a5.27,5.27,0,0,0,2.1-2.76c1.65-5.92,2.19-23,1.88-51,0-3.54,1.08-14.35.91-25.18H4.24C4.07,46.17,5.19,57,5.15,60.52Z"/><path class="cls-10" d="M5,20.32c-.46,4.45-.67,9.74-.75,15H51.72c-.08-5.28-.29-10.57-.75-15C50.06,11.46,48.22,10,43.69,5.83a12.34,12.34,0,0,0-3.92-2.3V7.59H16.19V3.53a12.23,12.23,0,0,0-3.92,2.3C7.74,10,5.9,11.46,5,20.32Z"/><path class="cls-11" d="M51,20.32C50.06,11.46,48.22,10,43.69,5.83a12.34,12.34,0,0,0-3.92-2.3C33.24,1,22.72,1,16.19,3.53a12.23,12.23,0,0,0-3.92,2.3C7.74,10,5.9,11.46,5,20.32c-.46,4.45-.67,9.74-.75,15H51.72C51.64,30.06,51.43,24.77,51,20.32Z"/><path class="cls-12" d="M19.49.58a.8.8,0,0,1-.55,1l-1.23.35a.82.82,0,0,1-1-.55h0a.81.81,0,0,1,.56-1L18.48,0a.82.82,0,0,1,1,.55Z"/><path class="cls-13" d="M36.5.58a.8.8,0,0,0,.55,1l1.23.35a.81.81,0,0,0,1-.55h0a.8.8,0,0,0-.55-1L37.5,0a.81.81,0,0,0-1,.55Z"/><path class="cls-14" d="M9.48,35a40.59,40.59,0,0,1,8.45-3,47.3,47.3,0,0,1,20.1,0,40.59,40.59,0,0,1,8.45,3,4.13,4.13,0,0,1,1.32.85v-.06a4.9,4.9,0,0,0,.1-1.77c-.16-.33-.62-.64-1.43-1a40.74,40.74,0,0,0-8.45-3,47,47,0,0,0-20.1,0,40.74,40.74,0,0,0-8.45,3c-.81.39-1.27.7-1.43,1a4.9,4.9,0,0,0,.1,1.77v.06A4.13,4.13,0,0,1,9.48,35Z"/><path class="cls-15" d="M18.6,49.62a86.51,86.51,0,0,1,18.76,0,29.45,29.45,0,0,1,7.89,2.32l2.55-16A4.13,4.13,0,0,0,46.48,35a40.59,40.59,0,0,0-8.45-3,47.3,47.3,0,0,0-20.1,0,40.59,40.59,0,0,0-8.45,3,4.13,4.13,0,0,0-1.32.85l2.55,16A29.45,29.45,0,0,1,18.6,49.62Z"/><path class="cls-16" d="M11.35,104.31,8.67,114C13.76,118.28,28,118,28,118s13.41.26,18.85-3.68l-2.22-10Z"/><path class="cls-17" d="M12.82,95.47a27.86,27.86,0,0,0-.31,7.67A42.43,42.43,0,0,0,20.16,105a78.5,78.5,0,0,0,15.63,0,42.41,42.41,0,0,0,7.66-1.85,27.57,27.57,0,0,0-.3-7.6A73.36,73.36,0,0,1,28,96.87,77,77,0,0,1,12.82,95.47Z"/><path class="cls-18" d="M6.43,70.33l4.1,1.25L10,55,6.75,35.34A57.4,57.4,0,0,0,6,47.61c.18,4.57.68,10.86.67,14.91C6.66,66.38,6.53,69,6.43,70.33Z"/><path class="cls-19" d="M49.53,70.33l-4.11,1.25L46,55l3.21-19.65A57.4,57.4,0,0,1,50,47.61c-.18,4.57-.68,10.86-.67,14.91C49.3,66.38,49.4,69,49.53,70.33Z"/><path class="cls-20" d="M6.33,71.86l4.23,1.61L11,87.34A21.42,21.42,0,0,1,9.34,91.9c-1.48,3.25-3,4.15-3,4.15S6,77.06,6.33,71.86Z"/><path class="cls-21" d="M49.63,71.86,45.4,73.47,45,87.34a21.42,21.42,0,0,0,1.61,4.56c1.48,3.25,3,4.15,3,4.15S50,77.06,49.63,71.86Z"/><path class="cls-22" d="M8.54,8.67,14.29,4a3,3,0,0,0,1.06-2,13.46,13.46,0,0,0-4.09,2.36A31.83,31.83,0,0,0,6.57,9.13,2.25,2.25,0,0,0,8.54,8.67Z"/><path class="cls-23" d="M41.67,4l5.75,4.63a2.25,2.25,0,0,0,2,.46A31.83,31.83,0,0,0,44.7,4.39,13.46,13.46,0,0,0,40.61,2,3,3,0,0,0,41.67,4Z"/><path class="cls-24" d="M14.24,118C12,118.43,11,117,8.93,117a2,2,0,0,0-.92.21c2.09,1.44,5.23,2.33,8.41,2.88C16.24,119.09,15.74,117.73,14.24,118Z"/><path class="cls-25" d="M40.71,118c-1.58-.29-2.06,1.25-2.2,2.21a25.51,25.51,0,0,0,8.89-2.7A1.78,1.78,0,0,0,46,117C44,117,43,118.43,40.71,118Z"/><path class="cls-26" d="M46.48,35a40.22,40.22,0,0,0-13.17-3.78c-4.24,5-9.27,14.16-11.32,18a89,89,0,0,1,15.37.34,29.45,29.45,0,0,1,7.89,2.32l2.55-16A4.13,4.13,0,0,0,46.48,35Z"/><path class="cls-27" d="M28,52.6c-12.31-.3-16.45,2.16-16.45,2.16s.15,32.84,1.09,36.11c.64,2.21,8.4,3.19,13.33,3.59H30c4.93-.4,12.69-1.38,13.32-3.59,1-3.27,1.09-36.11,1.09-36.11S40.29,52.3,28,52.6Z"/><path class="cls-28" d="M14.27,5.09a17.61,17.61,0,0,0-8.2,13.28c-.8,9.35-.68,14.06-.68,14.06S7.93,10.05,14.27,5.09Z"/><path class="cls-28" d="M41.73,5.09a17.61,17.61,0,0,1,8.2,13.28c.8,9.35.69,14.06.69,14.06S48.07,10.05,41.73,5.09Z"/><path class="cls-29" d="M49.07,36.56a2.49,2.49,0,0,1,2,2.23c0,1.81-1.92,5.49-2,3.17A40.14,40.14,0,0,1,49.07,36.56Z"/><path class="cls-30" d="M55.75,40.54c-.42-.63-4.29-2-4.29-2-.76-.27-1,.47-1.11,1.11l5.55,1.86A1.29,1.29,0,0,0,55.75,40.54Z"/><path class="cls-31" d="M50.35,39.69a5,5,0,0,0-.05.77L55.75,42a2,2,0,0,0,.15-.41Z"/><path class="cls-32" d="M6.87,36.44s-2,.42-2.09,2.23,2,5.48,2.09,3.16A41.77,41.77,0,0,0,6.87,36.44Z"/><path class="cls-33" d="M4.48,38.46S.61,39.78.19,40.41A1.27,1.27,0,0,0,.07,41.5l5.54-1.87C5.53,39,5.27,38.17,4.48,38.46Z"/><path class="cls-34" d="M.07,41.5a1.56,1.56,0,0,0,.12.33l5.45-1.49a5.9,5.9,0,0,0,0-.71Z"/><path class="cls-35" d="M3.8,60.37a.54.54,0,0,0-.51.56V65.6a.54.54,0,0,0,.51.56Z"/><path class="cls-35" d="M4.06,83.71a.53.53,0,0,0-.51.56v4.66a.54.54,0,0,0,.51.57Z"/><path class="cls-36" d="M44,95.35c-.13-.49-.28-1-.45-1.46,0,0-.22.09-.68.23-1.66.51-6.45,1.71-14.86,1.71a58.39,58.39,0,0,1-14.85-1.74c-.45-.12-.69-.2-.69-.2-.17.47-.31.94-.44,1.41a25.46,25.46,0,0,0-.65,9,48.52,48.52,0,0,0,8.23,1.85,90.66,90.66,0,0,0,16.8,0,48.52,48.52,0,0,0,8.23-1.85A25.31,25.31,0,0,0,44,95.35Zm-.52,7.79A42.41,42.41,0,0,1,35.79,105a78.5,78.5,0,0,1-15.63,0,42.43,42.43,0,0,1-7.65-1.85,27.86,27.86,0,0,1,.31-7.67A77,77,0,0,0,28,96.87a73.36,73.36,0,0,0,15.17-1.33A27.57,27.57,0,0,1,43.45,103.14Z"/><path class="cls-35" d="M52.16,60.37a.54.54,0,0,1,.51.56V65.6a.54.54,0,0,1-.51.56Z"/><path class="cls-37" d="M18.6,49.62a29.45,29.45,0,0,0-7.89,2.32L11,53.88a26.14,26.14,0,0,1,8-2.55,79.31,79.31,0,0,1,18,0,26.27,26.27,0,0,1,8,2.55l.31-1.94a29.45,29.45,0,0,0-7.89-2.32A86.51,86.51,0,0,0,18.6,49.62Z"/><path class="cls-35" d="M51.9,83.71a.54.54,0,0,1,.51.56v4.66a.55.55,0,0,1-.51.57Z"/><path class="cls-38" d="M16.85,27.28c.82-.07,1.23-.58,2.06-.65a.15.15,0,0,0,.12-.14.13.13,0,0,0-.12-.13c-.83.07-1.24.59-2.06.66a.13.13,0,0,0-.12.14A.11.11,0,0,0,16.85,27.28Z"/><path class="cls-38" d="M18.9,26.89c-.82.08-1.23.59-2,.66a.13.13,0,0,0-.12.14.12.12,0,0,0,.12.13c.82-.08,1.23-.59,2-.66A.13.13,0,0,0,19,27,.13.13,0,0,0,18.9,26.89Z"/><path class="cls-38" d="M18.9,27.43c-.82.07-1.23.58-2,.65a.14.14,0,0,0-.12.14.12.12,0,0,0,.12.13c.82-.07,1.23-.59,2.06-.66a.13.13,0,0,0,.12-.14A.12.12,0,0,0,18.9,27.43Z"/><path class="cls-38" d="M39.09,27.28c-.82-.07-1.23-.58-2.05-.65a.15.15,0,0,1-.13-.14.13.13,0,0,1,.13-.13c.82.07,1.23.59,2.05.66a.13.13,0,0,1,.12.14A.11.11,0,0,1,39.09,27.28Z"/><path class="cls-38" d="M37,26.89c.82.08,1.23.59,2.05.66a.13.13,0,0,1,.12.14.12.12,0,0,1-.12.13c-.82-.08-1.23-.59-2.05-.66a.13.13,0,0,1-.13-.14A.13.13,0,0,1,37,26.89Z"/><path class="cls-38" d="M37,27.43c.82.07,1.23.58,2.05.65a.14.14,0,0,1,.12.14.12.12,0,0,1-.12.13c-.82-.07-1.23-.59-2.05-.66a.13.13,0,0,1-.13-.14A.12.12,0,0,1,37,27.43Z"/><path class="cls-39" d="M34.62,120.05H21.32a1.13,1.13,0,0,0-.93.54,73.45,73.45,0,0,0,7.59.35,73.07,73.07,0,0,0,7.57-.35A1.13,1.13,0,0,0,34.62,120.05Z"/><path class="cls-40" d="M43.15,95.54A73.36,73.36,0,0,1,28,96.87c-1.54,0-3,0-4.37-.11-4.33,1.5-7,6.2-7.57,7.41,1.16.28,2.56.58,4.12.82a78.5,78.5,0,0,0,15.63,0,42.41,42.41,0,0,0,7.66-1.85A27.57,27.57,0,0,0,43.15,95.54Z"/><path class="cls-41" d="M15,64a.74.74,0,0,0-.75.73v4.73a.74.74,0,0,0,.75.73h6V64Z"/><rect class="cls-42" x="20.98" y="63.99" width="13.92" height="6.19"/><path class="cls-43" d="M41,64H34.9v6.19H41a.74.74,0,0,0,.74-.73V64.72A.74.74,0,0,0,41,64Z"/><path class="cls-44" d="M39.1,1.75a1.25,1.25,0,0,1-1.67.35c-.71-.3-1.11-1-.89-1.44A1.25,1.25,0,0,1,38.22.31C38.92.61,39.32,1.26,39.1,1.75Z"/><path class="cls-45" d="M19.44.65c.1.42-.43.9-1.18,1.08s-1.45,0-1.55-.45S17.14.38,17.89.2,19.34.23,19.44.65Z"/><path class="cls-46" d="M37.88,14.93V11.42h.87v10H37.24a1.38,1.38,0,0,1-.81-.24,1.71,1.71,0,0,1-.56-.65,3.42,3.42,0,0,1-.33-1,7.23,7.23,0,0,1-.1-1.28,7.66,7.66,0,0,1,.11-1.32,3.53,3.53,0,0,1,.34-1,1.78,1.78,0,0,1,.56-.67,1.3,1.3,0,0,1,.79-.24Zm0,1.44h-.64a.68.68,0,0,0-.42.13.89.89,0,0,0-.29.36,2.1,2.1,0,0,0-.17.58,4.42,4.42,0,0,0-.06.76,4.07,4.07,0,0,0,.06.73,2.09,2.09,0,0,0,.17.55.89.89,0,0,0,.29.34.74.74,0,0,0,.42.12h.64Z"/><path class="cls-46" d="M30.39,16.4a10.75,10.75,0,0,1,.17-2A7,7,0,0,1,31,12.76a3.31,3.31,0,0,1,.74-1.07,1.4,1.4,0,0,1,1.92,0,3.18,3.18,0,0,1,.75,1.07,7.51,7.51,0,0,1,.48,1.61,12.21,12.21,0,0,1,0,4.06A7.51,7.51,0,0,1,34.44,20a3.13,3.13,0,0,1-.75,1.06,1.38,1.38,0,0,1-1.92,0A3.37,3.37,0,0,1,31,20a7.15,7.15,0,0,1-.47-1.61A10.83,10.83,0,0,1,30.39,16.4Zm.88,0a9.44,9.44,0,0,0,.1,1.47,4.72,4.72,0,0,0,.29,1.1,1.89,1.89,0,0,0,.46.7.91.91,0,0,0,.61.24.89.89,0,0,0,.61-.24,1.79,1.79,0,0,0,.47-.7,5.28,5.28,0,0,0,.29-1.1,9.44,9.44,0,0,0,.1-1.47,9.26,9.26,0,0,0-.1-1.47,5.12,5.12,0,0,0-.29-1.1,1.82,1.82,0,0,0-.47-.69.85.85,0,0,0-.61-.25.87.87,0,0,0-.61.25,1.93,1.93,0,0,0-.46.69,4.59,4.59,0,0,0-.29,1.1A9.26,9.26,0,0,0,31.27,16.4Z"/><path class="cls-46" d="M28.91,13H27.05V11.42h2.72v10h-.86Z"/><path class="cls-46" d="M25.55,11.42h.86v10h-.86Z"/><path class="cls-46" d="M21.38,13.77s-.08,0-.12-.12l-.34-.79a3.09,3.09,0,0,1,.7-1.15,1.36,1.36,0,0,1,1.91,0,3,3,0,0,1,.71,1.05,7.05,7.05,0,0,1,.44,1.61,11.93,11.93,0,0,1,.16,2,11.72,11.72,0,0,1-.17,2.05,6.81,6.81,0,0,1-.49,1.61,3.08,3.08,0,0,1-.75,1.05,1.47,1.47,0,0,1-1,.38,1.29,1.29,0,0,1-.9-.36,2.81,2.81,0,0,1-.66-.94l.28-.86a.61.61,0,0,1,.07-.14.14.14,0,0,1,.11-.07c.05,0,.1.05.15.13a3.07,3.07,0,0,0,.2.27,2,2,0,0,0,.3.27.81.81,0,0,0,.46.12.87.87,0,0,0,.6-.25,1.94,1.94,0,0,0,.47-.69,5.5,5.5,0,0,0,.31-1.11A9.14,9.14,0,0,0,24,16.4a9.58,9.58,0,0,0-.11-1.5,5.93,5.93,0,0,0-.3-1.1,2,2,0,0,0-.45-.68.78.78,0,0,0-.55-.24,1.08,1.08,0,0,0-.32,0,.91.91,0,0,0-.26.13,1.25,1.25,0,0,0-.23.23,2.69,2.69,0,0,0-.21.35.43.43,0,0,1-.07.1A.09.09,0,0,1,21.38,13.77Z"/><path class="cls-46" d="M17.41,21.38V19.9h2.06V17.14H17.85V15.72h1.62V12.9H17.41V11.42h2.92v10Z"/><path class="cls-47" d="M40.53,65.8A3.54,3.54,0,1,1,37,62.31,3.51,3.51,0,0,1,40.53,65.8Z"/><path class="cls-48" d="M42.92,68.1a3.54,3.54,0,1,1-3.54-3.49A3.51,3.51,0,0,1,42.92,68.1Z"/><path class="cls-49" d="M20.89,68.1a3.54,3.54,0,1,1-3.54-3.49A3.51,3.51,0,0,1,20.89,68.1Z"/><path class="cls-50" d="M23,66.16a3.54,3.54,0,1,1-3.54-3.49A3.51,3.51,0,0,1,23,66.16Z"/><path class="cls-38" d="M18.93,112.62v2.19H18.1v-6.22h1.45a1.86,1.86,0,0,1,.77.15,1.44,1.44,0,0,1,.54.41,1.72,1.72,0,0,1,.31.62,2.92,2.92,0,0,1,.1.8,3.09,3.09,0,0,1-.11.83,1.88,1.88,0,0,1-.32.65,1.41,1.41,0,0,1-.54.42,1.73,1.73,0,0,1-.75.15Zm0-.9h.62a.93.93,0,0,0,.39-.08.63.63,0,0,0,.28-.23,1,1,0,0,0,.17-.36,1.77,1.77,0,0,0,.05-.48,1.64,1.64,0,0,0-.05-.45.91.91,0,0,0-.17-.34.62.62,0,0,0-.28-.22.94.94,0,0,0-.39-.07h-.62Z"/><path class="cls-38" d="M26,111.7a4.65,4.65,0,0,1-.16,1.27,3.35,3.35,0,0,1-.46,1,2.2,2.2,0,0,1-.7.66,1.83,1.83,0,0,1-.92.24,1.8,1.8,0,0,1-.92-.24,2.13,2.13,0,0,1-.71-.66,3.35,3.35,0,0,1-.46-1,5.12,5.12,0,0,1,0-2.54,3.29,3.29,0,0,1,.46-1,2.06,2.06,0,0,1,.71-.67,1.8,1.8,0,0,1,.92-.24,1.83,1.83,0,0,1,.92.24,2.23,2.23,0,0,1,.7.67,3.29,3.29,0,0,1,.46,1A4.65,4.65,0,0,1,26,111.7Zm-.84,0a3.71,3.71,0,0,0-.1-.92,2.17,2.17,0,0,0-.28-.69,1.21,1.21,0,0,0-.44-.43,1.14,1.14,0,0,0-.58-.15,1.18,1.18,0,0,0-.59.15,1.29,1.29,0,0,0-.44.43,2.17,2.17,0,0,0-.28.69,4.28,4.28,0,0,0,0,1.84,2.17,2.17,0,0,0,.28.69,1.39,1.39,0,0,0,.44.43,1.18,1.18,0,0,0,.59.15,1.14,1.14,0,0,0,.58-.15,1.29,1.29,0,0,0,.44-.43,2.17,2.17,0,0,0,.28-.69A3.71,3.71,0,0,0,25.17,111.7Z"/><path class="cls-38" d="M27.34,113.86h1.77v1h-2.6v-6.22h.83Z"/><path class="cls-38" d="M30.46,114.81h-.83v-6.22h.83Z"/><path class="cls-38" d="M34.36,113.34a.14.14,0,0,1,.11.08l.33.49a2,2,0,0,1-.67.72,1.69,1.69,0,0,1-.94.25,1.67,1.67,0,0,1-.89-.24,1.94,1.94,0,0,1-.68-.66,3.38,3.38,0,0,1-.42-1,5.17,5.17,0,0,1-.15-1.28,4.67,4.67,0,0,1,.16-1.28,3.25,3.25,0,0,1,.47-1,2.12,2.12,0,0,1,.72-.65,1.83,1.83,0,0,1,.92-.24,1.75,1.75,0,0,1,.87.22,2.09,2.09,0,0,1,.63.59l-.27.54-.07.09a.15.15,0,0,1-.1,0,.22.22,0,0,1-.15-.08l-.18-.17a2.48,2.48,0,0,0-.29-.17,1.13,1.13,0,0,0-.44-.07,1.17,1.17,0,0,0-.58.15,1.45,1.45,0,0,0-.45.44,2.43,2.43,0,0,0-.29.69,3.6,3.6,0,0,0-.11.91,3.71,3.71,0,0,0,.11.93,2.21,2.21,0,0,0,.28.69,1.46,1.46,0,0,0,.43.43,1,1,0,0,0,.53.15,1.39,1.39,0,0,0,.3,0,.72.72,0,0,0,.26-.08,1,1,0,0,0,.21-.14,1.49,1.49,0,0,0,.21-.22.17.17,0,0,1,.06-.06A.11.11,0,0,1,34.36,113.34Z"/><path class="cls-38" d="M38.07,108.59v.92h-2v1.73h1.55v.89H36.1v1.76h2v.92h-2.8v-6.22Z"/></g></g></g></svg>