<svg xmlns="http://www.w3.org/2000/svg" xmlns:xlink="http://www.w3.org/1999/xlink" viewBox="0 0 56.56 115.54"><defs><style>.cls-1{isolation:isolate;}.cls-2{fill:url(#radial-gradient);}.cls-3{fill:url(#linear-gradient);}.cls-4{fill:url(#radial-gradient-2);}.cls-5{fill:url(#linear-gradient-2);}.cls-6{fill:url(#linear-gradient-3);}.cls-7{fill:url(#linear-gradient-4);}.cls-8{fill:url(#linear-gradient-5);}.cls-9{fill:url(#linear-gradient-6);}.cls-10{fill:url(#linear-gradient-7);}.cls-11{fill:url(#linear-gradient-8);}.cls-12{fill:url(#linear-gradient-9);}.cls-13{fill:url(#linear-gradient-10);}.cls-14{fill:url(#radial-gradient-3);}.cls-15{fill:url(#radial-gradient-4);}.cls-16{fill:#f15a29;}.cls-17,.cls-20,.cls-29{mix-blend-mode:screen;}.cls-17{fill:url(#linear-gradient-11);}.cls-18{fill:url(#linear-gradient-12);}.cls-19{fill:url(#linear-gradient-13);}.cls-20{fill:#474747;}.cls-21{fill:url(#linear-gradient-14);}.cls-22{fill:url(#radial-gradient-5);}.cls-23{fill:url(#linear-gradient-15);}.cls-24{fill:url(#linear-gradient-16);}.cls-25{fill:url(#radial-gradient-6);}.cls-26{fill:url(#linear-gradient-17);}.cls-27{fill:#595959;}.cls-28{fill:url(#linear-gradient-18);}.cls-29{fill:url(#linear-gradient-19);}.cls-30{fill:#3c2415;}.cls-31{fill:#c96e00;}.cls-32{fill:#fbb040;}.cls-33{fill:#66493a;}.cls-34,.cls-35{mix-blend-mode:color-dodge;}.cls-34{fill:url(#radial-gradient-7);}.cls-35{fill:url(#radial-gradient-8);}</style><radialGradient id="radial-gradient" cx="28.29" cy="58.43" r="44.02" gradientUnits="userSpaceOnUse"><stop offset="0" stop-color="#ffba00"/><stop offset="1" stop-color="#ffa100"/></radialGradient><linearGradient id="linear-gradient" x1="16.37" y1="3.28" x2="40.21" y2="3.28" gradientUnits="userSpaceOnUse"><stop offset="0" stop-color="#525956"/><stop offset="1" stop-color="#2c2e2e"/></linearGradient><radialGradient id="radial-gradient-2" cx="28.29" cy="-6001" r="24.84" gradientTransform="translate(0 24167.34) scale(1 4.02)" gradientUnits="userSpaceOnUse"><stop offset="0" stop-color="#ffe800"/><stop offset="1" stop-color="#ffc552"/></radialGradient><linearGradient id="linear-gradient-2" x1="10.83" y1="48.76" x2="45.75" y2="48.76" gradientUnits="userSpaceOnUse"><stop offset="0"/><stop offset="1" stop-color="#1b1c1c"/></linearGradient><linearGradient id="linear-gradient-3" x1="8.07" y1="30.44" x2="48.51" y2="30.44" xlink:href="#linear-gradient-2"/><linearGradient id="linear-gradient-4" x1="8.25" y1="39.11" x2="48.33" y2="39.11" gradientUnits="userSpaceOnUse"><stop offset="0" stop-color="#363b39"/><stop offset="1" stop-color="#1b1c1c"/></linearGradient><linearGradient id="linear-gradient-5" x1="11.33" y1="98.24" x2="45.25" y2="98.24" xlink:href="#linear-gradient-2"/><linearGradient id="linear-gradient-6" x1="12.52" y1="98.53" x2="44.06" y2="98.53" xlink:href="#linear-gradient-4"/><linearGradient id="linear-gradient-7" x1="6.7" y1="50.65" x2="10.65" y2="50.65" xlink:href="#linear-gradient-4"/><linearGradient id="linear-gradient-8" x1="45.93" y1="50.65" x2="49.88" y2="50.65" xlink:href="#linear-gradient-4"/><linearGradient id="linear-gradient-9" x1="6.98" y1="79.98" x2="11.07" y2="79.98" xlink:href="#linear-gradient-4"/><linearGradient id="linear-gradient-10" x1="45.51" y1="79.98" x2="49.6" y2="79.98" xlink:href="#linear-gradient-4"/><radialGradient id="radial-gradient-3" cx="11.08" cy="-8.03" r="3.71" gradientTransform="translate(0 13.82) scale(1 1.1)" gradientUnits="userSpaceOnUse"><stop offset="0" stop-color="#fff"/><stop offset="1" stop-color="#d2d6d5"/></radialGradient><radialGradient id="radial-gradient-4" cx="45.5" cy="-8.03" r="3.71" xlink:href="#radial-gradient-3"/><linearGradient id="linear-gradient-11" x1="28.08" y1="35.05" x2="39.5" y2="43.17" gradientUnits="userSpaceOnUse"><stop offset="0" stop-color="#363b39"/><stop offset="1"/></linearGradient><linearGradient id="linear-gradient-12" x1="11.66" y1="69.94" x2="44.92" y2="69.94" gradientUnits="userSpaceOnUse"><stop offset="0" stop-color="#fffa61"/><stop offset="1" stop-color="#ffc552"/></linearGradient><linearGradient id="linear-gradient-13" x1="22.41" y1="98.03" x2="43.28" y2="132.3" xlink:href="#linear-gradient-12"/><linearGradient id="linear-gradient-14" x1="49.11" y1="35.13" x2="53.61" y2="43.85" xlink:href="#linear-gradient-4"/><radialGradient id="radial-gradient-5" cx="53.73" cy="37.74" r="2.25" xlink:href="#radial-gradient"/><linearGradient id="linear-gradient-15" x1="50.86" y1="38.5" x2="56.56" y2="38.5" xlink:href="#linear-gradient-4"/><linearGradient id="linear-gradient-16" x1="5.92" y1="35.89" x2="9.84" y2="44.51" xlink:href="#linear-gradient-4"/><radialGradient id="radial-gradient-6" cx="2.83" cy="37.66" r="2.26" xlink:href="#radial-gradient"/><linearGradient id="linear-gradient-17" x1="0" y1="38.41" x2="5.7" y2="38.41" xlink:href="#linear-gradient-4"/><linearGradient id="linear-gradient-18" x1="20.61" y1="115.11" x2="35.95" y2="115.11" xlink:href="#linear-gradient-4"/><linearGradient id="linear-gradient-19" x1="20.43" y1="83.18" x2="28.89" y2="96.15" xlink:href="#linear-gradient-11"/><radialGradient id="radial-gradient-7" cx="-183.28" cy="221.63" r="5.05" gradientTransform="translate(452.03 -76.57) scale(2.31 0.61)" gradientUnits="userSpaceOnUse"><stop offset="0" stop-color="#ffe800"/><stop offset="0.09" stop-color="#cfbc00"/><stop offset="0.19" stop-color="#998b00"/><stop offset="0.3" stop-color="#6a6000"/><stop offset="0.41" stop-color="#443e00"/><stop offset="0.52" stop-color="#262300"/><stop offset="0.62" stop-color="#110f00"/><stop offset="0.73" stop-color="#040400"/><stop offset="0.82"/></radialGradient><radialGradient id="radial-gradient-8" cx="-183.28" cy="324.6" r="5.06" gradientTransform="translate(452.03 -97.38) scale(2.31 0.49)" gradientUnits="userSpaceOnUse"><stop offset="0" stop-color="#ffc900"/><stop offset="0.09" stop-color="#cfa300"/><stop offset="0.19" stop-color="#997800"/><stop offset="0.3" stop-color="#6a5300"/><stop offset="0.41" stop-color="#443500"/><stop offset="0.52" stop-color="#261e00"/><stop offset="0.62" stop-color="#110d00"/><stop offset="0.73" stop-color="#040300"/><stop offset="0.82"/></radialGradient></defs><title>Enemy Car 1 </title><g class="cls-1"><g id="Слой_2" data-name="Слой 2"><g id="Layer_1" data-name="Layer 1"><path class="cls-2" d="M53,18c-.57-5.13-1.47-7.79-3.08-9.92a2.41,2.41,0,0,1-2-.44L42.13,3.88A2.86,2.86,0,0,1,41.06,2l-.85-.29V6.55H16.37V1.66L15.52,2a2.86,2.86,0,0,1-1.07,1.93L8.64,7.59a2.4,2.4,0,0,1-2,.44C5,10.16,4.13,12.82,3.56,18,2.06,31.52,3.11,52.85,3,58.1c-.33,28,1,45.09,2.72,51a5.37,5.37,0,0,0,2.34,2.81,2.1,2.1,0,0,1,.93-.2c2.07,0,3.08,1.42,5.37,1,1.51-.27,2,1,2.2,2,1.36.23,2.72.39,4,.51a1.19,1.19,0,0,1,.95-.51H35a1.16,1.16,0,0,1,1,.52c1-.09,2-.21,3-.35.14-.93.62-2.41,2.22-2.13,2.3.41,3.31-1,5.38-1a1.84,1.84,0,0,1,1.39.54,5.76,5.76,0,0,0,2.89-3.15c1.78-5.91,3-23,2.72-51C53.48,52.85,54.52,31.52,53,18Z"/><path class="cls-3" d="M40.21,6.55V1.66a43.69,43.69,0,0,0-23.84,0V6.55Z"/><path class="cls-4" d="M51.54,18.79c-.92-8.52-2.78-9.19-7.36-13.19C38,.18,18.61.18,12.4,5.6,7.82,9.6,6,10.27,5,18.79c-1.41,13.06-.51,33.59-.57,38.65-.32,27,1,43.4,2.64,49.08,1.93,6.55,21.18,6.2,21.18,6.2s19.26.35,21.18-6.2c1.67-5.68,3-22.1,2.64-49.08C52.06,52.38,53,31.85,51.54,18.79Z"/><path class="cls-5" d="M18.81,47a31,31,0,0,0-8,2.23l.31,1.87a27.12,27.12,0,0,1,8.07-2.45,83.53,83.53,0,0,1,18.16,0,27.12,27.12,0,0,1,8.07,2.45l.31-1.87a31,31,0,0,0-8-2.23A91.12,91.12,0,0,0,18.81,47Z"/><path class="cls-6" d="M9.59,32.94a42.24,42.24,0,0,1,8.54-2.86,50,50,0,0,1,20.32,0A42.24,42.24,0,0,1,47,32.94a4.1,4.1,0,0,1,1.34.82v0a4.58,4.58,0,0,0,.1-1.71c-.16-.32-.62-.61-1.45-1a42.24,42.24,0,0,0-8.54-2.86,50,50,0,0,0-20.32,0A42.24,42.24,0,0,0,9.59,31c-.83.38-1.29.67-1.45,1a4.58,4.58,0,0,0,.1,1.71v0A3.93,3.93,0,0,1,9.59,32.94Z"/><path class="cls-7" d="M18.81,47a91.12,91.12,0,0,1,19,0,31,31,0,0,1,8,2.23l2.58-15.43A4.1,4.1,0,0,0,47,32.94a42.24,42.24,0,0,0-8.54-2.86,50,50,0,0,0-20.32,0,42.24,42.24,0,0,0-8.54,2.86,3.93,3.93,0,0,0-1.34.82l2.58,15.43A31,31,0,0,1,18.81,47Z"/><path class="cls-8" d="M44.46,91.54c-.13-.67-.28-1.35-.46-2,0,0-.22.12-.68.31-1.69.71-6.52,2.36-15,2.36a44.37,44.37,0,0,1-15-2.4l-.69-.27c-.17.64-.32,1.29-.45,1.94a47.43,47.43,0,0,0-.65,12.4,38.57,38.57,0,0,0,8.31,2.55,67.17,67.17,0,0,0,17,0,38.57,38.57,0,0,0,8.31-2.55A47.14,47.14,0,0,0,44.46,91.54Zm-.53,10.72a34,34,0,0,1-7.74,2.54,57.27,57.27,0,0,1-15.8,0,34,34,0,0,1-7.74-2.54A51.71,51.71,0,0,1,13,91.71a58.72,58.72,0,0,0,15.33,1.91,55.08,55.08,0,0,0,15.34-1.83A51.31,51.31,0,0,1,43.93,102.26Z"/><path class="cls-9" d="M13,91.71a51.71,51.71,0,0,0-.31,10.55,34,34,0,0,0,7.74,2.54,57.27,57.27,0,0,0,15.8,0,34,34,0,0,0,7.74-2.54,51.31,51.31,0,0,0-.3-10.47,55.08,55.08,0,0,1-15.34,1.83A58.72,58.72,0,0,1,13,91.71Z"/><path class="cls-10" d="M7.26,66.87l3.39,1.21-.58-15.95L6.83,33.23s-.28,4.85,0,11.79c.17,4.4.68,10.45.67,14.35C7.49,63.07,7.36,65.58,7.26,66.87Z"/><path class="cls-11" d="M49.33,66.87l-3.4,1.21.58-15.95,3.25-18.9s.28,4.85,0,11.79c-.18,4.4-.69,10.45-.68,14.35C49.09,63.07,49.2,65.62,49.33,66.87Z"/><path class="cls-12" d="M7.15,68.35l3.53,1.54.39,13.34a20,20,0,0,1-1.62,4.39,18.82,18.82,0,0,1-2.3,4S6.77,73.34,7.15,68.35Z"/><path class="cls-13" d="M49.43,68.35l-3.52,1.54-.4,13.34a20,20,0,0,0,1.62,4.39,18.82,18.82,0,0,0,2.3,4S49.81,73.34,49.43,68.35Z"/><path class="cls-14" d="M8.64,7.59l5.81-3.71A2.86,2.86,0,0,0,15.52,2a13.56,13.56,0,0,0-4.13,2.27C9.34,6,7.81,6.49,6.65,8A2.4,2.4,0,0,0,8.64,7.59Z"/><path class="cls-15" d="M42.13,3.88l5.81,3.71a2.41,2.41,0,0,0,2,.44C48.77,6.49,47.24,6,45.19,4.22A13.56,13.56,0,0,0,41.06,2,2.86,2.86,0,0,0,42.13,3.88Z"/><path class="cls-16" d="M14.4,112.72c-2.29.41-3.3-1-5.37-1a2.1,2.1,0,0,0-.93.2c2.11,1.39,5.29,2.24,8.5,2.77C16.43,113.76,15.91,112.45,14.4,112.72Z"/><path class="cls-16" d="M41.16,112.72c-1.6-.28-2.08,1.2-2.22,2.13a27.14,27.14,0,0,0,9-2.6,1.84,1.84,0,0,0-1.39-.54C44.47,111.71,43.46,113.13,41.16,112.72Z"/><path class="cls-17" d="M47,32.94a42.24,42.24,0,0,0-8.54-2.86,41.71,41.71,0,0,0-4.77-.77c-4.29,4.84-9.37,13.61-11.45,17.32A94.45,94.45,0,0,1,37.78,47a31,31,0,0,1,8,2.23l2.58-15.43A4.1,4.1,0,0,0,47,32.94Z"/><path class="cls-18" d="M28.29,49.83c-12.45-.3-16.63,2.07-16.63,2.07s.15,31.58,1.1,34.72c.65,2.13,8.49,3.07,13.47,3.45h4.12c5-.38,12.82-1.32,13.47-3.45,1-3.14,1.1-34.72,1.1-34.72S40.74,49.53,28.29,49.83Z"/><path class="cls-19" d="M30.46,111.67c12.09-.39,17.44-4,17.44-4l-2.39-3c-7.55,4.43-17.22,3.52-17.22,3.52h0s-9.68.91-17.22-3.52l-2.39,3s5.35,3.59,17.44,4c.63,0,2.17,0,2.17,0h0C29.11,111.71,29.83,111.7,30.46,111.67Z"/><path class="cls-20" d="M14.43,4.89a14.9,14.9,0,0,0-8.29,12,131,131,0,0,0-.69,13.53S8,9.66,14.43,4.89Z"/><path class="cls-20" d="M42.19,4.89a14.88,14.88,0,0,1,8.29,12,129.79,129.79,0,0,1,.7,13.53S48.61,9.66,42.19,4.89Z"/><path class="cls-21" d="M49.61,34.41s2,.4,2,2.14-1.94,5.28-2,3A40.43,40.43,0,0,1,49.61,34.41Z"/><path class="cls-22" d="M56.37,38.23C56,37.62,52,36.35,52,36.35c-.77-.27-1,.45-1.12,1.06l5.61,1.79A1.16,1.16,0,0,0,56.37,38.23Z"/><path class="cls-23" d="M50.91,37.41a4.76,4.76,0,0,0,0,.75l5.51,1.43a1.8,1.8,0,0,0,.15-.39Z"/><path class="cls-24" d="M6.94,34.29s-2.06.4-2.11,2.14,2.07,5.28,2.11,3A35.39,35.39,0,0,0,6.94,34.29Z"/><path class="cls-25" d="M4.53,36.23S.62,37.5.19,38.11a1.19,1.19,0,0,0-.12,1l5.6-1.8C5.59,36.74,5.33,36,4.53,36.23Z"/><path class="cls-26" d="M.07,39.16a1.66,1.66,0,0,0,.12.31L5.7,38a5.44,5.44,0,0,0,0-.68Z"/><path class="cls-27" d="M3.1,57.29a.54.54,0,0,0-.52.55v4.48a.53.53,0,0,0,.52.54Z"/><path class="cls-27" d="M3.36,79.74a.53.53,0,0,0-.52.54v4.48a.53.53,0,0,0,.52.54Z"/><path class="cls-27" d="M53.48,57.29a.54.54,0,0,1,.52.55v4.48a.53.53,0,0,1-.52.54Z"/><path class="cls-27" d="M53.22,79.74a.53.53,0,0,1,.52.54v4.48a.53.53,0,0,1-.52.54Z"/><path class="cls-28" d="M35,114.68H21.56a1.19,1.19,0,0,0-.95.51,76.78,76.78,0,0,0,7.68.34s3.45.06,7.66-.33A1.16,1.16,0,0,0,35,114.68Z"/><path class="cls-29" d="M43.63,91.79a55.08,55.08,0,0,1-15.34,1.83c-1.56,0-3-.05-4.42-.15-4.38,2.07-7,8.55-7.65,10.21a35.07,35.07,0,0,0,4.17,1.12,57.27,57.27,0,0,0,15.8,0,34,34,0,0,0,7.74-2.54A51.31,51.31,0,0,0,43.63,91.79Z"/><path class="cls-30" d="M35.78,62.86h-15V57.18h15Zm-14.25-.74H35V57.93H21.53Z"/><rect class="cls-31" x="21.22" y="60.15" width="14.13" height="2.27"/><rect class="cls-32" x="21.22" y="57.57" width="14.13" height="2.27"/><rect class="cls-30" x="23.64" y="60.57" width="1.86" height="0.83"/><rect class="cls-30" x="21.75" y="61.42" width="1.86" height="0.83"/><rect class="cls-30" x="32.94" y="61.42" width="1.86" height="0.83"/><polygon class="cls-30" points="29.21 60.62 27.35 60.62 27.35 61.43 25.55 61.43 25.55 62.26 27.41 62.26 27.41 61.46 29.18 61.46 29.18 62.28 31.04 62.28 31.04 61.44 29.21 61.44 29.21 60.62"/><rect class="cls-30" x="31.08" y="60.59" width="1.86" height="0.83"/><rect class="cls-30" x="23.64" y="58.59" width="1.86" height="0.83"/><rect class="cls-30" x="21.75" y="57.74" width="1.86" height="0.83"/><rect class="cls-30" x="32.94" y="57.74" width="1.86" height="0.83"/><polygon class="cls-30" points="29.21 59.37 27.35 59.37 27.35 58.57 25.55 58.57 25.55 57.73 27.41 57.73 27.41 58.54 29.18 58.54 29.18 57.72 31.04 57.72 31.04 58.55 29.21 58.55 29.21 59.37"/><rect class="cls-30" x="31.08" y="58.57" width="1.86" height="0.83"/><rect class="cls-33" x="20.78" y="59.62" width="15" height="0.8"/><path class="cls-34" d="M40,58.43c0,1.7-5.22,3.07-11.67,3.07s-11.67-1.37-11.67-3.07,5.23-3.08,11.67-3.08S40,56.73,40,58.43Z"/><path class="cls-35" d="M40,61.84c0,1.37-5.23,2.48-11.7,2.48s-11.7-1.11-11.7-2.48,5.24-2.49,11.7-2.49S40,60.47,40,61.84Z"/></g></g></g></svg>