<svg xmlns="http://www.w3.org/2000/svg" xmlns:xlink="http://www.w3.org/1999/xlink" viewBox="0 0 60.95 125.81"><defs><style>.cls-1{isolation:isolate;}.cls-2{fill:#be1e2d;}.cls-3{fill:url(#radial-gradient);}.cls-4{fill:url(#radial-gradient-2);}.cls-5{fill:url(#radial-gradient-3);}.cls-6{fill:url(#linear-gradient);}.cls-7{fill:url(#linear-gradient-2);}.cls-8{fill:url(#linear-gradient-3);}.cls-9{fill:url(#linear-gradient-4);}.cls-10{fill:url(#linear-gradient-5);}.cls-11{fill:url(#radial-gradient-4);}.cls-12{fill:url(#radial-gradient-5);}.cls-13,.cls-30{mix-blend-mode:screen;}.cls-13{fill:url(#linear-gradient-6);}.cls-14{fill:url(#linear-gradient-7);}.cls-15{fill:url(#linear-gradient-8);}.cls-16{fill:url(#linear-gradient-9);}.cls-17{fill:url(#linear-gradient-10);}.cls-18{fill:url(#radial-gradient-6);}.cls-19{fill:url(#linear-gradient-11);}.cls-20{fill:url(#linear-gradient-12);}.cls-21{fill:url(#radial-gradient-7);}.cls-22{fill:url(#linear-gradient-13);}.cls-23{fill:#595959;}.cls-24{fill:#7a7a7a;}.cls-25{fill:url(#linear-gradient-14);}.cls-26{fill:url(#linear-gradient-15);}.cls-27{fill:#d3d3d3;}.cls-28{fill:url(#linear-gradient-16);}.cls-29{fill:url(#linear-gradient-17);}.cls-30{fill:url(#linear-gradient-18);}</style><radialGradient id="radial-gradient" cx="30.49" cy="3.62" r="8.9" gradientUnits="userSpaceOnUse"><stop offset="0" stop-color="#f7f7f7"/><stop offset="1" stop-color="#a8abaa"/></radialGradient><radialGradient id="radial-gradient-2" cx="13.21" cy="-4009.66" r="36.79" gradientTransform="translate(17.14 7858.65) scale(1.04 1.94)" xlink:href="#radial-gradient"/><radialGradient id="radial-gradient-3" cx="13.87" cy="-3725.85" r="37.23" gradientTransform="translate(17.14 7134.51) scale(1.04 1.9)" gradientUnits="userSpaceOnUse"><stop offset="0" stop-color="#fff"/><stop offset="1" stop-color="#d2d6d5"/></radialGradient><linearGradient id="linear-gradient" x1="11.67" y1="49.1" x2="49.3" y2="49.1" gradientUnits="userSpaceOnUse"><stop offset="0"/><stop offset="1" stop-color="#1b1c1c"/></linearGradient><linearGradient id="linear-gradient-2" x1="8.7" y1="30.93" x2="52.27" y2="30.93" xlink:href="#linear-gradient"/><linearGradient id="linear-gradient-3" x1="8.89" y1="39.53" x2="52.08" y2="39.53" gradientUnits="userSpaceOnUse"><stop offset="0" stop-color="#363b39"/><stop offset="1" stop-color="#0c0d0d"/></linearGradient><linearGradient id="linear-gradient-4" x1="7.22" y1="50.94" x2="11.48" y2="50.94" gradientUnits="userSpaceOnUse"><stop offset="0" stop-color="#363b39"/><stop offset="1"/></linearGradient><linearGradient id="linear-gradient-5" x1="49.5" y1="50.94" x2="53.75" y2="50.94" xlink:href="#linear-gradient-4"/><radialGradient id="radial-gradient-4" cx="12.73" cy="-66.69" r="4.16" gradientTransform="translate(0 72.62) scale(1 1.01)" gradientUnits="userSpaceOnUse"><stop offset="0" stop-color="#8a8a8a"/><stop offset="1" stop-color="#464747"/></radialGradient><radialGradient id="radial-gradient-5" cx="48.24" cy="-66.69" r="4.16" xlink:href="#radial-gradient-4"/><linearGradient id="linear-gradient-6" x1="30.49" y1="35.23" x2="42.43" y2="43.72" xlink:href="#linear-gradient-4"/><linearGradient id="linear-gradient-7" x1="10.35" y1="56.68" x2="122.2" y2="240.26" gradientUnits="userSpaceOnUse"><stop offset="0" stop-color="#f7f7f7"/><stop offset="1" stop-color="#dbdbdb"/></linearGradient><linearGradient id="linear-gradient-8" x1="3.39" y1="-4.02" x2="14.38" y2="27.65" xlink:href="#linear-gradient-7"/><linearGradient id="linear-gradient-9" x1="-1199.56" y1="-4.02" x2="-1188.56" y2="27.65" gradientTransform="matrix(-1, 0, 0, 1, -1141.93, 0)" xlink:href="#linear-gradient-7"/><linearGradient id="linear-gradient-10" x1="53.03" y1="35.55" x2="57.51" y2="44.23" gradientUnits="userSpaceOnUse"><stop offset="0" stop-color="#363b39"/><stop offset="1" stop-color="#1b1c1c"/></linearGradient><radialGradient id="radial-gradient-6" cx="39.26" cy="38.17" r="2.31" gradientTransform="translate(17.14) scale(1.04 1)" xlink:href="#radial-gradient-3"/><linearGradient id="linear-gradient-11" x1="54.81" y1="38.92" x2="60.95" y2="38.92" xlink:href="#linear-gradient-10"/><linearGradient id="linear-gradient-12" x1="6.4" y1="36.34" x2="10.31" y2="44.92" xlink:href="#linear-gradient-10"/><radialGradient id="radial-gradient-7" cx="-13.57" cy="38.09" r="2.33" gradientTransform="translate(17.14) scale(1.04 1)" xlink:href="#radial-gradient-3"/><linearGradient id="linear-gradient-13" x1="0" y1="38.84" x2="6.15" y2="38.84" xlink:href="#linear-gradient-10"/><linearGradient id="linear-gradient-14" x1="16.32" y1="46.84" x2="27.5" y2="63.98" xlink:href="#linear-gradient-10"/><linearGradient id="linear-gradient-15" x1="20.87" y1="62.58" x2="41.71" y2="75.55" xlink:href="#linear-gradient-3"/><linearGradient id="linear-gradient-16" x1="7.16" y1="72.63" x2="11.48" y2="72.63" xlink:href="#linear-gradient-4"/><linearGradient id="linear-gradient-17" x1="-877.08" y1="72.63" x2="-872.76" y2="72.63" gradientTransform="matrix(-1, 0, 0, 1, -823.29, 0)" xlink:href="#linear-gradient-4"/><linearGradient id="linear-gradient-18" x1="27.67" y1="64.86" x2="36.78" y2="72.85" xlink:href="#linear-gradient-4"/></defs><title>Car 1</title><g class="cls-1"><g id="Слой_2" data-name="Слой 2"><g id="Layer_1" data-name="Layer 1"><path class="cls-2" d="M11.61,125.43a.39.39,0,0,1-.39.38H9.46a.39.39,0,0,1-.4-.38v-1.27a.39.39,0,0,1,.4-.38h1.76a.39.39,0,0,1,.39.38Z"/><path class="cls-2" d="M51.89,125.43a.38.38,0,0,1-.39.38H49.74a.39.39,0,0,1-.4-.38v-1.27a.39.39,0,0,1,.4-.38H51.5a.38.38,0,0,1,.39.38Z"/><path class="cls-3" d="M42.54,7.24V1.65a44.86,44.86,0,0,0-24.11,0V7.24Z"/><path class="cls-4" d="M56.34,15.87c-.61-5.08-1.58-5-3.32-7.16a2.78,2.78,0,0,1-2.15-.44L44.61,3.85a2.79,2.79,0,0,1-1.15-1.92l-.92-.28V7.24H18.43V1.65c-.31.09-.62.18-.91.28a2.8,2.8,0,0,1-1.16,1.92L10.1,8.27A2.78,2.78,0,0,1,8,8.71c-1.73,2.11-2.71,2.08-3.32,7.16C3,29.34,3.4,53.15,3.34,58.36c0,3.45-.84,63.21,1.43,65.42,2.79,2.71,48.65,2.71,51.43,0,2.27-2.21,1.48-62,1.44-65.42C57.57,53.15,58,29.34,56.34,15.87Z"/><path class="cls-5" d="M6.43,57.56c0,3.69-2.54,63.54-.13,65.88,2.9,2.82,46.43,2.34,48.37,0,2.14-2.57-.08-62.19-.12-65.88-.07-5,1.72-28,.2-40.9-1-8.42-3-7.16-7.93-11.11-6.69-5.37-26-5.37-32.67,0-4.93,4-6.93,2.69-7.92,11.11C4.71,29.58,6.49,52.56,6.43,57.56Z"/><path class="cls-6" d="M20.26,47.31a36.25,36.25,0,0,0-8.59,2.21L12,51.37A31.43,31.43,0,0,1,20.71,49a98.34,98.34,0,0,1,19.56,0A31.43,31.43,0,0,1,49,51.37l.34-1.85a36.1,36.1,0,0,0-8.59-2.21A107.48,107.48,0,0,0,20.26,47.31Z"/><path class="cls-7" d="M10.33,33.41a48,48,0,0,1,9.2-2.84,58.49,58.49,0,0,1,21.91,0,48,48,0,0,1,9.2,2.84,4.34,4.34,0,0,1,1.44.82v-.06s.32-1.34.11-1.7-.67-.6-1.56-1a48,48,0,0,0-9.2-2.84,58.49,58.49,0,0,0-21.91,0,48,48,0,0,0-9.2,2.84c-.89.37-1.39.66-1.56,1s.11,1.7.11,1.7v.06A4.34,4.34,0,0,1,10.33,33.41Z"/><path class="cls-8" d="M20.26,47.31a107.48,107.48,0,0,1,20.45,0,36.1,36.1,0,0,1,8.59,2.21l2.78-15.29a4.34,4.34,0,0,0-1.44-.82,48,48,0,0,0-9.2-2.84,58.49,58.49,0,0,0-21.91,0,48,48,0,0,0-9.2,2.84,4.34,4.34,0,0,0-1.44.82l2.78,15.29A36.25,36.25,0,0,1,20.26,47.31Z"/><path class="cls-9" d="M8.08,59.62c0,3.67-.15,6.16-.26,7.44l3.44,1.13h.22l-.63-15.75L7.36,33.69s-.31,4.81,0,11.7C7.55,49.75,8.09,55.75,8.08,59.62Z"/><path class="cls-10" d="M49.71,68.19l3.44-1.13c-.14-1.25-.25-3.77-.26-7.44,0-3.87.54-9.87.73-14.23.3-6.89,0-11.7,0-11.7l-3.5,18.75L49.5,68.19Z"/><path class="cls-11" d="M10.1,8.27l6.26-4.42a2.8,2.8,0,0,0,1.16-1.92,15.36,15.36,0,0,0-4.46,2.25A32.11,32.11,0,0,0,8,8.71,2.78,2.78,0,0,0,10.1,8.27Z"/><path class="cls-12" d="M44.61,3.85l6.26,4.42A2.78,2.78,0,0,0,53,8.71a31.68,31.68,0,0,0-5.11-4.53,15.42,15.42,0,0,0-4.45-2.25A2.79,2.79,0,0,0,44.61,3.85Z"/><path class="cls-13" d="M50.64,33.41a48.57,48.57,0,0,0-14.35-3.6C31.67,34.61,26.2,43.3,24,47a111,111,0,0,1,16.75.32,36.1,36.1,0,0,1,8.59,2.21l2.78-15.29A4.34,4.34,0,0,0,50.64,33.41Z"/><path class="cls-14" d="M50.53,122c.09-8.3,3.28-43.58,3.28-43.58s-5.43-4.75-5.42-7c0-10,0-17.4,0-17.4s-4.51-4.39-17.93-3.84C17.07,49.63,12.56,54,12.56,54s0,7.37,0,17.4c0,2.24-5.43,7.06-5.43,7.06s3.19,35.19,3.28,43.48a115.44,115.44,0,0,0,20,1.5A134.46,134.46,0,0,0,50.53,122Z"/><path class="cls-15" d="M16.64,6.35a10.92,10.92,0,0,0-8.75,10C7,25.26,6.39,32.42,6.39,32.42S9.87,11.08,16.64,6.35Z"/><path class="cls-16" d="M44.38,6.35a10.92,10.92,0,0,1,8.75,10c.86,8.92,1.5,16.08,1.5,16.08S51.15,11.08,44.38,6.35Z"/><path class="cls-17" d="M53.46,34.86s2.1.4,2.15,2.13-2.1,5.23-2.15,3A36.53,36.53,0,0,1,53.46,34.86Z"/><path class="cls-18" d="M60.75,38.65c-.46-.6-4.68-1.86-4.68-1.86-.83-.26-1.12.45-1.21,1.05l6,1.77A1,1,0,0,0,60.75,38.65Z"/><path class="cls-19" d="M54.86,37.84a3.55,3.55,0,0,0,0,.74L60.75,40a2.06,2.06,0,0,0,.15-.4Z"/><path class="cls-20" d="M7.48,34.74s-2.23.4-2.28,2.13,2.23,5.23,2.28,3A32.32,32.32,0,0,0,7.48,34.74Z"/><path class="cls-21" d="M4.88,36.67S.66,37.93.2,38.53a1.11,1.11,0,0,0-.13,1l6-1.78C6,37.17,5.74,36.4,4.88,36.67Z"/><path class="cls-22" d="M.07,39.57a2,2,0,0,0,.13.32l5.94-1.43a3.71,3.71,0,0,0,0-.67Z"/><path class="cls-23" d="M3.4,57.56a.55.55,0,0,0-.56.54v4.45a.55.55,0,0,0,.56.53Z"/><path class="cls-23" d="M57.57,57.56a.55.55,0,0,1,.56.54v4.45a.55.55,0,0,1-.56.53Z"/><path class="cls-24" d="M16,27.13c1.07-.08,1.6-.66,2.67-.74a.17.17,0,0,0,.16-.16.16.16,0,0,0-.16-.15c-1.07.08-1.6.67-2.67.75a.15.15,0,0,0-.15.16A.13.13,0,0,0,16,27.13Z"/><path class="cls-24" d="M18.71,26.69c-1.07.08-1.6.66-2.67.74a.16.16,0,0,0-.15.16.15.15,0,0,0,.15.15c1.07-.09,1.6-.67,2.67-.75a.16.16,0,0,0,.16-.16A.14.14,0,0,0,18.71,26.69Z"/><path class="cls-24" d="M18.71,27.29c-1.07.09-1.6.67-2.67.75a.16.16,0,0,0-.16.15.14.14,0,0,0,.16.15c1.07-.08,1.6-.66,2.67-.74a.17.17,0,0,0,.16-.16A.15.15,0,0,0,18.71,27.29Z"/><path class="cls-24" d="M44.91,27.13c-1.07-.08-1.6-.66-2.67-.74a.17.17,0,0,1-.15-.16.15.15,0,0,1,.15-.15c1.07.08,1.6.67,2.67.75a.16.16,0,0,1,.16.16A.14.14,0,0,1,44.91,27.13Z"/><path class="cls-24" d="M42.24,26.69c1.07.08,1.6.66,2.67.74a.17.17,0,0,1,.16.16.16.16,0,0,1-.16.15c-1.07-.09-1.6-.67-2.67-.75a.16.16,0,0,1-.15-.16A.14.14,0,0,1,42.24,26.69Z"/><path class="cls-24" d="M42.24,27.29c1.07.09,1.6.67,2.67.75a.16.16,0,0,1,.16.15.14.14,0,0,1-.16.15c-1.07-.08-1.6-.66-2.67-.74a.17.17,0,0,1-.15-.16A.15.15,0,0,1,42.24,27.29Z"/><path class="cls-25" d="M42.83,73.76c0,1.66-2,3-4.54,3H22.68c-2.5,0-4.53-1.36-4.53-3V63.38c0-1.67,2-3,4.53-3H38.29c2.5,0,4.54,1.35,4.54,3Z"/><path class="cls-26" d="M41.64,73.05c0,1.44-1.84,2.61-4.1,2.61H23.44c-2.27,0-4.1-1.17-4.1-2.61v-9c0-1.44,1.83-2.61,4.1-2.61h14.1c2.26,0,4.1,1.17,4.1,2.61Z"/><path class="cls-27" d="M17.29,117.3a.66.66,0,0,1-.67.64h0a.66.66,0,0,1-.67-.64V84.74a.66.66,0,0,1,.67-.65h0a.66.66,0,0,1,.67.65Z"/><path class="cls-27" d="M20,117.3a.65.65,0,0,1-.66.64h0a.66.66,0,0,1-.67-.64V84.74a.66.66,0,0,1,.67-.65h0a.65.65,0,0,1,.66.65Z"/><path class="cls-27" d="M22.72,117.3a.66.66,0,0,1-.67.64h0a.66.66,0,0,1-.67-.64V84.74a.66.66,0,0,1,.67-.65h0a.66.66,0,0,1,.67.65Z"/><path class="cls-27" d="M25.44,117.3a.66.66,0,0,1-.67.64h0a.66.66,0,0,1-.67-.64V84.74a.66.66,0,0,1,.67-.65h0a.66.66,0,0,1,.67.65Z"/><path class="cls-27" d="M28.15,117.3a.66.66,0,0,1-.67.64h0a.66.66,0,0,1-.67-.64V84.74a.66.66,0,0,1,.67-.65h0a.66.66,0,0,1,.67.65Z"/><path class="cls-27" d="M30.87,117.3a.66.66,0,0,1-.67.64h0a.66.66,0,0,1-.67-.64V84.74a.66.66,0,0,1,.67-.65h0a.66.66,0,0,1,.67.65Z"/><path class="cls-27" d="M33.59,117.3a.66.66,0,0,1-.67.64h0a.66.66,0,0,1-.67-.64V84.74a.66.66,0,0,1,.67-.65h0a.66.66,0,0,1,.67.65Z"/><path class="cls-27" d="M36.3,117.3a.66.66,0,0,1-.67.64h0a.66.66,0,0,1-.67-.64V84.74a.66.66,0,0,1,.67-.65h0a.66.66,0,0,1,.67.65Z"/><path class="cls-27" d="M39,117.3a.66.66,0,0,1-.67.64h0a.66.66,0,0,1-.67-.64V84.74a.66.66,0,0,1,.67-.65h0a.66.66,0,0,1,.67.65Z"/><path class="cls-27" d="M41.73,117.3a.66.66,0,0,1-.67.64h0a.66.66,0,0,1-.67-.64V84.74a.66.66,0,0,1,.67-.65h0a.66.66,0,0,1,.67.65Z"/><path class="cls-27" d="M44.45,117.3a.66.66,0,0,1-.67.64h0a.66.66,0,0,1-.67-.64V84.74a.66.66,0,0,1,.67-.65h0a.66.66,0,0,1,.67.65Z"/><path class="cls-28" d="M11.48,69.59H7.67l-.51,6.07S11.58,73.69,11.48,69.59Z"/><path class="cls-29" d="M49.46,69.59h3.81l.51,6.07S49.36,73.69,49.46,69.59Z"/><path class="cls-30" d="M39.65,61.85a12,12,0,0,0-2.71,2.4c-1.68,2.06-2.5,4.42-5,5.75-1.7.92-3.55,1.07-5,2.34a10.45,10.45,0,0,0-2.55,2.76,5.42,5.42,0,0,0-.22.56H37.54c2.26,0,4.1-1.17,4.1-2.61v-9A2.65,2.65,0,0,0,39.65,61.85Z"/></g></g></g></svg>