<svg xmlns="http://www.w3.org/2000/svg" xmlns:xlink="http://www.w3.org/1999/xlink" viewBox="0 0 63.26 128.75"><defs><style>.cls-1{isolation:isolate;}.cls-2{fill:#f7941e;}.cls-3{fill:#ed1c24;}.cls-4{fill:url(#radial-gradient);}.cls-5{fill:url(#linear-gradient);}.cls-6{fill:url(#radial-gradient-2);}.cls-7{fill:url(#linear-gradient-2);}.cls-8{fill:url(#linear-gradient-3);}.cls-9{fill:url(#linear-gradient-4);}.cls-10{fill:url(#linear-gradient-5);}.cls-11{fill:url(#linear-gradient-6);}.cls-12{fill:url(#linear-gradient-7);}.cls-13{fill:url(#linear-gradient-8);}.cls-14{fill:url(#linear-gradient-9);}.cls-15{fill:url(#linear-gradient-10);}.cls-16{fill:url(#radial-gradient-3);}.cls-17{fill:url(#radial-gradient-4);}.cls-18,.cls-32{mix-blend-mode:screen;}.cls-18{fill:url(#linear-gradient-11);}.cls-19{fill:url(#linear-gradient-12);}.cls-20{fill:url(#linear-gradient-13);}.cls-21{fill:url(#linear-gradient-14);}.cls-22{fill:url(#linear-gradient-15);}.cls-23{fill:url(#linear-gradient-16);}.cls-24{fill:url(#linear-gradient-17);}.cls-25{fill:url(#linear-gradient-18);}.cls-26{fill:url(#linear-gradient-19);}.cls-27{fill:url(#linear-gradient-20);}.cls-28{fill:url(#linear-gradient-21);}.cls-29{fill:#595959;}.cls-30{fill:#9e9e9e;}.cls-31{fill:url(#linear-gradient-22);}.cls-32{fill:url(#linear-gradient-23);}.cls-33{fill:#8c26d1;}</style><radialGradient id="radial-gradient" cx="31.64" cy="65.11" r="48.98" gradientUnits="userSpaceOnUse"><stop offset="0" stop-color="#a840f7"/><stop offset="1" stop-color="#903fab"/></radialGradient><linearGradient id="linear-gradient" x1="18.31" y1="4.04" x2="44.98" y2="4.04" gradientUnits="userSpaceOnUse"><stop offset="0" stop-color="#525956"/><stop offset="1" stop-color="#2c2e2e"/></linearGradient><radialGradient id="radial-gradient-2" cx="58.98" cy="-6047.8" r="28.86" gradientTransform="translate(-25.28 23280.14) scale(0.97 3.84)" gradientUnits="userSpaceOnUse"><stop offset="0" stop-color="#fff"/><stop offset="1" stop-color="#922bd6"/></radialGradient><linearGradient id="linear-gradient-2" x1="12.11" y1="54.82" x2="51.17" y2="54.82" gradientUnits="userSpaceOnUse"><stop offset="0"/><stop offset="1" stop-color="#1b1c1c"/></linearGradient><linearGradient id="linear-gradient-3" x1="9.03" y1="34.53" x2="54.25" y2="34.53" xlink:href="#linear-gradient-2"/><linearGradient id="linear-gradient-4" x1="9.23" y1="44.14" x2="54.06" y2="44.14" gradientUnits="userSpaceOnUse"><stop offset="0" stop-color="#363b39"/><stop offset="1" stop-color="#1b1c1c"/></linearGradient><linearGradient id="linear-gradient-5" x1="12.67" y1="109.6" x2="50.61" y2="109.6" xlink:href="#linear-gradient-2"/><linearGradient id="linear-gradient-6" x1="14" y1="109.92" x2="49.28" y2="109.92" xlink:href="#linear-gradient-4"/><linearGradient id="linear-gradient-7" x1="7.5" y1="56.91" x2="11.91" y2="56.91" xlink:href="#linear-gradient-4"/><linearGradient id="linear-gradient-8" x1="51.37" y1="56.91" x2="55.79" y2="56.91" xlink:href="#linear-gradient-4"/><linearGradient id="linear-gradient-9" x1="7.81" y1="89.38" x2="12.38" y2="89.38" xlink:href="#linear-gradient-4"/><linearGradient id="linear-gradient-10" x1="50.9" y1="89.38" x2="55.47" y2="89.38" xlink:href="#linear-gradient-4"/><radialGradient id="radial-gradient-3" cx="39.04" cy="-1.65" r="4.46" gradientTransform="translate(-25.28 7.7) scale(0.97 1.05)" xlink:href="#radial-gradient-2"/><radialGradient id="radial-gradient-4" cx="78.92" cy="-1.65" r="4.46" gradientTransform="translate(-25.28 7.7) scale(0.97 1.05)" xlink:href="#radial-gradient-2"/><linearGradient id="linear-gradient-11" x1="31.44" y1="39.6" x2="44.17" y2="48.65" gradientUnits="userSpaceOnUse"><stop offset="0" stop-color="#363b39"/><stop offset="1"/></linearGradient><linearGradient id="linear-gradient-12" x1="18.79" y1="55.44" x2="68.65" y2="137.29" gradientUnits="userSpaceOnUse"><stop offset="0" stop-color="#a840f7"/><stop offset="1" stop-color="#9539db"/></linearGradient><linearGradient id="linear-gradient-13" x1="25.08" y1="109.29" x2="48.39" y2="147.56" xlink:href="#linear-gradient-12"/><linearGradient id="linear-gradient-14" x1="1.93" y1="-6.5" x2="14.39" y2="29.39" xlink:href="#linear-gradient-12"/><linearGradient id="linear-gradient-15" x1="-1392.9" y1="-6.5" x2="-1380.44" y2="29.39" gradientTransform="matrix(-1, 0, 0, 1, -1331.5, 0)" xlink:href="#linear-gradient-12"/><linearGradient id="linear-gradient-16" x1="54.94" y1="39.72" x2="59.93" y2="49.38" xlink:href="#linear-gradient-4"/><linearGradient id="linear-gradient-17" x1="56.88" y1="42.62" x2="63.26" y2="42.62" gradientTransform="matrix(1, 0, 0, 1, 0, 0)" xlink:href="#radial-gradient-2"/><linearGradient id="linear-gradient-18" x1="56.89" y1="43.46" x2="63.26" y2="43.46" xlink:href="#linear-gradient-4"/><linearGradient id="linear-gradient-19" x1="6.62" y1="40.56" x2="10.97" y2="50.11" xlink:href="#linear-gradient-4"/><linearGradient id="linear-gradient-20" y1="42.53" x2="6.38" y2="42.53" gradientUnits="userSpaceOnUse"><stop offset="0" stop-color="#922bd6"/><stop offset="1" stop-color="#fff"/></linearGradient><linearGradient id="linear-gradient-21" x1="0" y1="43.36" x2="6.38" y2="43.36" xlink:href="#linear-gradient-4"/><linearGradient id="linear-gradient-22" x1="23.06" y1="128.28" x2="40.21" y2="128.28" xlink:href="#linear-gradient-4"/><linearGradient id="linear-gradient-23" x1="22.89" y1="92.82" x2="32.32" y2="107.28" xlink:href="#linear-gradient-11"/></defs><title>Car 3</title><g class="cls-1"><g id="Слой_2" data-name="Слой 2"><g id="Layer_1" data-name="Layer 1"><path class="cls-2" d="M15.42,127.08a.73.73,0,0,1-.89.52l-.7-.14a.73.73,0,0,1-.65-.8h0a.72.72,0,0,1,.9-.51l.7.13a.73.73,0,0,1,.64.8Z"/><path class="cls-3" d="M13.18,126.35a1.06,1.06,0,0,1-1.3.74l-1-.19a1.07,1.07,0,0,1-.94-1.17h0a1.07,1.07,0,0,1,1.3-.74l1,.19a1.07,1.07,0,0,1,.94,1.17Z"/><path class="cls-2" d="M48.15,127.08a.74.74,0,0,0,.9.52l.7-.14a.72.72,0,0,0,.64-.8h0a.71.71,0,0,0-.89-.51l-.7.13a.73.73,0,0,0-.65.8Z"/><path class="cls-3" d="M50.4,126.35a1.06,1.06,0,0,0,1.3.74l1-.19a1.07,1.07,0,0,0,.93-1.17h0a1.07,1.07,0,0,0-1.3-.74l-1,.19a1.07,1.07,0,0,0-.94,1.17Z"/><path class="cls-4" d="M59.3,20.7c-.64-5.68-1.65-8.62-3.45-11a2.68,2.68,0,0,1-2.23-.49L47.12,4.3a3.21,3.21,0,0,1-1.2-2.14L45,1.84V8.08H18.31V1.84c-.33.1-.64.21-.95.32a3.14,3.14,0,0,1-1.2,2.14L9.66,9.23a2.68,2.68,0,0,1-2.23.49C5.63,12.08,4.62,15,4,20.7c-1.68,15,1.17,38.64,1.1,44.46-.37,31-.62,49.92,1.36,56.46a6,6,0,0,0,2.62,3.12c2.36,1.53,5.91,2.48,9.51,3.07,1.52.25,3,.43,4.49.56a1.27,1.27,0,0,1,1.05-.56h15a1.29,1.29,0,0,1,1.06.56c1.08-.1,2.2-.22,3.34-.38,3.68-.53,7.44-1.41,10.06-2.88a6.42,6.42,0,0,0,3.23-3.49c2-6.54,1.74-25.43,1.37-56.46C58.13,59.34,61,35.73,59.3,20.7Z"/><path class="cls-5" d="M45,8.08V1.84c-7.61-2.45-19.07-2.45-26.67,0V8.08Z"/><path class="cls-6" d="M57.64,21.63c-1-9.43-3.11-11-8.23-15.43-6.94-6-28.6-6-35.54,0-5.12,4.42-7.2,6-8.23,15.43-1.58,14.47,1.1,37.19,1,42.8C6.32,94.29,6.09,112.48,8,118.77c2.16,7.26,23.69,6.86,23.69,6.86s21.54.4,23.69-6.86c1.86-6.29,1.63-24.48,1.28-54.34C56.55,58.82,59.22,36.1,57.64,21.63Z"/><path class="cls-7" d="M21,52.82a35.4,35.4,0,0,0-8.92,2.47l.35,2.07a30.91,30.91,0,0,1,9-2.71,94.36,94.36,0,0,1,20.3,0,30.91,30.91,0,0,1,9,2.71l.35-2.07a35.26,35.26,0,0,0-8.92-2.47A104.5,104.5,0,0,0,21,52.82Z"/><path class="cls-8" d="M10.72,37.3a47.87,47.87,0,0,1,9.55-3.17,56.54,56.54,0,0,1,22.74,0,47.87,47.87,0,0,1,9.55,3.17,4.66,4.66,0,0,1,1.5.91v-.06a5.09,5.09,0,0,0,.11-1.9,3.5,3.5,0,0,0-1.62-1.09A48,48,0,0,0,43,32a56.54,56.54,0,0,0-22.74,0,48,48,0,0,0-9.55,3.16A3.5,3.5,0,0,0,9.1,36.25a5.05,5.05,0,0,0,.12,1.9v.06A4.47,4.47,0,0,1,10.72,37.3Z"/><path class="cls-9" d="M21,52.82a104.5,104.5,0,0,1,21.22,0,35.26,35.26,0,0,1,8.92,2.47l2.89-17.08a4.66,4.66,0,0,0-1.5-.91A47.87,47.87,0,0,0,43,34.13a56.54,56.54,0,0,0-22.74,0,47.87,47.87,0,0,0-9.55,3.17,4.47,4.47,0,0,0-1.49.91l2.88,17.08A35.4,35.4,0,0,1,21,52.82Z"/><path class="cls-10" d="M49.73,102.18c-.15-.74-.32-1.49-.52-2.23a7.82,7.82,0,0,1-.76.35c-1.88.78-7.3,2.61-16.81,2.61a50.12,50.12,0,0,1-16.79-2.65c-.51-.19-.78-.31-.78-.31-.19.72-.36,1.44-.5,2.15a51.55,51.55,0,0,0-.73,13.73,43.63,43.63,0,0,0,9.3,2.82,75.51,75.51,0,0,0,19,0,43.38,43.38,0,0,0,9.3-2.82A51.92,51.92,0,0,0,49.73,102.18Zm-.6,11.87a38.53,38.53,0,0,1-8.65,2.82,65.42,65.42,0,0,1-17.68,0,38.76,38.76,0,0,1-8.65-2.82,56.92,56.92,0,0,1,.35-11.68,66.28,66.28,0,0,0,17.14,2.12,62.35,62.35,0,0,0,17.16-2A56.81,56.81,0,0,1,49.13,114.05Z"/><path class="cls-11" d="M14.5,102.37a56.92,56.92,0,0,0-.35,11.68,38.76,38.76,0,0,0,8.65,2.82,65.42,65.42,0,0,0,17.68,0,38.53,38.53,0,0,0,8.65-2.82,56.81,56.81,0,0,0-.33-11.59,62.35,62.35,0,0,1-17.16,2A66.28,66.28,0,0,1,14.5,102.37Z"/><path class="cls-12" d="M8.11,74.87l3.8,1.34-.65-17.66L7.64,37.62s-.32,5.37,0,13.06c.19,4.86.76,11.56.75,15.88C8.38,70.66,8.23,73.44,8.11,74.87Z"/><path class="cls-13" d="M55.17,74.87l-3.8,1.34L52,58.55l3.63-20.93s.31,5.37,0,13.06c-.2,4.86-.76,11.56-.76,15.88C54.9,70.66,55,73.48,55.17,74.87Z"/><path class="cls-14" d="M8,76.5l3.94,1.71L12.38,93a21.52,21.52,0,0,1-1.81,4.86A20.9,20.9,0,0,1,8,102.25S7.57,82,8,76.5Z"/><path class="cls-15" d="M55.28,76.5l-3.94,1.71L50.9,93a22,22,0,0,0,1.82,4.86,20.71,20.71,0,0,0,2.56,4.41S55.71,82,55.28,76.5Z"/><path class="cls-16" d="M9.66,9.23l6.5-4.93a3.14,3.14,0,0,0,1.2-2.14,15.26,15.26,0,0,0-4.62,2.51A34.06,34.06,0,0,0,7.43,9.72,2.68,2.68,0,0,0,9.66,9.23Z"/><path class="cls-17" d="M47.12,4.3l6.5,4.93a2.68,2.68,0,0,0,2.23.49,34.4,34.4,0,0,0-5.3-5.05,15.45,15.45,0,0,0-4.63-2.51A3.21,3.21,0,0,0,47.12,4.3Z"/><path class="cls-18" d="M52.56,37.3A47.87,47.87,0,0,0,43,34.13a46.6,46.6,0,0,0-5.34-.85c-4.8,5.36-10.48,15.07-12.8,19.18a107.49,107.49,0,0,1,17.38.36,35.26,35.26,0,0,1,8.92,2.47l2.89-17.08A4.66,4.66,0,0,0,52.56,37.3Z"/><path class="cls-19" d="M31.64,56C17.72,55.67,13,58.29,13,58.29s.17,35,1.24,38.44c.72,2.36,9.49,3.4,15.06,3.83h4.6c5.57-.43,14.35-1.47,15.07-3.83,1.06-3.47,1.23-38.44,1.23-38.44S45.57,55.67,31.64,56Z"/><path class="cls-20" d="M34.07,124.47c13.52-.43,19.51-4.41,19.51-4.41l-2.68-3.34c-8.44,4.9-19.26,3.9-19.26,3.9h0s-10.82,1-19.26-3.9L9.7,120.06s6,4,19.52,4.41c.7,0,2.42,0,2.42,0h0C32.56,124.52,33.36,124.5,34.07,124.47Z"/><path class="cls-21" d="M16.14,5.41S7.76,9.8,6.87,19.55a144.1,144.1,0,0,0-.78,15S9,10.7,16.14,5.41Z"/><path class="cls-22" d="M47.19,5.41s8.38,4.39,9.27,14.14a144.1,144.1,0,0,1,.78,15S54.37,10.7,47.19,5.41Z"/><path class="cls-23" d="M55.49,38.92s2.17.45,2.22,2.38-2.17,5.84-2.22,3.36A41.74,41.74,0,0,1,55.49,38.92Z"/><path class="cls-24" d="M63.05,43.15c-.48-.67-4.86-2.08-4.86-2.08-.86-.29-1.15.5-1.25,1.18l6.27,2A1.27,1.27,0,0,0,63.05,43.15Z"/><path class="cls-25" d="M56.94,42.25a4.38,4.38,0,0,0,0,.82l6.16,1.59a1.88,1.88,0,0,0,.16-.43Z"/><path class="cls-26" d="M7.77,38.79s-2.32.44-2.37,2.37S7.71,47,7.77,44.53A40.11,40.11,0,0,0,7.77,38.79Z"/><path class="cls-27" d="M5.07,40.94S.69,42.35.21,43a1.34,1.34,0,0,0-.14,1.16l6.27-2C6.25,41.5,6,40.64,5.07,40.94Z"/><path class="cls-28" d="M.07,44.18a2.94,2.94,0,0,0,.14.35l6.17-1.59a5.57,5.57,0,0,0,0-.75Z"/><path class="cls-29" d="M5.14,64.27a.58.58,0,0,0-.58.59v5a.59.59,0,0,0,.58.6Z"/><path class="cls-29" d="M4.85,89.11a.59.59,0,0,0-.58.6v5a.59.59,0,0,0,.58.6Z"/><path class="cls-29" d="M58.14,64.27a.58.58,0,0,1,.58.59v5a.59.59,0,0,1-.58.6Z"/><path class="cls-29" d="M58.43,89.11a.59.59,0,0,1,.58.6v5a.59.59,0,0,1-.58.6Z"/><path class="cls-30" d="M19.05,29.05c.93-.08,1.4-.63,2.33-.7a.16.16,0,0,0,.14-.15.14.14,0,0,0-.14-.14c-.93.08-1.4.62-2.33.7a.15.15,0,0,0-.13.15A.13.13,0,0,0,19.05,29.05Z"/><path class="cls-30" d="M21.38,28.63c-.93.08-1.4.62-2.33.7a.14.14,0,0,0-.13.15.13.13,0,0,0,.13.13c.93-.08,1.4-.62,2.33-.7a.14.14,0,0,0,.14-.14A.14.14,0,0,0,21.38,28.63Z"/><path class="cls-30" d="M21.38,29.2c-.93.07-1.4.62-2.33.7a.13.13,0,0,0-.13.14.13.13,0,0,0,.13.14c.93-.08,1.4-.62,2.33-.7a.15.15,0,0,0,.14-.15A.13.13,0,0,0,21.38,29.2Z"/><path class="cls-30" d="M44.21,29.05c-.93-.08-1.4-.63-2.33-.7a.15.15,0,0,1-.13-.15.13.13,0,0,1,.13-.14c.93.08,1.4.62,2.33.7a.15.15,0,0,1,.13.15A.13.13,0,0,1,44.21,29.05Z"/><path class="cls-30" d="M41.88,28.63c.93.08,1.4.62,2.33.7a.14.14,0,0,1,.13.15.13.13,0,0,1-.13.13c-.93-.08-1.4-.62-2.33-.7a.13.13,0,0,1-.13-.14A.13.13,0,0,1,41.88,28.63Z"/><path class="cls-30" d="M41.88,29.2c.93.07,1.4.62,2.33.7a.14.14,0,0,1,.14.14.14.14,0,0,1-.14.14c-.93-.08-1.4-.62-2.33-.7a.14.14,0,0,1-.13-.15A.12.12,0,0,1,41.88,29.2Z"/><path class="cls-31" d="M39.15,127.81h-15a1.27,1.27,0,0,0-1.05.56c4.71.44,8.58.37,8.58.37s3.86.07,8.57-.37A1.29,1.29,0,0,0,39.15,127.81Z"/><path class="cls-32" d="M48.8,102.46a62.35,62.35,0,0,1-17.16,2c-1.75,0-3.39-.06-4.94-.17-4.9,2.29-7.87,9.46-8.56,11.3a39.36,39.36,0,0,0,4.66,1.25,65.42,65.42,0,0,0,17.68,0,38.53,38.53,0,0,0,8.65-2.82A56.81,56.81,0,0,0,48.8,102.46Z"/><path class="cls-33" d="M24.49,6.6s-.07,8.23-2.34,11.87-5,11.19-5,11.19,1.14-8.27,3.67-11.19S24.47,7.12,24.49,6.6Z"/><path class="cls-33" d="M20.82,6.1S20.49,14.77,18,18.54s-5.63,11.64-5.63,11.64,1.46-8.68,4.21-11.68S20.77,6.64,20.82,6.1Z"/><path class="cls-33" d="M38.92,6.6s.07,8.23,2.33,11.87,5,11.19,5,11.19-1.15-8.27-3.68-11.19S38.94,7.12,38.92,6.6Z"/><path class="cls-33" d="M42.59,6.1s.33,8.67,2.82,12.44S51,30.18,51,30.18,49.58,21.5,46.82,18.5,42.63,6.64,42.59,6.1Z"/></g></g></g></svg>