<svg xmlns="http://www.w3.org/2000/svg" xmlns:xlink="http://www.w3.org/1999/xlink" viewBox="0 0 58.46 127.31"><defs><style>.cls-1{isolation:isolate;}.cls-2{fill:url(#radial-gradient);}.cls-3{fill:#a03339;}.cls-4{fill:#be1e2d;}.cls-5{fill:#009bb5;}.cls-6{fill:url(#radial-gradient-2);}.cls-7{fill:url(#linear-gradient);}.cls-8{fill:url(#linear-gradient-2);}.cls-9{fill:url(#linear-gradient-3);}.cls-10{fill:url(#linear-gradient-4);}.cls-11{fill:url(#linear-gradient-5);}.cls-12{mix-blend-mode:screen;fill:url(#linear-gradient-6);}.cls-13{fill:url(#linear-gradient-7);}.cls-14{fill:url(#linear-gradient-8);}.cls-15{fill:url(#linear-gradient-9);}.cls-16{fill:url(#linear-gradient-10);}.cls-17{fill:url(#radial-gradient-3);}.cls-18{fill:url(#linear-gradient-11);}.cls-19{fill:url(#linear-gradient-12);}.cls-20{fill:url(#radial-gradient-4);}.cls-21{fill:url(#linear-gradient-13);}.cls-22{fill:#595959;}.cls-23{fill:#7a7a7a;}.cls-24{fill:url(#linear-gradient-14);}.cls-25{fill:url(#linear-gradient-15);}.cls-26{fill:url(#linear-gradient-16);}.cls-27{fill:url(#radial-gradient-5);}.cls-28,.cls-29,.cls-31,.cls-32{mix-blend-mode:color-dodge;}.cls-28{fill:url(#radial-gradient-6);}.cls-29{fill:url(#radial-gradient-7);}.cls-30{fill:url(#radial-gradient-8);}.cls-31{fill:url(#radial-gradient-9);}.cls-32{fill:url(#radial-gradient-10);}.cls-33{fill:#e0e2e2;}</style><radialGradient id="radial-gradient" cx="44.37" cy="-3972.68" r="36.79" gradientTransform="translate(-14.58 7780.85) scale(1 1.94)" gradientUnits="userSpaceOnUse"><stop offset="0" stop-color="#f7f7f7"/><stop offset="1" stop-color="#a8abaa"/></radialGradient><radialGradient id="radial-gradient-2" cx="45.03" cy="-3686.41" r="37.63" gradientTransform="translate(-14.58 7060.26) scale(1 1.9)" gradientUnits="userSpaceOnUse"><stop offset="0" stop-color="#fff"/><stop offset="1" stop-color="#d2d6d5"/></radialGradient><linearGradient id="linear-gradient" x1="11.19" y1="43.11" x2="47.28" y2="43.11" gradientUnits="userSpaceOnUse"><stop offset="0"/><stop offset="1" stop-color="#1b1c1c"/></linearGradient><linearGradient id="linear-gradient-2" x1="8.34" y1="24.94" x2="50.13" y2="24.94" xlink:href="#linear-gradient"/><linearGradient id="linear-gradient-3" x1="8.53" y1="33.54" x2="49.95" y2="33.54" gradientUnits="userSpaceOnUse"><stop offset="0" stop-color="#363b39"/><stop offset="1" stop-color="#0c0d0d"/></linearGradient><linearGradient id="linear-gradient-4" x1="6.93" y1="44.95" x2="11.01" y2="44.95" gradientUnits="userSpaceOnUse"><stop offset="0" stop-color="#363b39"/><stop offset="1"/></linearGradient><linearGradient id="linear-gradient-5" x1="47.47" y1="44.95" x2="51.55" y2="44.95" xlink:href="#linear-gradient-4"/><linearGradient id="linear-gradient-6" x1="29.15" y1="29.39" x2="40.76" y2="37.65" xlink:href="#linear-gradient-4"/><linearGradient id="linear-gradient-7" x1="8.26" y1="57.68" x2="121.92" y2="244.25" gradientUnits="userSpaceOnUse"><stop offset="0" stop-color="#f7f7f7"/><stop offset="1" stop-color="#dbdbdb"/></linearGradient><linearGradient id="linear-gradient-8" x1="5.02" y1="-0.95" x2="13.17" y2="22.51" xlink:href="#linear-gradient-7"/><linearGradient id="linear-gradient-9" x1="-1528.19" y1="-0.95" x2="-1520.04" y2="22.51" gradientTransform="matrix(-1, 0, 0, 1, -1474.69, 0)" xlink:href="#linear-gradient-7"/><linearGradient id="linear-gradient-10" x1="50.81" y1="29.58" x2="55.28" y2="38.24" gradientUnits="userSpaceOnUse"><stop offset="0" stop-color="#363b39"/><stop offset="1" stop-color="#1b1c1c"/></linearGradient><radialGradient id="radial-gradient-3" cx="70.41" cy="32.19" r="2.31" gradientTransform="translate(-14.58)" xlink:href="#radial-gradient-2"/><linearGradient id="linear-gradient-11" x1="52.56" y1="32.93" x2="58.46" y2="32.93" xlink:href="#linear-gradient-10"/><linearGradient id="linear-gradient-12" x1="6.13" y1="30.34" x2="10.03" y2="38.91" xlink:href="#linear-gradient-10"/><radialGradient id="radial-gradient-4" cx="17.59" cy="32.11" r="2.33" gradientTransform="translate(-14.58)" xlink:href="#radial-gradient-2"/><linearGradient id="linear-gradient-13" x1="0" y1="32.85" x2="5.89" y2="32.85" xlink:href="#linear-gradient-10"/><linearGradient id="linear-gradient-14" x1="6.86" y1="66.64" x2="11.01" y2="66.64" xlink:href="#linear-gradient-4"/><linearGradient id="linear-gradient-15" x1="-1207.63" y1="66.64" x2="-1203.49" y2="66.64" gradientTransform="matrix(-1, 0, 0, 1, -1156.05, 0)" xlink:href="#linear-gradient-4"/><linearGradient id="linear-gradient-16" x1="29.19" y1="59.94" x2="29.19" y2="67.01" gradientUnits="userSpaceOnUse"><stop offset="0" stop-color="#363b39"/><stop offset="0.16" stop-color="#383d3a"/><stop offset="0.4"/><stop offset="0.74" stop-color="#5c6161"/><stop offset="1" stop-color="#1b1c1c"/></linearGradient><radialGradient id="radial-gradient-5" cx="-161.78" cy="80.99" r="3.88" gradientTransform="translate(217.84 -26.71) scale(1.24 1.11)" gradientUnits="userSpaceOnUse"><stop offset="0" stop-color="#f37e5f"/><stop offset="0.39" stop-color="#ec1c24"/><stop offset="1" stop-color="#b30000"/></radialGradient><radialGradient id="radial-gradient-6" cx="-162.03" cy="81.96" r="4.32" gradientTransform="translate(217.84 -26.71) scale(1.24 1.11)" gradientUnits="userSpaceOnUse"><stop offset="0" stop-color="#fff"/><stop offset="0.04" stop-color="#dedede"/><stop offset="0.12" stop-color="#a4a4a4"/><stop offset="0.2" stop-color="#727272"/><stop offset="0.28" stop-color="#494949"/><stop offset="0.35" stop-color="#292929"/><stop offset="0.43" stop-color="#121212"/><stop offset="0.5" stop-color="#050505"/><stop offset="0.56"/></radialGradient><radialGradient id="radial-gradient-7" cx="-160.04" cy="80.11" r="4.32" xlink:href="#radial-gradient-6"/><radialGradient id="radial-gradient-8" cx="-1662.51" cy="80.99" r="3.88" gradientTransform="matrix(-1.24, 0, 0, 1.11, -2020.83, -26.71)" xlink:href="#radial-gradient-5"/><radialGradient id="radial-gradient-9" cx="-1662.77" cy="81.96" r="4.32" gradientTransform="matrix(-1.24, 0, 0, 1.11, -2020.83, -26.71)" xlink:href="#radial-gradient-6"/><radialGradient id="radial-gradient-10" cx="-1660.77" cy="80.11" r="4.32" gradientTransform="matrix(-1.24, 0, 0, 1.11, -2020.83, -26.71)" xlink:href="#radial-gradient-6"/></defs><title>Enemy Car 4</title><g class="cls-1"><g id="Слой_2" data-name="Слой 2"><g id="Layer_1" data-name="Layer 1"><path class="cls-2" d="M3.33,30.05C3.13,40,3.24,49.34,3.2,52.37c0,.79-.06,4.52-.1,9.83H55.37c0-5.31-.09-9-.09-9.83,0-3,.07-12.32-.13-22.22-6.26-5.2-15.57-8.51-26-8.51S9.59,24.9,3.33,30.05Z"/><path class="cls-3" d="M3.1,62.2C3,80.12,2.89,123.57,4.57,125.28c2.68,2.71,46.66,2.71,49.33,0,1.68-1.71,1.61-45.16,1.47-63.08Z"/><rect class="cls-4" x="8.69" y="125.28" width="2.45" height="2.04" rx="0.38" ry="0.38"/><rect class="cls-4" x="47.32" y="125.28" width="2.45" height="2.04" rx="0.38" ry="0.38"/><path class="cls-3" d="M54,15.88c-.59-5.09-1.53-5.06-3.19-7.17A31.36,31.36,0,0,0,46,4.18a14.27,14.27,0,0,0-4.27-2.24c-.29-.11-.58-.2-.88-.29V7.24H17.67V1.65c-.29.09-.59.18-.87.29a14.15,14.15,0,0,0-4.27,2.24,30.91,30.91,0,0,0-4.9,4.53C6,10.82,5,10.79,4.44,15.88A108.86,108.86,0,0,0,3.33,30.05c6.26-5.15,15.51-8.41,25.85-8.41s19.71,3.31,26,8.51A110.39,110.39,0,0,0,54,15.88Z"/><path class="cls-5" d="M40.8,7.24V1.65a41.36,41.36,0,0,0-23.13,0V7.24Z"/><path class="cls-6" d="M6.16,51.57c0,3.69-2.43,71-.12,73.37,2.78,2.82,44.53,2.33,46.39,0,2-2.57-.07-69.68-.12-73.37-.06-5,1.65-22,.19-34.91-1-8.42-2.87-7.16-7.6-11.11C38.49.18,20,.18,13.57,5.55,8.85,9.5,6.92,8.24,6,16.66,4.51,29.58,6.22,46.57,6.16,51.57Z"/><path class="cls-7" d="M19.44,41.32a33,33,0,0,0-8.25,2.22l.33,1.85A29,29,0,0,1,19.86,43a90.48,90.48,0,0,1,18.76,0A29,29,0,0,1,47,45.39l.32-1.85A32.92,32.92,0,0,0,39,41.32,98.75,98.75,0,0,0,19.44,41.32Z"/><path class="cls-8" d="M9.91,27.42a44.7,44.7,0,0,1,8.82-2.84,53.83,53.83,0,0,1,21,0,44.63,44.63,0,0,1,8.83,2.84,4.22,4.22,0,0,1,1.38.82v-.06a4.48,4.48,0,0,0,.11-1.7,3.19,3.19,0,0,0-1.5-1,45.32,45.32,0,0,0-8.83-2.84,53.83,53.83,0,0,0-21,0,45.4,45.4,0,0,0-8.82,2.84,3.19,3.19,0,0,0-1.5,1,4.48,4.48,0,0,0,.11,1.7v.06A4,4,0,0,1,9.91,27.42Z"/><path class="cls-9" d="M19.44,41.32a98.75,98.75,0,0,1,19.6,0,32.92,32.92,0,0,1,8.24,2.22L50,28.24a4.22,4.22,0,0,0-1.38-.82,44.63,44.63,0,0,0-8.83-2.84,53.83,53.83,0,0,0-21,0,44.7,44.7,0,0,0-8.82,2.84,4,4,0,0,0-1.38.82l2.66,15.3A33,33,0,0,1,19.44,41.32Z"/><path class="cls-10" d="M7.75,53.63c0,3.67-.14,6.16-.25,7.44l3.3,1.13H11L10.4,46.45,7.06,27.71s-.3,4.8,0,11.69C7.24,43.76,7.76,49.76,7.75,53.63Z"/><path class="cls-11" d="M47.67,62.2,51,61.07c-.14-1.24-.25-3.77-.25-7.44,0-3.87.51-9.87.69-14.23.29-6.89,0-11.69,0-11.69L48.07,46.45l-.6,15.75Z"/><path class="cls-12" d="M48.57,27.42a45.13,45.13,0,0,0-13.76-3.6C30.38,28.62,25.13,37.32,23,41A102,102,0,0,1,39,41.32a32.92,32.92,0,0,1,8.24,2.22L50,28.24A4.22,4.22,0,0,0,48.57,27.42Z"/><path class="cls-13" d="M49.53,123.75c.09-7.66.77-47.86.77-47.86s-4.91-4.38-4.9-6.42c0-9.25,0-16.06,0-16.06s-4.06-4-16.17-3.54c-12.11-.5-16.18,3.54-16.18,3.54s0,6.81,0,16.06c0,2.06-4.9,6.51-4.9,6.51s.38,40,.46,47.6A159.53,159.53,0,0,0,29.18,125,198.66,198.66,0,0,0,49.53,123.75Z"/><path class="cls-14" d="M16,6.35s-7.58,1.26-8.39,10c-.83,8.92-1.45,10.09-1.45,10.09S9.46,11.08,16,6.35Z"/><path class="cls-15" d="M42.56,6.35s7.59,1.26,8.39,10c.83,8.92,1.45,10.09,1.45,10.09S49.06,11.08,42.56,6.35Z"/><path class="cls-16" d="M51.27,28.87s2,.4,2.06,2.13-2,5.23-2.06,3A38.18,38.18,0,0,1,51.27,28.87Z"/><path class="cls-17" d="M58.26,32.66c-.44-.6-4.48-1.86-4.48-1.86-.8-.26-1.08.45-1.17,1.05l5.8,1.78A1.13,1.13,0,0,0,58.26,32.66Z"/><path class="cls-18" d="M52.61,31.85a4,4,0,0,0,0,.74L58.26,34a2.12,2.12,0,0,0,.15-.39Z"/><path class="cls-19" d="M7.18,28.75S5,29.15,5,30.88s2.14,5.23,2.19,3A35,35,0,0,0,7.18,28.75Z"/><path class="cls-20" d="M4.68,30.68S.64,31.94.2,32.54a1.13,1.13,0,0,0-.13,1.05L5.86,31.8C5.77,31.18,5.51,30.41,4.68,30.68Z"/><path class="cls-21" d="M.07,33.59a1.33,1.33,0,0,0,.13.31l5.69-1.43a3.71,3.71,0,0,0,0-.67Z"/><path class="cls-22" d="M3.26,51.57a.54.54,0,0,0-.54.54v4.45a.54.54,0,0,0,.54.53Z"/><path class="cls-22" d="M55.22,51.57a.54.54,0,0,1,.53.54v4.45a.53.53,0,0,1-.53.53Z"/><path class="cls-23" d="M15.38,21.14c1-.08,1.54-.66,2.56-.74a.16.16,0,0,0,.15-.16.15.15,0,0,0-.15-.15c-1,.09-1.53.67-2.56.75a.16.16,0,0,0-.15.16A.14.14,0,0,0,15.38,21.14Z"/><path class="cls-23" d="M17.94,20.7c-1,.08-1.53.66-2.56.74a.17.17,0,0,0-.15.16.15.15,0,0,0,.15.15c1-.09,1.54-.67,2.56-.75a.15.15,0,0,0,.15-.16A.13.13,0,0,0,17.94,20.7Z"/><path class="cls-23" d="M17.94,21.3c-1,.09-1.53.67-2.56.75a.16.16,0,0,0-.15.16.14.14,0,0,0,.15.14c1-.08,1.54-.66,2.56-.74a.16.16,0,0,0,.15-.16A.14.14,0,0,0,17.94,21.3Z"/><path class="cls-23" d="M43.07,21.14c-1-.08-1.53-.66-2.56-.74a.17.17,0,0,1-.15-.16.15.15,0,0,1,.15-.15c1,.09,1.54.67,2.56.75a.15.15,0,0,1,.15.16A.13.13,0,0,1,43.07,21.14Z"/><path class="cls-23" d="M40.51,20.7c1,.08,1.54.66,2.56.74a.16.16,0,0,1,.15.16.15.15,0,0,1-.15.15c-1-.09-1.53-.67-2.56-.75a.16.16,0,0,1-.15-.16A.14.14,0,0,1,40.51,20.7Z"/><path class="cls-23" d="M40.51,21.3c1,.09,1.54.67,2.56.75a.16.16,0,0,1,.15.16.13.13,0,0,1-.15.14c-1-.08-1.53-.66-2.56-.74a.17.17,0,0,1-.15-.16A.15.15,0,0,1,40.51,21.3Z"/><path class="cls-24" d="M11,63.6H7.36l-.5,6.07S11.11,67.7,11,63.6Z"/><path class="cls-25" d="M47.44,63.6h3.65l.49,6.07S47.34,67.7,47.44,63.6Z"/><rect class="cls-26" x="21.09" y="60.27" width="16.2" height="6.57"/><path class="cls-27" d="M14.14,60.27a.82.82,0,0,0-.86.78v5a.81.81,0,0,0,.86.77h7V60.27Z"/><path class="cls-28" d="M21,64.63a3.93,3.93,0,0,1-4.12,3.7,3.72,3.72,0,1,1,0-7.4A3.92,3.92,0,0,1,21,64.63Z"/><path class="cls-29" d="M23.46,62.57a3.93,3.93,0,0,1-4.12,3.7,3.72,3.72,0,1,1,0-7.4A3.92,3.92,0,0,1,23.46,62.57Z"/><path class="cls-30" d="M44.22,60.27a.83.83,0,0,1,.86.78v5a.82.82,0,0,1-.86.77H37.27V60.27Z"/><path class="cls-31" d="M37.38,64.63a4.14,4.14,0,1,0,4.12-3.7A3.93,3.93,0,0,0,37.38,64.63Z"/><path class="cls-32" d="M34.9,62.57A3.93,3.93,0,0,0,39,66.27a3.72,3.72,0,1,0,0-7.4A3.92,3.92,0,0,0,34.9,62.57Z"/><rect class="cls-5" x="26.35" y="77.55" width="5.78" height="23.22"/><polygon class="cls-5" points="37.26 98.19 40.41 93.13 21.22 80.14 18.07 85.2 37.26 98.19"/><polygon class="cls-5" points="21.22 98.19 18.07 93.13 37.26 80.14 40.41 85.2 21.22 98.19"/><path class="cls-33" d="M29.21,96c.26.18.6,0,.85-.22a1.42,1.42,0,0,0,.48-1,1,1,0,0,0-.07-.53.82.82,0,0,0-.34-.35,7.44,7.44,0,0,0-1-.4,3.86,3.86,0,0,1-1-.51,1.52,1.52,0,0,1-.59-1.21,1.86,1.86,0,0,1,.41-1.33,2.86,2.86,0,0,1,1-.63,4.18,4.18,0,0,0,1.79-1.19,2.37,2.37,0,0,0,.34-2.16,2.08,2.08,0,0,0-.48-.95,1.24,1.24,0,0,0-.85-.36,2,2,0,0,0-1.73.93.39.39,0,0,1-.61.13.6.6,0,0,1-.1-.74.42.42,0,0,1,.18-.17h0a4.49,4.49,0,0,1,2.27-.76,1.7,1.7,0,0,1,1.13.54,2.5,2.5,0,0,1,.61,1.24,3.45,3.45,0,0,1,.07,1.4A2.65,2.65,0,0,1,31,89a4.68,4.68,0,0,1-2,1.25,2.2,2.2,0,0,0-.9.53,1.36,1.36,0,0,0-.33,1,1.17,1.17,0,0,0,.45.93,3.71,3.71,0,0,0,.95.49,8.18,8.18,0,0,1,1,.43,1.13,1.13,0,0,1,.46.48,1.41,1.41,0,0,1,.1.73A1.76,1.76,0,0,1,30.23,96a1.37,1.37,0,0,1-.53.32.67.67,0,0,1-.61-.08h0A.2.2,0,0,1,29,96,.12.12,0,0,1,29.21,96Z"/><polygon class="cls-33" points="30.07 87.25 30.6 86.69 29.19 86.45 27.78 86.69 28.32 87.25 29.24 98.19 30.07 87.25"/><rect class="cls-5" x="27.75" y="5.63" width="2.98" height="11.95"/><polygon class="cls-5" points="25.11 6.96 23.49 9.57 33.37 16.25 34.99 13.65 25.11 6.96"/><polygon class="cls-5" points="33.37 6.96 34.99 9.57 25.11 16.25 23.49 13.65 33.37 6.96"/><path class="cls-33" d="M29.26,8.11c-.14-.09-.31,0-.44.11a.69.69,0,0,0-.25.5.58.58,0,0,0,0,.27.55.55,0,0,0,.18.19c.16.08.34.13.52.2a2.16,2.16,0,0,1,.53.26.81.81,0,0,1,.3.63.93.93,0,0,1-.21.68,1.57,1.57,0,0,1-.52.33,2,2,0,0,0-.92.61A1.2,1.2,0,0,0,28.3,13a1,1,0,0,0,.25.49.6.6,0,0,0,.44.18,1,1,0,0,0,.89-.48.2.2,0,0,1,.31-.06.3.3,0,0,1,0,.38.26.26,0,0,1-.09.09h0A2.24,2.24,0,0,1,29,14a.87.87,0,0,1-.58-.27,1.34,1.34,0,0,1-.32-.64,1.93,1.93,0,0,1,0-.72,1.35,1.35,0,0,1,.29-.64,2.34,2.34,0,0,1,1-.65,1.29,1.29,0,0,0,.47-.27.69.69,0,0,0,.16-.52.57.57,0,0,0-.23-.48,1.62,1.62,0,0,0-.49-.25,4.6,4.6,0,0,1-.53-.22.64.64,0,0,1-.24-.25.82.82,0,0,1-.05-.38.92.92,0,0,1,.3-.61A.77.77,0,0,1,29,7.92a.4.4,0,0,1,.32,0h0a.08.08,0,0,1,0,.11S29.29,8.14,29.26,8.11Z"/><polygon class="cls-33" points="28.81 12.59 28.54 12.88 29.26 13 29.99 12.88 29.71 12.59 29.24 6.96 28.81 12.59"/><rect class="cls-5" x="50.71" y="85.24" width="1.69" height="4"/><polygon class="cls-5" points="52.2 81.7 51.84 79.52 50.9 92.78 51.26 94.96 52.2 81.7"/><polygon class="cls-5" points="52.2 92.78 51.84 94.96 50.9 81.7 51.26 79.52 52.2 92.78"/><path class="cls-33" d="M52,87.26a2.91,2.91,0,0,0,0-.59c0-.18,0-.32-.07-.33s0,0,0,0,0,.13,0,.24,0,.45,0,.69,0,.48,0,.71-.06.41-.09.41-.07-.07-.1-.28,0-.47,0-.7c0-.47-.05-.93-.09-1.24s-.1-.39-.16-.24a1.29,1.29,0,0,0-.07.34c0,.15,0,.36,0,.58a7.92,7.92,0,0,0,.07,1.19,2.94,2.94,0,0,1,0,.43c0,.13,0,.16-.06.07s0-.08,0-.13h0c0-.52-.06-1-.06-1.57,0-.27,0-.57,0-.78a2,2,0,0,1,.09-.43c0-.07.07-.1.1,0a1,1,0,0,1,.09.39c0,.39.08.89.1,1.36,0,.23,0,.46,0,.62s.05.23.08.23,0-.12.07-.31,0-.42,0-.66l0-.72a2.31,2.31,0,0,1,0-.32c0-.07,0-.08.05-.07s.07.2.09.41a3.53,3.53,0,0,1,0,.36c0,.13,0,.3,0,.43h0s0,.06,0,0A.49.49,0,0,1,52,87.26Z"/><polygon class="cls-33" points="51.41 86.67 51.37 86.3 51.35 87.27 51.37 88.25 51.41 87.88 52.2 87.24 51.41 86.67"/><rect class="cls-5" x="6.02" y="85.24" width="1.69" height="4"/><polygon class="cls-5" points="6.21 92.78 6.58 94.96 7.52 81.7 7.15 79.52 6.21 92.78"/><polygon class="cls-5" points="6.21 81.7 6.58 79.52 7.52 92.78 7.15 94.96 6.21 81.7"/><path class="cls-33" d="M6.37,87.22a3.88,3.88,0,0,0,0,.59c0,.18,0,.32.07.33s0,0,0,0,0-.13,0-.24,0-.45,0-.69,0-.48,0-.71,0-.41.09-.41.07.07.09.28,0,.47.05.7c0,.47,0,.92.08,1.24s.11.39.16.24a1.29,1.29,0,0,0,.07-.34,4.85,4.85,0,0,0,0-.58,7.83,7.83,0,0,0-.07-1.19,2,2,0,0,1,0-.43c0-.13,0-.16,0-.07s0,.08,0,.13h0c0,.52,0,1,0,1.57a6.24,6.24,0,0,1,0,.78,1.5,1.5,0,0,1-.09.43c0,.07-.06.1-.1,0a1.22,1.22,0,0,1-.09-.39c0-.39-.07-.89-.09-1.36,0-.23,0-.46,0-.62s0-.23-.07-.23-.06.12-.07.31,0,.42,0,.66,0,.48,0,.72a2.5,2.5,0,0,1,0,.32c0,.07,0,.08-.06.07a1.07,1.07,0,0,1-.08-.41q0-.15,0-.36c0-.13,0-.3,0-.43h0s0-.06,0,0Z"/><polygon class="cls-33" points="7 87.81 7.04 88.18 7.06 87.21 7.04 86.23 7 86.6 6.21 87.24 7 87.81"/></g></g></g></svg>