<svg width="300" height="100" viewBox="0 0 300 100" fill="none" xmlns="http://www.w3.org/2000/svg">
<rect x="300" width="100" height="300" transform="rotate(90 300 0)" fill="#333132"/>
<path d="M25 51H0V75H25V51Z" fill="white"/>
<path d="M50 75H25V100H50V75Z" fill="white"/>
<path d="M76 51H50V75H76V51Z" fill="white"/>
<path d="M101 75H76V100H101V75Z" fill="white"/>
<path d="M124 51H99V75H124V51Z" fill="white"/>
<path d="M149 75H124V100H149V75Z" fill="white"/>
<path d="M176 51H149V75H176V51Z" fill="white"/>
<path d="M201 75H176V100H201V75Z" fill="white"/>
<path d="M227 51H201V75H227V51Z" fill="white"/>
<path d="M252 75H227V100H252V75Z" fill="white"/>
<path d="M277 51H252V75H277V51Z" fill="white"/>
<path d="M300 75H277V100H300V75Z" fill="white"/>
<path d="M25 0H0V25H25V0Z" fill="white"/>
<path d="M50 25H25V51H50V25Z" fill="white"/>
<path d="M76 0H50V25H76V0Z" fill="white"/>
<path d="M101 25H76V51H101V25Z" fill="white"/>
<path d="M124 0H99V25H124V0Z" fill="white"/>
<path d="M149 25H124V51H149V25Z" fill="white"/>
<path d="M176 0H149V25H176V0Z" fill="white"/>
<path d="M201 25H176V51H201V25Z" fill="white"/>
<path d="M227 0H201V25H227V0Z" fill="white"/>
<path d="M252 25H227V51H252V25Z" fill="white"/>
<path d="M277 0H252V25H277V0Z" fill="white"/>
<path d="M300 25H277V51H300V25Z" fill="white"/>
<mask id="path-26-outside-1" maskUnits="userSpaceOnUse" x="86.3098" y="34.44" width="129" height="32" fill="black">
<rect fill="white" x="86.3098" y="34.44" width="129" height="32"/>
<path d="M90.0504 63C89.7864 63 89.5824 62.916 89.4384 62.748C89.3184 62.556 89.2824 62.34 89.3304 62.1L94.2984 38.7C94.3464 38.436 94.4784 38.22 94.6944 38.052C94.9104 37.884 95.1384 37.8 95.3784 37.8H111.938C112.202 37.8 112.406 37.884 112.55 38.052C112.646 38.172 112.694 38.316 112.694 38.484C112.694 38.556 112.682 38.628 112.658 38.7L111.902 42.336C111.854 42.6 111.722 42.816 111.506 42.984C111.29 43.152 111.062 43.236 110.822 43.236H99.6984L98.5824 48.528H108.95C109.214 48.528 109.418 48.612 109.562 48.78C109.658 48.924 109.706 49.08 109.706 49.248C109.706 49.32 109.694 49.392 109.67 49.464L108.914 53.064C108.866 53.304 108.734 53.52 108.518 53.712C108.302 53.88 108.062 53.964 107.798 53.964H97.4304L95.6664 62.1C95.6184 62.364 95.4864 62.58 95.2704 62.748C95.0784 62.916 94.8504 63 94.5864 63H90.0504Z"/>
<path d="M112.339 63C112.075 63 111.871 62.916 111.727 62.748C111.583 62.556 111.535 62.34 111.583 62.1L116.587 38.7C116.635 38.436 116.767 38.22 116.983 38.052C117.199 37.884 117.427 37.8 117.667 37.8H122.527C122.791 37.8 122.995 37.884 123.139 38.052C123.235 38.196 123.283 38.34 123.283 38.484C123.283 38.556 123.271 38.628 123.247 38.7L118.279 62.1C118.231 62.364 118.099 62.58 117.883 62.748C117.667 62.916 117.439 63 117.199 63H112.339Z"/>
<path d="M124.011 63C123.747 63 123.543 62.916 123.399 62.748C123.279 62.556 123.243 62.34 123.291 62.1L128.259 38.7C128.307 38.436 128.439 38.22 128.655 38.052C128.871 37.884 129.099 37.8 129.339 37.8H133.155C133.731 37.8 134.091 38.028 134.235 38.484L140.103 52.416L143.019 38.7C143.067 38.436 143.199 38.22 143.415 38.052C143.631 37.884 143.859 37.8 144.099 37.8H148.419C148.683 37.8 148.887 37.884 149.031 38.052C149.151 38.172 149.211 38.328 149.211 38.52C149.211 38.568 149.199 38.628 149.175 38.7L144.171 62.064C144.123 62.328 143.991 62.556 143.775 62.748C143.583 62.916 143.355 63 143.091 63H139.275C138.939 63 138.699 62.94 138.555 62.82C138.411 62.676 138.291 62.508 138.195 62.316L132.255 48.888L129.447 62.1C129.399 62.364 129.267 62.58 129.051 62.748C128.835 62.916 128.595 63 128.331 63H124.011Z"/>
<path d="M149.921 63C149.657 63 149.453 62.916 149.309 62.748C149.165 62.556 149.117 62.34 149.165 62.1L154.169 38.7C154.217 38.436 154.349 38.22 154.565 38.052C154.781 37.884 155.009 37.8 155.249 37.8H160.109C160.373 37.8 160.577 37.884 160.721 38.052C160.817 38.196 160.865 38.34 160.865 38.484C160.865 38.556 160.853 38.628 160.829 38.7L155.861 62.1C155.813 62.364 155.681 62.58 155.465 62.748C155.249 62.916 155.021 63 154.781 63H149.921Z"/>
<path d="M170.521 63.36C168.409 63.36 166.597 63.072 165.085 62.496C163.597 61.92 162.469 61.152 161.701 60.192C160.957 59.232 160.585 58.164 160.585 56.988C160.585 56.796 160.609 56.508 160.657 56.124C160.705 55.908 160.801 55.728 160.945 55.584C161.113 55.44 161.305 55.368 161.521 55.368H166.129C166.417 55.368 166.633 55.416 166.777 55.512C166.945 55.608 167.113 55.776 167.281 56.016C167.449 56.64 167.833 57.156 168.433 57.564C169.057 57.972 169.909 58.176 170.989 58.176C172.357 58.176 173.461 57.96 174.301 57.528C175.141 57.096 175.645 56.508 175.813 55.764C175.837 55.668 175.849 55.524 175.849 55.332C175.849 54.732 175.477 54.264 174.733 53.928C173.989 53.568 172.621 53.148 170.629 52.668C168.301 52.164 166.537 51.408 165.337 50.4C164.137 49.368 163.537 48.024 163.537 46.368C163.537 45.792 163.609 45.204 163.753 44.604C164.233 42.372 165.421 40.62 167.317 39.348C169.237 38.076 171.709 37.44 174.733 37.44C176.557 37.44 178.177 37.764 179.593 38.412C181.009 39.06 182.101 39.888 182.869 40.896C183.661 41.88 184.057 42.864 184.057 43.848C184.057 44.136 184.045 44.34 184.021 44.46C183.973 44.676 183.865 44.856 183.697 45C183.553 45.144 183.373 45.216 183.157 45.216H178.333C177.805 45.216 177.445 45.012 177.253 44.604C177.229 44.052 176.941 43.584 176.389 43.2C175.837 42.816 175.117 42.624 174.229 42.624C173.173 42.624 172.297 42.816 171.601 43.2C170.929 43.584 170.509 44.148 170.341 44.892C170.317 45.012 170.305 45.168 170.305 45.36C170.305 45.936 170.641 46.416 171.313 46.8C172.009 47.16 173.221 47.532 174.949 47.916C177.637 48.444 179.593 49.2 180.817 50.184C182.065 51.168 182.689 52.476 182.689 54.108C182.689 54.66 182.617 55.26 182.473 55.908C181.945 58.356 180.661 60.216 178.621 61.488C176.605 62.736 173.905 63.36 170.521 63.36Z"/>
<path d="M185.429 63C185.165 63 184.961 62.916 184.817 62.748C184.697 62.58 184.661 62.364 184.709 62.1L189.677 38.7C189.725 38.436 189.857 38.22 190.073 38.052C190.289 37.884 190.517 37.8 190.757 37.8H195.401C195.665 37.8 195.869 37.884 196.013 38.052C196.133 38.172 196.193 38.328 196.193 38.52C196.193 38.568 196.181 38.628 196.157 38.7L194.321 47.376H203.177L205.013 38.7C205.061 38.436 205.193 38.22 205.409 38.052C205.625 37.884 205.853 37.8 206.093 37.8H210.737C211.001 37.8 211.205 37.884 211.349 38.052C211.469 38.172 211.529 38.328 211.529 38.52C211.529 38.568 211.517 38.628 211.493 38.7L206.489 62.1C206.441 62.364 206.309 62.58 206.093 62.748C205.901 62.916 205.673 63 205.409 63H200.765C200.501 63 200.297 62.916 200.153 62.748C200.033 62.556 199.997 62.34 200.045 62.1L201.953 53.136H193.097L191.189 62.1C191.141 62.364 191.009 62.58 190.793 62.748C190.577 62.916 190.337 63 190.073 63H185.429Z"/>
</mask>
<path d="M90.0504 63C89.7864 63 89.5824 62.916 89.4384 62.748C89.3184 62.556 89.2824 62.34 89.3304 62.1L94.2984 38.7C94.3464 38.436 94.4784 38.22 94.6944 38.052C94.9104 37.884 95.1384 37.8 95.3784 37.8H111.938C112.202 37.8 112.406 37.884 112.55 38.052C112.646 38.172 112.694 38.316 112.694 38.484C112.694 38.556 112.682 38.628 112.658 38.7L111.902 42.336C111.854 42.6 111.722 42.816 111.506 42.984C111.29 43.152 111.062 43.236 110.822 43.236H99.6984L98.5824 48.528H108.95C109.214 48.528 109.418 48.612 109.562 48.78C109.658 48.924 109.706 49.08 109.706 49.248C109.706 49.32 109.694 49.392 109.67 49.464L108.914 53.064C108.866 53.304 108.734 53.52 108.518 53.712C108.302 53.88 108.062 53.964 107.798 53.964H97.4304L95.6664 62.1C95.6184 62.364 95.4864 62.58 95.2704 62.748C95.0784 62.916 94.8504 63 94.5864 63H90.0504Z" fill="#333132"/>
<path d="M112.339 63C112.075 63 111.871 62.916 111.727 62.748C111.583 62.556 111.535 62.34 111.583 62.1L116.587 38.7C116.635 38.436 116.767 38.22 116.983 38.052C117.199 37.884 117.427 37.8 117.667 37.8H122.527C122.791 37.8 122.995 37.884 123.139 38.052C123.235 38.196 123.283 38.34 123.283 38.484C123.283 38.556 123.271 38.628 123.247 38.7L118.279 62.1C118.231 62.364 118.099 62.58 117.883 62.748C117.667 62.916 117.439 63 117.199 63H112.339Z" fill="#333132"/>
<path d="M124.011 63C123.747 63 123.543 62.916 123.399 62.748C123.279 62.556 123.243 62.34 123.291 62.1L128.259 38.7C128.307 38.436 128.439 38.22 128.655 38.052C128.871 37.884 129.099 37.8 129.339 37.8H133.155C133.731 37.8 134.091 38.028 134.235 38.484L140.103 52.416L143.019 38.7C143.067 38.436 143.199 38.22 143.415 38.052C143.631 37.884 143.859 37.8 144.099 37.8H148.419C148.683 37.8 148.887 37.884 149.031 38.052C149.151 38.172 149.211 38.328 149.211 38.52C149.211 38.568 149.199 38.628 149.175 38.7L144.171 62.064C144.123 62.328 143.991 62.556 143.775 62.748C143.583 62.916 143.355 63 143.091 63H139.275C138.939 63 138.699 62.94 138.555 62.82C138.411 62.676 138.291 62.508 138.195 62.316L132.255 48.888L129.447 62.1C129.399 62.364 129.267 62.58 129.051 62.748C128.835 62.916 128.595 63 128.331 63H124.011Z" fill="#333132"/>
<path d="M149.921 63C149.657 63 149.453 62.916 149.309 62.748C149.165 62.556 149.117 62.34 149.165 62.1L154.169 38.7C154.217 38.436 154.349 38.22 154.565 38.052C154.781 37.884 155.009 37.8 155.249 37.8H160.109C160.373 37.8 160.577 37.884 160.721 38.052C160.817 38.196 160.865 38.34 160.865 38.484C160.865 38.556 160.853 38.628 160.829 38.7L155.861 62.1C155.813 62.364 155.681 62.58 155.465 62.748C155.249 62.916 155.021 63 154.781 63H149.921Z" fill="#333132"/>
<path d="M170.521 63.36C168.409 63.36 166.597 63.072 165.085 62.496C163.597 61.92 162.469 61.152 161.701 60.192C160.957 59.232 160.585 58.164 160.585 56.988C160.585 56.796 160.609 56.508 160.657 56.124C160.705 55.908 160.801 55.728 160.945 55.584C161.113 55.44 161.305 55.368 161.521 55.368H166.129C166.417 55.368 166.633 55.416 166.777 55.512C166.945 55.608 167.113 55.776 167.281 56.016C167.449 56.64 167.833 57.156 168.433 57.564C169.057 57.972 169.909 58.176 170.989 58.176C172.357 58.176 173.461 57.96 174.301 57.528C175.141 57.096 175.645 56.508 175.813 55.764C175.837 55.668 175.849 55.524 175.849 55.332C175.849 54.732 175.477 54.264 174.733 53.928C173.989 53.568 172.621 53.148 170.629 52.668C168.301 52.164 166.537 51.408 165.337 50.4C164.137 49.368 163.537 48.024 163.537 46.368C163.537 45.792 163.609 45.204 163.753 44.604C164.233 42.372 165.421 40.62 167.317 39.348C169.237 38.076 171.709 37.44 174.733 37.44C176.557 37.44 178.177 37.764 179.593 38.412C181.009 39.06 182.101 39.888 182.869 40.896C183.661 41.88 184.057 42.864 184.057 43.848C184.057 44.136 184.045 44.34 184.021 44.46C183.973 44.676 183.865 44.856 183.697 45C183.553 45.144 183.373 45.216 183.157 45.216H178.333C177.805 45.216 177.445 45.012 177.253 44.604C177.229 44.052 176.941 43.584 176.389 43.2C175.837 42.816 175.117 42.624 174.229 42.624C173.173 42.624 172.297 42.816 171.601 43.2C170.929 43.584 170.509 44.148 170.341 44.892C170.317 45.012 170.305 45.168 170.305 45.36C170.305 45.936 170.641 46.416 171.313 46.8C172.009 47.16 173.221 47.532 174.949 47.916C177.637 48.444 179.593 49.2 180.817 50.184C182.065 51.168 182.689 52.476 182.689 54.108C182.689 54.66 182.617 55.26 182.473 55.908C181.945 58.356 180.661 60.216 178.621 61.488C176.605 62.736 173.905 63.36 170.521 63.36Z" fill="#333132"/>
<path d="M185.429 63C185.165 63 184.961 62.916 184.817 62.748C184.697 62.58 184.661 62.364 184.709 62.1L189.677 38.7C189.725 38.436 189.857 38.22 190.073 38.052C190.289 37.884 190.517 37.8 190.757 37.8H195.401C195.665 37.8 195.869 37.884 196.013 38.052C196.133 38.172 196.193 38.328 196.193 38.52C196.193 38.568 196.181 38.628 196.157 38.7L194.321 47.376H203.177L205.013 38.7C205.061 38.436 205.193 38.22 205.409 38.052C205.625 37.884 205.853 37.8 206.093 37.8H210.737C211.001 37.8 211.205 37.884 211.349 38.052C211.469 38.172 211.529 38.328 211.529 38.52C211.529 38.568 211.517 38.628 211.493 38.7L206.489 62.1C206.441 62.364 206.309 62.58 206.093 62.748C205.901 62.916 205.673 63 205.409 63H200.765C200.501 63 200.297 62.916 200.153 62.748C200.033 62.556 199.997 62.34 200.045 62.1L201.953 53.136H193.097L191.189 62.1C191.141 62.364 191.009 62.58 190.793 62.748C190.577 62.916 190.337 63 190.073 63H185.429Z" fill="#333132"/>
<path d="M90.0504 63C89.7864 63 89.5824 62.916 89.4384 62.748C89.3184 62.556 89.2824 62.34 89.3304 62.1L94.2984 38.7C94.3464 38.436 94.4784 38.22 94.6944 38.052C94.9104 37.884 95.1384 37.8 95.3784 37.8H111.938C112.202 37.8 112.406 37.884 112.55 38.052C112.646 38.172 112.694 38.316 112.694 38.484C112.694 38.556 112.682 38.628 112.658 38.7L111.902 42.336C111.854 42.6 111.722 42.816 111.506 42.984C111.29 43.152 111.062 43.236 110.822 43.236H99.6984L98.5824 48.528H108.95C109.214 48.528 109.418 48.612 109.562 48.78C109.658 48.924 109.706 49.08 109.706 49.248C109.706 49.32 109.694 49.392 109.67 49.464L108.914 53.064C108.866 53.304 108.734 53.52 108.518 53.712C108.302 53.88 108.062 53.964 107.798 53.964H97.4304L95.6664 62.1C95.6184 62.364 95.4864 62.58 95.2704 62.748C95.0784 62.916 94.8504 63 94.5864 63H90.0504Z" stroke="white" stroke-width="6" mask="url(#path-26-outside-1)"/>
<path d="M112.339 63C112.075 63 111.871 62.916 111.727 62.748C111.583 62.556 111.535 62.34 111.583 62.1L116.587 38.7C116.635 38.436 116.767 38.22 116.983 38.052C117.199 37.884 117.427 37.8 117.667 37.8H122.527C122.791 37.8 122.995 37.884 123.139 38.052C123.235 38.196 123.283 38.34 123.283 38.484C123.283 38.556 123.271 38.628 123.247 38.7L118.279 62.1C118.231 62.364 118.099 62.58 117.883 62.748C117.667 62.916 117.439 63 117.199 63H112.339Z" stroke="white" stroke-width="6" mask="url(#path-26-outside-1)"/>
<path d="M124.011 63C123.747 63 123.543 62.916 123.399 62.748C123.279 62.556 123.243 62.34 123.291 62.1L128.259 38.7C128.307 38.436 128.439 38.22 128.655 38.052C128.871 37.884 129.099 37.8 129.339 37.8H133.155C133.731 37.8 134.091 38.028 134.235 38.484L140.103 52.416L143.019 38.7C143.067 38.436 143.199 38.22 143.415 38.052C143.631 37.884 143.859 37.8 144.099 37.8H148.419C148.683 37.8 148.887 37.884 149.031 38.052C149.151 38.172 149.211 38.328 149.211 38.52C149.211 38.568 149.199 38.628 149.175 38.7L144.171 62.064C144.123 62.328 143.991 62.556 143.775 62.748C143.583 62.916 143.355 63 143.091 63H139.275C138.939 63 138.699 62.94 138.555 62.82C138.411 62.676 138.291 62.508 138.195 62.316L132.255 48.888L129.447 62.1C129.399 62.364 129.267 62.58 129.051 62.748C128.835 62.916 128.595 63 128.331 63H124.011Z" stroke="white" stroke-width="6" mask="url(#path-26-outside-1)"/>
<path d="M149.921 63C149.657 63 149.453 62.916 149.309 62.748C149.165 62.556 149.117 62.34 149.165 62.1L154.169 38.7C154.217 38.436 154.349 38.22 154.565 38.052C154.781 37.884 155.009 37.8 155.249 37.8H160.109C160.373 37.8 160.577 37.884 160.721 38.052C160.817 38.196 160.865 38.34 160.865 38.484C160.865 38.556 160.853 38.628 160.829 38.7L155.861 62.1C155.813 62.364 155.681 62.58 155.465 62.748C155.249 62.916 155.021 63 154.781 63H149.921Z" stroke="white" stroke-width="6" mask="url(#path-26-outside-1)"/>
<path d="M170.521 63.36C168.409 63.36 166.597 63.072 165.085 62.496C163.597 61.92 162.469 61.152 161.701 60.192C160.957 59.232 160.585 58.164 160.585 56.988C160.585 56.796 160.609 56.508 160.657 56.124C160.705 55.908 160.801 55.728 160.945 55.584C161.113 55.44 161.305 55.368 161.521 55.368H166.129C166.417 55.368 166.633 55.416 166.777 55.512C166.945 55.608 167.113 55.776 167.281 56.016C167.449 56.64 167.833 57.156 168.433 57.564C169.057 57.972 169.909 58.176 170.989 58.176C172.357 58.176 173.461 57.96 174.301 57.528C175.141 57.096 175.645 56.508 175.813 55.764C175.837 55.668 175.849 55.524 175.849 55.332C175.849 54.732 175.477 54.264 174.733 53.928C173.989 53.568 172.621 53.148 170.629 52.668C168.301 52.164 166.537 51.408 165.337 50.4C164.137 49.368 163.537 48.024 163.537 46.368C163.537 45.792 163.609 45.204 163.753 44.604C164.233 42.372 165.421 40.62 167.317 39.348C169.237 38.076 171.709 37.44 174.733 37.44C176.557 37.44 178.177 37.764 179.593 38.412C181.009 39.06 182.101 39.888 182.869 40.896C183.661 41.88 184.057 42.864 184.057 43.848C184.057 44.136 184.045 44.34 184.021 44.46C183.973 44.676 183.865 44.856 183.697 45C183.553 45.144 183.373 45.216 183.157 45.216H178.333C177.805 45.216 177.445 45.012 177.253 44.604C177.229 44.052 176.941 43.584 176.389 43.2C175.837 42.816 175.117 42.624 174.229 42.624C173.173 42.624 172.297 42.816 171.601 43.2C170.929 43.584 170.509 44.148 170.341 44.892C170.317 45.012 170.305 45.168 170.305 45.36C170.305 45.936 170.641 46.416 171.313 46.8C172.009 47.16 173.221 47.532 174.949 47.916C177.637 48.444 179.593 49.2 180.817 50.184C182.065 51.168 182.689 52.476 182.689 54.108C182.689 54.66 182.617 55.26 182.473 55.908C181.945 58.356 180.661 60.216 178.621 61.488C176.605 62.736 173.905 63.36 170.521 63.36Z" stroke="white" stroke-width="6" mask="url(#path-26-outside-1)"/>
<path d="M185.429 63C185.165 63 184.961 62.916 184.817 62.748C184.697 62.58 184.661 62.364 184.709 62.1L189.677 38.7C189.725 38.436 189.857 38.22 190.073 38.052C190.289 37.884 190.517 37.8 190.757 37.8H195.401C195.665 37.8 195.869 37.884 196.013 38.052C196.133 38.172 196.193 38.328 196.193 38.52C196.193 38.568 196.181 38.628 196.157 38.7L194.321 47.376H203.177L205.013 38.7C205.061 38.436 205.193 38.22 205.409 38.052C205.625 37.884 205.853 37.8 206.093 37.8H210.737C211.001 37.8 211.205 37.884 211.349 38.052C211.469 38.172 211.529 38.328 211.529 38.52C211.529 38.568 211.517 38.628 211.493 38.7L206.489 62.1C206.441 62.364 206.309 62.58 206.093 62.748C205.901 62.916 205.673 63 205.409 63H200.765C200.501 63 200.297 62.916 200.153 62.748C200.033 62.556 199.997 62.34 200.045 62.1L201.953 53.136H193.097L191.189 62.1C191.141 62.364 191.009 62.58 190.793 62.748C190.577 62.916 190.337 63 190.073 63H185.429Z" stroke="white" stroke-width="6" mask="url(#path-26-outside-1)"/>
</svg>
