<svg width="140" height="59" viewBox="0 0 140 59" fill="none" xmlns="http://www.w3.org/2000/svg">
<g filter="url(#filter0_d)">
<path d="M29.7949 7H126L112.359 38H14L29.7949 7Z" fill="#69D970"/>
</g>
<path d="M37.2503 28.186C37.1183 28.186 37.0163 28.144 36.9443 28.06C36.8723 27.976 36.8483 27.868 36.8723 27.736L37.5743 24.442H34.3703C34.2383 24.442 34.1363 24.4 34.0643 24.316C34.0043 24.232 33.9863 24.124 34.0103 23.992L34.2803 22.678C34.3163 22.546 34.3883 22.438 34.4963 22.354C34.6043 22.258 34.7183 22.21 34.8383 22.21H38.0423L38.7263 19.024C38.7503 18.892 38.8163 18.784 38.9243 18.7C39.0323 18.616 39.1523 18.574 39.2843 18.574H40.7423C40.8743 18.574 40.9763 18.616 41.0483 18.7C41.0963 18.76 41.1203 18.832 41.1203 18.916C41.1203 18.952 41.1143 18.988 41.1023 19.024L40.4183 22.21H43.6223C43.7543 22.21 43.8563 22.252 43.9283 22.336C43.9643 22.396 43.9823 22.462 43.9823 22.534C43.9823 22.582 43.9763 22.63 43.9643 22.678L43.6943 23.992C43.6703 24.124 43.6043 24.232 43.4963 24.316C43.3883 24.4 43.2683 24.442 43.1363 24.442H39.9503L39.2483 27.736C39.2243 27.868 39.1583 27.976 39.0503 28.06C38.9543 28.144 38.8403 28.186 38.7083 28.186H37.2503Z" fill="white"/>
<path d="M49.428 28.96C48.372 28.96 47.466 28.816 46.71 28.528C45.966 28.24 45.402 27.856 45.018 27.376C44.646 26.896 44.46 26.362 44.46 25.774C44.46 25.678 44.472 25.534 44.496 25.342C44.52 25.234 44.568 25.144 44.64 25.072C44.724 25 44.82 24.964 44.928 24.964H47.232C47.376 24.964 47.484 24.988 47.556 25.036C47.64 25.084 47.724 25.168 47.808 25.288C47.892 25.6 48.084 25.858 48.384 26.062C48.696 26.266 49.122 26.368 49.662 26.368C50.346 26.368 50.898 26.26 51.318 26.044C51.738 25.828 51.99 25.534 52.074 25.162C52.086 25.114 52.092 25.042 52.092 24.946C52.092 24.646 51.906 24.412 51.534 24.244C51.162 24.064 50.478 23.854 49.482 23.614C48.318 23.362 47.436 22.984 46.836 22.48C46.236 21.964 45.936 21.292 45.936 20.464C45.936 20.176 45.972 19.882 46.044 19.582C46.284 18.466 46.878 17.59 47.826 16.954C48.786 16.318 50.022 16 51.534 16C52.446 16 53.256 16.162 53.964 16.486C54.672 16.81 55.218 17.224 55.602 17.728C55.998 18.22 56.196 18.712 56.196 19.204C56.196 19.348 56.19 19.45 56.178 19.51C56.154 19.618 56.1 19.708 56.016 19.78C55.944 19.852 55.854 19.888 55.746 19.888H53.334C53.07 19.888 52.89 19.786 52.794 19.582C52.782 19.306 52.638 19.072 52.362 18.88C52.086 18.688 51.726 18.592 51.282 18.592C50.754 18.592 50.316 18.688 49.968 18.88C49.632 19.072 49.422 19.354 49.338 19.726C49.326 19.786 49.32 19.864 49.32 19.96C49.32 20.248 49.488 20.488 49.824 20.68C50.172 20.86 50.778 21.046 51.642 21.238C52.986 21.502 53.964 21.88 54.576 22.372C55.2 22.864 55.512 23.518 55.512 24.334C55.512 24.61 55.476 24.91 55.404 25.234C55.14 26.458 54.498 27.388 53.478 28.024C52.47 28.648 51.12 28.96 49.428 28.96Z" fill="white"/>
<path d="M56.882 28.78C56.75 28.78 56.648 28.738 56.576 28.654C56.516 28.558 56.498 28.45 56.522 28.33L59.006 16.63C59.03 16.498 59.096 16.39 59.204 16.306C59.312 16.222 59.426 16.18 59.546 16.18H64.334C65.666 16.18 66.734 16.456 67.538 17.008C68.354 17.56 68.762 18.358 68.762 19.402C68.762 19.702 68.726 20.014 68.654 20.338C68.354 21.718 67.748 22.738 66.836 23.398C65.936 24.058 64.7 24.388 63.128 24.388H60.698L59.87 28.33C59.846 28.462 59.78 28.57 59.672 28.654C59.564 28.738 59.45 28.78 59.33 28.78H56.882ZM63.254 21.904C63.758 21.904 64.196 21.766 64.568 21.49C64.952 21.214 65.204 20.818 65.324 20.302C65.36 20.098 65.378 19.918 65.378 19.762C65.378 19.414 65.276 19.15 65.072 18.97C64.868 18.778 64.52 18.682 64.028 18.682H61.868L61.184 21.904H63.254Z" fill="white"/>
<path d="M69.0636 28.78C68.9316 28.78 68.8296 28.738 68.7576 28.654C68.6976 28.558 68.6796 28.45 68.7036 28.33L71.1876 16.63C71.2116 16.498 71.2776 16.39 71.3856 16.306C71.4936 16.222 71.6076 16.18 71.7276 16.18H80.1336C80.2656 16.18 80.3676 16.222 80.4396 16.306C80.4996 16.366 80.5296 16.444 80.5296 16.54C80.5296 16.564 80.5236 16.594 80.5116 16.63L80.1516 18.322C80.1156 18.454 80.0436 18.562 79.9356 18.646C79.8396 18.73 79.7256 18.772 79.5936 18.772H73.8696L73.3296 21.202H78.6756C78.8076 21.202 78.9096 21.244 78.9816 21.328C79.0296 21.4 79.0536 21.478 79.0536 21.562C79.0536 21.598 79.0476 21.634 79.0356 21.67L78.6936 23.236C78.6696 23.368 78.6036 23.476 78.4956 23.56C78.3876 23.644 78.2736 23.686 78.1536 23.686H72.8076L72.2856 26.188H78.1536C78.2856 26.188 78.3876 26.23 78.4596 26.314C78.5076 26.374 78.5316 26.446 78.5316 26.53C78.5316 26.566 78.5256 26.602 78.5136 26.638L78.1536 28.33C78.1296 28.462 78.0636 28.57 77.9556 28.654C77.8596 28.738 77.7456 28.78 77.6136 28.78H69.0636Z" fill="white"/>
<path d="M80.5421 28.78C80.4101 28.78 80.3081 28.738 80.2361 28.654C80.1761 28.558 80.1581 28.45 80.1821 28.33L82.6661 16.63C82.6901 16.498 82.7561 16.39 82.8641 16.306C82.9721 16.222 83.0861 16.18 83.2061 16.18H91.6121C91.7441 16.18 91.8461 16.222 91.9181 16.306C91.9781 16.366 92.0081 16.444 92.0081 16.54C92.0081 16.564 92.0021 16.594 91.9901 16.63L91.6301 18.322C91.5941 18.454 91.5221 18.562 91.4141 18.646C91.3181 18.73 91.2041 18.772 91.0721 18.772H85.3481L84.8081 21.202H90.1541C90.2861 21.202 90.3881 21.244 90.4601 21.328C90.5081 21.4 90.5321 21.478 90.5321 21.562C90.5321 21.598 90.5261 21.634 90.5141 21.67L90.1721 23.236C90.1481 23.368 90.0821 23.476 89.9741 23.56C89.8661 23.644 89.7521 23.686 89.6321 23.686H84.2861L83.7641 26.188H89.6321C89.7641 26.188 89.8661 26.23 89.9381 26.314C89.9861 26.374 90.0101 26.446 90.0101 26.53C90.0101 26.566 90.0041 26.602 89.9921 26.638L89.6321 28.33C89.6081 28.462 89.5421 28.57 89.4341 28.654C89.3381 28.738 89.2241 28.78 89.0921 28.78H80.5421Z" fill="white"/>
<path d="M92.0206 28.78C91.8886 28.78 91.7866 28.738 91.7146 28.654C91.6546 28.558 91.6366 28.45 91.6606 28.33L94.1446 16.63C94.1686 16.498 94.2346 16.39 94.3426 16.306C94.4506 16.222 94.5646 16.18 94.6846 16.18H99.0766C100.013 16.18 100.853 16.336 101.597 16.648C102.353 16.948 102.947 17.398 103.379 17.998C103.823 18.598 104.045 19.312 104.045 20.14C104.045 20.416 104.015 20.734 103.955 21.094C103.787 22.066 103.595 22.984 103.379 23.848C102.959 25.564 102.263 26.818 101.291 27.61C100.319 28.39 98.9146 28.78 97.0786 28.78H92.0206ZM97.2406 26.188C98.0326 26.188 98.6566 26.002 99.1126 25.63C99.5686 25.246 99.8986 24.64 100.103 23.812C100.355 22.744 100.547 21.85 100.679 21.13C100.727 20.794 100.751 20.566 100.751 20.446C100.751 19.87 100.583 19.45 100.247 19.186C99.9106 18.91 99.4066 18.772 98.7346 18.772H96.9346L95.3506 26.188H97.2406Z" fill="white"/>
<defs>
<filter id="filter0_d" x="0" y="0" width="140" height="59" filterUnits="userSpaceOnUse" color-interpolation-filters="sRGB">
<feFlood flood-opacity="0" result="BackgroundImageFix"/>
<feColorMatrix in="SourceAlpha" type="matrix" values="0 0 0 0 0 0 0 0 0 0 0 0 0 0 0 0 0 0 127 0"/>
<feOffset dy="7"/>
<feGaussianBlur stdDeviation="7"/>
<feColorMatrix type="matrix" values="0 0 0 0 0.411765 0 0 0 0 0.85098 0 0 0 0 0.439216 0 0 0 0.4 0"/>
<feBlend mode="normal" in2="BackgroundImageFix" result="effect1_dropShadow"/>
<feBlend mode="normal" in="SourceGraphic" in2="effect1_dropShadow" result="shape"/>
</filter>
</defs>
</svg>
