<svg width="132" height="59" viewBox="0 0 132 59" fill="none" xmlns="http://www.w3.org/2000/svg">
<g filter="url(#filter0_d)">
<path d="M28.6667 7H118L105.333 38H14L28.6667 7Z" fill="#FF4B4B"/>
</g>
<path d="M29.1879 24.896C29.0559 24.896 28.9539 24.854 28.8819 24.77C28.8219 24.686 28.8039 24.578 28.8279 24.446L29.1879 22.754C29.2239 22.622 29.2899 22.514 29.3859 22.43C29.4939 22.346 29.6079 22.304 29.7279 22.304H35.3799C35.5119 22.304 35.6139 22.346 35.6859 22.43C35.7339 22.49 35.7579 22.562 35.7579 22.646C35.7579 22.682 35.7519 22.718 35.7399 22.754L35.3799 24.446C35.3559 24.578 35.2899 24.686 35.1819 24.77C35.0739 24.854 34.9539 24.896 34.8219 24.896H29.1879Z" fill="white"/>
<path d="M45.5028 29.18C44.4468 29.18 43.5408 29.036 42.7848 28.748C42.0408 28.46 41.4768 28.076 41.0928 27.596C40.7208 27.116 40.5348 26.582 40.5348 25.994C40.5348 25.898 40.5468 25.754 40.5708 25.562C40.5948 25.454 40.6428 25.364 40.7148 25.292C40.7988 25.22 40.8948 25.184 41.0028 25.184H43.3068C43.4508 25.184 43.5588 25.208 43.6308 25.256C43.7148 25.304 43.7988 25.388 43.8828 25.508C43.9668 25.82 44.1588 26.078 44.4588 26.282C44.7708 26.486 45.1968 26.588 45.7368 26.588C46.4208 26.588 46.9728 26.48 47.3928 26.264C47.8128 26.048 48.0648 25.754 48.1488 25.382C48.1608 25.334 48.1668 25.262 48.1668 25.166C48.1668 24.866 47.9808 24.632 47.6088 24.464C47.2368 24.284 46.5528 24.074 45.5568 23.834C44.3928 23.582 43.5108 23.204 42.9108 22.7C42.3108 22.184 42.0108 21.512 42.0108 20.684C42.0108 20.396 42.0468 20.102 42.1188 19.802C42.3588 18.686 42.9528 17.81 43.9008 17.174C44.8608 16.538 46.0968 16.22 47.6088 16.22C48.5208 16.22 49.3308 16.382 50.0388 16.706C50.7468 17.03 51.2928 17.444 51.6768 17.948C52.0728 18.44 52.2708 18.932 52.2708 19.424C52.2708 19.568 52.2648 19.67 52.2528 19.73C52.2288 19.838 52.1748 19.928 52.0908 20C52.0188 20.072 51.9288 20.108 51.8208 20.108H49.4088C49.1448 20.108 48.9648 20.006 48.8688 19.802C48.8568 19.526 48.7128 19.292 48.4368 19.1C48.1608 18.908 47.8008 18.812 47.3568 18.812C46.8288 18.812 46.3908 18.908 46.0428 19.1C45.7068 19.292 45.4968 19.574 45.4128 19.946C45.4008 20.006 45.3948 20.084 45.3948 20.18C45.3948 20.468 45.5628 20.708 45.8988 20.9C46.2468 21.08 46.8528 21.266 47.7168 21.458C49.0608 21.722 50.0388 22.1 50.6508 22.592C51.2748 23.084 51.5868 23.738 51.5868 24.554C51.5868 24.83 51.5508 25.13 51.4788 25.454C51.2148 26.678 50.5728 27.608 49.5528 28.244C48.5448 28.868 47.1948 29.18 45.5028 29.18Z" fill="white"/>
<path d="M52.9568 29C52.8248 29 52.7228 28.958 52.6508 28.874C52.5908 28.778 52.5728 28.67 52.5968 28.55L55.0808 16.85C55.1048 16.718 55.1708 16.61 55.2788 16.526C55.3868 16.442 55.5008 16.4 55.6208 16.4H60.4088C61.7408 16.4 62.8088 16.676 63.6128 17.228C64.4288 17.78 64.8368 18.578 64.8368 19.622C64.8368 19.922 64.8008 20.234 64.7288 20.558C64.4288 21.938 63.8228 22.958 62.9108 23.618C62.0108 24.278 60.7748 24.608 59.2028 24.608H56.7728L55.9448 28.55C55.9208 28.682 55.8548 28.79 55.7468 28.874C55.6388 28.958 55.5248 29 55.4048 29H52.9568ZM59.3288 22.124C59.8328 22.124 60.2708 21.986 60.6428 21.71C61.0268 21.434 61.2788 21.038 61.3988 20.522C61.4348 20.318 61.4528 20.138 61.4528 19.982C61.4528 19.634 61.3508 19.37 61.1468 19.19C60.9428 18.998 60.5948 18.902 60.1028 18.902H57.9428L57.2588 22.124H59.3288Z" fill="white"/>
<path d="M65.1384 29C65.0064 29 64.9044 28.958 64.8324 28.874C64.7724 28.778 64.7544 28.67 64.7784 28.55L67.2624 16.85C67.2864 16.718 67.3524 16.61 67.4604 16.526C67.5684 16.442 67.6824 16.4 67.8024 16.4H76.2084C76.3404 16.4 76.4424 16.442 76.5144 16.526C76.5744 16.586 76.6044 16.664 76.6044 16.76C76.6044 16.784 76.5984 16.814 76.5864 16.85L76.2264 18.542C76.1904 18.674 76.1184 18.782 76.0104 18.866C75.9144 18.95 75.8004 18.992 75.6684 18.992H69.9444L69.4044 21.422H74.7504C74.8824 21.422 74.9844 21.464 75.0564 21.548C75.1044 21.62 75.1284 21.698 75.1284 21.782C75.1284 21.818 75.1224 21.854 75.1104 21.89L74.7684 23.456C74.7444 23.588 74.6784 23.696 74.5704 23.78C74.4624 23.864 74.3484 23.906 74.2284 23.906H68.8824L68.3604 26.408H74.2284C74.3604 26.408 74.4624 26.45 74.5344 26.534C74.5824 26.594 74.6064 26.666 74.6064 26.75C74.6064 26.786 74.6004 26.822 74.5884 26.858L74.2284 28.55C74.2044 28.682 74.1384 28.79 74.0304 28.874C73.9344 28.958 73.8204 29 73.6884 29H65.1384Z" fill="white"/>
<path d="M76.6169 29C76.4849 29 76.3829 28.958 76.3109 28.874C76.2509 28.778 76.2329 28.67 76.2569 28.55L78.7409 16.85C78.7649 16.718 78.8309 16.61 78.9389 16.526C79.0469 16.442 79.1609 16.4 79.2809 16.4H87.6869C87.8189 16.4 87.9209 16.442 87.9929 16.526C88.0529 16.586 88.0829 16.664 88.0829 16.76C88.0829 16.784 88.0769 16.814 88.0649 16.85L87.7049 18.542C87.6689 18.674 87.5969 18.782 87.4889 18.866C87.3929 18.95 87.2789 18.992 87.1469 18.992H81.4229L80.8829 21.422H86.2289C86.3609 21.422 86.4629 21.464 86.5349 21.548C86.5829 21.62 86.6069 21.698 86.6069 21.782C86.6069 21.818 86.6009 21.854 86.5889 21.89L86.2469 23.456C86.2229 23.588 86.1569 23.696 86.0489 23.78C85.9409 23.864 85.8269 23.906 85.7069 23.906H80.3609L79.8389 26.408H85.7069C85.8389 26.408 85.9409 26.45 86.0129 26.534C86.0609 26.594 86.0849 26.666 86.0849 26.75C86.0849 26.786 86.0789 26.822 86.0669 26.858L85.7069 28.55C85.6829 28.682 85.6169 28.79 85.5089 28.874C85.4129 28.958 85.2989 29 85.1669 29H76.6169Z" fill="white"/>
<path d="M88.0954 29C87.9634 29 87.8614 28.958 87.7894 28.874C87.7294 28.778 87.7114 28.67 87.7354 28.55L90.2194 16.85C90.2434 16.718 90.3094 16.61 90.4174 16.526C90.5254 16.442 90.6394 16.4 90.7594 16.4H95.1515C96.0875 16.4 96.9274 16.556 97.6714 16.868C98.4274 17.168 99.0214 17.618 99.4534 18.218C99.8974 18.818 100.119 19.532 100.119 20.36C100.119 20.636 100.089 20.954 100.029 21.314C99.8614 22.286 99.6694 23.204 99.4534 24.068C99.0334 25.784 98.3374 27.038 97.3654 27.83C96.3934 28.61 94.9894 29 93.1535 29H88.0954ZM93.3154 26.408C94.1074 26.408 94.7314 26.222 95.1874 25.85C95.6434 25.466 95.9734 24.86 96.1774 24.032C96.4294 22.964 96.6214 22.07 96.7534 21.35C96.8014 21.014 96.8254 20.786 96.8254 20.666C96.8254 20.09 96.6574 19.67 96.3214 19.406C95.9854 19.13 95.4814 18.992 94.8094 18.992H93.0094L91.4254 26.408H93.3154Z" fill="white"/>
<defs>
<filter id="filter0_d" x="0" y="0" width="132" height="59" filterUnits="userSpaceOnUse" color-interpolation-filters="sRGB">
<feFlood flood-opacity="0" result="BackgroundImageFix"/>
<feColorMatrix in="SourceAlpha" type="matrix" values="0 0 0 0 0 0 0 0 0 0 0 0 0 0 0 0 0 0 127 0"/>
<feOffset dy="7"/>
<feGaussianBlur stdDeviation="7"/>
<feColorMatrix type="matrix" values="0 0 0 0 1 0 0 0 0 0.292576 0 0 0 0 0.292576 0 0 0 0.4 0"/>
<feBlend mode="normal" in2="BackgroundImageFix" result="effect1_dropShadow"/>
<feBlend mode="normal" in="SourceGraphic" in2="effect1_dropShadow" result="shape"/>
</filter>
</defs>
</svg>
