<svg xmlns="http://www.w3.org/2000/svg" xmlns:xlink="http://www.w3.org/1999/xlink" viewBox="0 0 58.71 125.81"><defs><style>.cls-1{isolation:isolate;}.cls-2{fill:#f7941e;}.cls-3{fill:url(#linear-gradient);}.cls-4{fill:url(#radial-gradient);}.cls-5{fill:url(#radial-gradient-2);}.cls-6{fill:url(#radial-gradient-3);}.cls-7{fill:url(#radial-gradient-4);}.cls-8{fill:#6c0815;}.cls-9{fill:#900a1c;}.cls-10{fill:url(#radial-gradient-5);}.cls-11{fill:url(#linear-gradient-2);}.cls-12{fill:url(#linear-gradient-3);}.cls-13{fill:url(#linear-gradient-4);}.cls-14{fill:url(#linear-gradient-5);}.cls-15{fill:url(#linear-gradient-6);}.cls-16{fill:url(#radial-gradient-6);}.cls-17{fill:url(#radial-gradient-7);}.cls-18{fill:#b7001f;}.cls-19{mix-blend-mode:screen;fill:url(#linear-gradient-7);}.cls-20{fill:url(#linear-gradient-8);}.cls-21{fill:url(#linear-gradient-9);}.cls-22{fill:url(#linear-gradient-10);}.cls-23{fill:url(#linear-gradient-11);}.cls-24{fill:url(#radial-gradient-8);}.cls-25{fill:url(#linear-gradient-12);}.cls-26{fill:url(#linear-gradient-13);}.cls-27{fill:url(#radial-gradient-9);}.cls-28{fill:url(#linear-gradient-14);}.cls-29{fill:#595959;}.cls-30{fill:#aa0025;}.cls-31{fill:url(#linear-gradient-15);}.cls-32{fill:#550610;}</style><linearGradient id="linear-gradient" x1="17.75" y1="3.62" x2="40.98" y2="3.62" gradientUnits="userSpaceOnUse"><stop offset="0" stop-color="#525956"/><stop offset="1" stop-color="#2c2e2e"/></linearGradient><radialGradient id="radial-gradient" cx="29.36" cy="107.71" r="36.64" gradientUnits="userSpaceOnUse"><stop offset="0" stop-color="#ef1734"/><stop offset="1" stop-color="#a80c21"/></radialGradient><radialGradient id="radial-gradient-2" cx="29.3" cy="95.01" r="30.22" gradientTransform="translate(0 5.39) scale(1 1.04)" gradientUnits="userSpaceOnUse"><stop offset="0" stop-color="#ef1f3b"/><stop offset="1" stop-color="#d20f29"/></radialGradient><radialGradient id="radial-gradient-3" cx="29.35" cy="97.12" r="23.24" gradientUnits="userSpaceOnUse"><stop offset="0" stop-color="#bd0d25"/><stop offset="0.56" stop-color="#bb0d25"/><stop offset="0.82" stop-color="#b30d23"/><stop offset="1" stop-color="#a80c21"/></radialGradient><radialGradient id="radial-gradient-4" cx="29.35" cy="101.12" r="25.41" xlink:href="#radial-gradient-3"/><radialGradient id="radial-gradient-5" cx="29.34" cy="101.12" r="25.42" xlink:href="#radial-gradient-3"/><linearGradient id="linear-gradient-2" x1="11.24" y1="49.1" x2="47.48" y2="49.1" gradientUnits="userSpaceOnUse"><stop offset="0"/><stop offset="1" stop-color="#1b1c1c"/></linearGradient><linearGradient id="linear-gradient-3" x1="8.38" y1="30.93" x2="50.35" y2="30.93" xlink:href="#linear-gradient-2"/><linearGradient id="linear-gradient-4" x1="8.56" y1="39.53" x2="50.16" y2="39.53" gradientUnits="userSpaceOnUse"><stop offset="0" stop-color="#363b39"/><stop offset="1" stop-color="#0c0d0d"/></linearGradient><linearGradient id="linear-gradient-5" x1="6.96" y1="50.94" x2="11.05" y2="50.94" gradientUnits="userSpaceOnUse"><stop offset="0" stop-color="#363b39"/><stop offset="1"/></linearGradient><linearGradient id="linear-gradient-6" x1="47.67" y1="50.94" x2="51.77" y2="50.94" xlink:href="#linear-gradient-5"/><radialGradient id="radial-gradient-6" cx="12.26" cy="-0.05" r="3.99" gradientTransform="translate(0 5.4) scale(1 1.05)" gradientUnits="userSpaceOnUse"><stop offset="0" stop-color="#fff"/><stop offset="1" stop-color="#d2d6d5"/></radialGradient><radialGradient id="radial-gradient-7" cx="46.46" cy="-0.05" r="3.99" xlink:href="#radial-gradient-6"/><linearGradient id="linear-gradient-7" x1="29.28" y1="35.37" x2="40.93" y2="43.65" xlink:href="#linear-gradient-5"/><linearGradient id="linear-gradient-8" x1="21.39" y1="47.14" x2="67.09" y2="122.15" gradientUnits="userSpaceOnUse"><stop offset="0" stop-color="#ff1f3d"/><stop offset="1" stop-color="#e8203b"/></linearGradient><linearGradient id="linear-gradient-9" x1="2.55" y1="-5.57" x2="13.58" y2="26.18" xlink:href="#linear-gradient-8"/><linearGradient id="linear-gradient-10" x1="-1078.44" y1="-5.57" x2="-1067.41" y2="26.18" gradientTransform="matrix(-1, 0, 0, 1, -1022.22, 0)" xlink:href="#linear-gradient-8"/><linearGradient id="linear-gradient-11" x1="51.03" y1="35.57" x2="55.5" y2="44.23" gradientUnits="userSpaceOnUse"><stop offset="0" stop-color="#363b39"/><stop offset="1" stop-color="#1b1c1c"/></linearGradient><radialGradient id="radial-gradient-8" cx="55.77" cy="38.17" r="2.31" gradientTransform="matrix(1, 0, 0, 1, 0, 0)" xlink:href="#radial-gradient-2"/><linearGradient id="linear-gradient-12" x1="52.79" y1="38.92" x2="58.71" y2="38.92" xlink:href="#linear-gradient-11"/><linearGradient id="linear-gradient-13" x1="6.15" y1="36.33" x2="10.06" y2="44.9" xlink:href="#linear-gradient-11"/><radialGradient id="radial-gradient-9" cx="2.94" cy="38.09" r="2.33" gradientTransform="matrix(1, 0, 0, 1, 0, 0)" xlink:href="#radial-gradient-2"/><linearGradient id="linear-gradient-14" x1="0" y1="38.84" x2="5.92" y2="38.84" xlink:href="#linear-gradient-11"/><linearGradient id="linear-gradient-15" x1="24.75" y1="63.56" x2="49.78" y2="104.66" xlink:href="#linear-gradient-11"/></defs><title>Car 2</title><g class="cls-1"><g id="Слой_2" data-name="Слой 2"><g id="Layer_1" data-name="Layer 1"><rect class="cls-2" x="8.72" y="123.78" width="2.46" height="2.04" rx="0.38" ry="0.38"/><rect class="cls-2" x="47.52" y="123.78" width="2.46" height="2.04" rx="0.38" ry="0.38"/><path class="cls-3" d="M41,7.24V1.65a41.71,41.71,0,0,0-23.23,0V7.24Z"/><path class="cls-4" d="M54.27,15.87c-.59-5.08-1.53-5-3.2-7.16A2.59,2.59,0,0,1,49,8.27L43,3.85a2.82,2.82,0,0,1-1.12-1.92L41,1.65V7.24H17.75V1.65l-.88.28a2.85,2.85,0,0,1-1.11,1.92l-6,4.42a2.57,2.57,0,0,1-2.06.44C6,10.82,5.05,10.79,4.46,15.87c-1.56,13.47.32,37.28.25,42.49,0,3.45-2.3,63.21-.12,65.42,2.69,2.71,46.86,2.71,49.54,0,2.19-2.21-.07-62-.12-65.42C54,53.15,55.83,29.34,54.27,15.87Z"/><path class="cls-5" d="M6.19,57.56c-.05,3.69-2.44,63.54-.12,65.88,2.79,2.82,44.72,2.34,46.59,0,2.05-2.57-.08-62.19-.12-65.88-.06-5,1.65-28,.19-40.9-1-8.42-2.89-7.16-7.64-11.11-6.44-5.37-25-5.37-31.46,0C8.88,9.5,7,8.24,6,16.66,4.53,29.58,6.25,52.56,6.19,57.56Z"/><path class="cls-6" d="M48.41,110.64V90.84a.38.38,0,0,1,.38-.38H51.4V72.76H7.3v17.7H9.9a.38.38,0,0,1,.38.38v19.8a.38.38,0,0,1-.38.38H7.3v6.29a4.18,4.18,0,0,0,4.19,4.18H46.93A4.47,4.47,0,0,0,51.4,117v-6H48.79A.38.38,0,0,1,48.41,110.64Z"/><path class="cls-7" d="M10.28,110.64V90.84a.38.38,0,0,0-.38-.38H7.3V111H9.9A.38.38,0,0,0,10.28,110.64Z"/><path class="cls-8" d="M50.34,117a3.58,3.58,0,0,1-3.58,3.59H12A3.58,3.58,0,0,1,8.38,117V73.14h42Z"/><path class="cls-9" d="M10.28,110.64V90.84a.38.38,0,0,0-.38-.38H7.3V111H9.9A.38.38,0,0,0,10.28,110.64Z"/><path class="cls-10" d="M48.79,90.46a.38.38,0,0,0-.38.38v19.8a.38.38,0,0,0,.38.38H51.4V90.46Z"/><path class="cls-9" d="M48.79,90.46a.38.38,0,0,0-.38.38v19.8a.38.38,0,0,0,.38.38H51.4V90.46Z"/><path class="cls-11" d="M19.52,47.31a33.88,33.88,0,0,0-8.28,2.21l.33,1.85a29.56,29.56,0,0,1,8.37-2.43,92.67,92.67,0,0,1,18.84,0,29.71,29.71,0,0,1,8.38,2.43l.32-1.85a33.61,33.61,0,0,0-8.27-2.21A99.65,99.65,0,0,0,19.52,47.31Z"/><path class="cls-12" d="M10,33.41a44.87,44.87,0,0,1,8.86-2.84,54.29,54.29,0,0,1,21.1,0,44.64,44.64,0,0,1,8.86,2.84,4.18,4.18,0,0,1,1.39.82v-.06a4.48,4.48,0,0,0,.11-1.7c-.17-.31-.65-.6-1.51-1a44.64,44.64,0,0,0-8.86-2.84,54.29,54.29,0,0,0-21.1,0A44.87,44.87,0,0,0,10,31.5c-.86.37-1.34.66-1.51,1a4.48,4.48,0,0,0,.11,1.7v.06A4.18,4.18,0,0,1,10,33.41Z"/><path class="cls-13" d="M19.52,47.31a99.65,99.65,0,0,1,19.69,0,33.61,33.61,0,0,1,8.27,2.21l2.68-15.29a4.18,4.18,0,0,0-1.39-.82,44.64,44.64,0,0,0-8.86-2.84,54.29,54.29,0,0,0-21.1,0A44.87,44.87,0,0,0,10,33.41a4.18,4.18,0,0,0-1.39.82l2.68,15.29A33.88,33.88,0,0,1,19.52,47.31Z"/><path class="cls-14" d="M7.78,59.62c0,3.67-.14,6.16-.25,7.44l3.32,1.13h.2l-.6-15.75L7.09,33.69s-.3,4.81,0,11.7C7.27,49.75,7.79,55.75,7.78,59.62Z"/><path class="cls-15" d="M47.88,68.19l3.32-1.13c-.14-1.25-.25-3.77-.26-7.44,0-3.87.52-9.87.7-14.23.29-6.89,0-11.7,0-11.7L48.28,52.44l-.61,15.75Z"/><path class="cls-16" d="M9.72,8.27l6-4.42a2.85,2.85,0,0,0,1.11-1.92,14.64,14.64,0,0,0-4.29,2.25A31.12,31.12,0,0,0,7.66,8.71,2.57,2.57,0,0,0,9.72,8.27Z"/><path class="cls-17" d="M43,3.85l6,4.42a2.59,2.59,0,0,0,2.07.44,30.8,30.8,0,0,0-4.93-4.53,14.38,14.38,0,0,0-4.29-2.25A2.82,2.82,0,0,0,43,3.85Z"/><path class="cls-18" d="M12.59,27.63s4.85-7.45,5.4-10.22c.43-2.12-.24-8.64-.24-8.64S17.31,15,16.87,17C16.28,19.75,12.59,27.63,12.59,27.63Z"/><path class="cls-18" d="M46.18,27.63s-4.84-7.45-5.4-10.22c-.43-2.12.24-8.64.24-8.64S41.46,15,41.9,17C42.49,19.75,46.18,27.63,46.18,27.63Z"/><path class="cls-19" d="M48.77,33.41a44.64,44.64,0,0,0-8.86-2.84A45.09,45.09,0,0,0,35,29.81C30.51,34.61,25.23,43.3,23.08,47a102.91,102.91,0,0,1,16.13.32,33.61,33.61,0,0,1,8.27,2.21l2.68-15.29A4.18,4.18,0,0,0,48.77,33.41Z"/><path class="cls-20" d="M46.42,68.57c.16-8.19.2-16.36.2-16.36s-4.34-2.35-17.26-2.05c-12.92-.3-17.26,2.05-17.26,2.05s0,8.17.2,16.36Z"/><path class="cls-21" d="M15.74,4.85a10.83,10.83,0,0,0-8.61,10c-.84,8.92-1.48,16.08-1.48,16.08S9.08,9.58,15.74,4.85Z"/><path class="cls-22" d="M43,4.85a10.82,10.82,0,0,1,8.6,10c.85,8.92,1.49,16.08,1.49,16.08S49.69,9.58,43,4.85Z"/><path class="cls-23" d="M51.49,34.86s2,.4,2.07,2.13-2,5.23-2.07,3A38.05,38.05,0,0,1,51.49,34.86Z"/><path class="cls-24" d="M58.51,38.65c-.44-.6-4.5-1.86-4.5-1.86-.8-.26-1.08.45-1.17,1.05l5.82,1.78A1.13,1.13,0,0,0,58.51,38.65Z"/><path class="cls-25" d="M52.84,37.84a4.61,4.61,0,0,0-.05.74L58.51,40a1.85,1.85,0,0,0,.15-.38Z"/><path class="cls-26" d="M7.21,34.74s-2.15.4-2.2,2.13,2.15,5.23,2.2,3A35,35,0,0,0,7.21,34.74Z"/><path class="cls-27" d="M4.7,36.67S.64,37.93.2,38.53a1.11,1.11,0,0,0-.13,1l5.81-1.78C5.8,37.17,5.53,36.4,4.7,36.67Z"/><path class="cls-28" d="M.07,39.57a2,2,0,0,0,.13.32l5.72-1.43a4.42,4.42,0,0,0,0-.67Z"/><path class="cls-29" d="M4.77,57.56a.54.54,0,0,0-.54.54v4.45a.54.54,0,0,0,.54.53Z"/><path class="cls-29" d="M54,57.56a.54.54,0,0,1,.54.54v4.45a.54.54,0,0,1-.54.53Z"/><path class="cls-30" d="M17.68,26c.86-.06,1.3-.55,2.16-.62a.14.14,0,0,0,.13-.13.12.12,0,0,0-.13-.12c-.86.06-1.3.55-2.16.62a.13.13,0,0,0-.12.13A.11.11,0,0,0,17.68,26Z"/><path class="cls-30" d="M19.84,25.64c-.86.07-1.3.56-2.16.63a.13.13,0,0,0-.12.13.11.11,0,0,0,.12.12c.86-.07,1.3-.55,2.16-.62a.14.14,0,0,0,.13-.13A.13.13,0,0,0,19.84,25.64Z"/><path class="cls-30" d="M19.84,26.15c-.86.07-1.3.56-2.16.63a.13.13,0,0,0-.13.13.12.12,0,0,0,.13.12c.86-.07,1.3-.56,2.16-.62a.15.15,0,0,0,.13-.14A.12.12,0,0,0,19.84,26.15Z"/><path class="cls-30" d="M41,26c-.86-.06-1.29-.55-2.15-.62a.14.14,0,0,1-.13-.13.12.12,0,0,1,.13-.12c.86.06,1.29.55,2.15.62a.14.14,0,0,1,.13.13A.12.12,0,0,1,41,26Z"/><path class="cls-30" d="M38.87,25.64c.86.07,1.29.56,2.15.63a.14.14,0,0,1,.13.13.12.12,0,0,1-.13.12c-.86-.07-1.29-.55-2.15-.62a.14.14,0,0,1-.13-.13A.13.13,0,0,1,38.87,25.64Z"/><path class="cls-30" d="M38.87,26.15c.86.07,1.29.56,2.15.63a.13.13,0,0,1,.13.13A.12.12,0,0,1,41,27c-.86-.07-1.29-.56-2.15-.62a.15.15,0,0,1-.13-.14A.12.12,0,0,1,38.87,26.15Z"/><polygon class="cls-31" points="43.94 69.33 29.36 69.33 29.32 69.33 14.75 69.33 13.86 71.42 29.33 71.42 29.35 71.42 44.82 71.42 43.94 69.33"/><path class="cls-32" d="M11.24,77.45a.38.38,0,0,0,.38.38h1.2a.38.38,0,0,0,.38-.38V73.14h-2Z"/><path class="cls-32" d="M15.05,77.45a.38.38,0,0,0,.38.38h1.2a.38.38,0,0,0,.38-.38V73.14h-2Z"/><path class="cls-32" d="M18.86,77.45a.38.38,0,0,0,.38.38h1.19a.38.38,0,0,0,.38-.38V73.14H18.86Z"/><path class="cls-32" d="M22.66,77.45a.38.38,0,0,0,.38.38h1.2a.38.38,0,0,0,.38-.38V73.14h-2Z"/><path class="cls-32" d="M26.47,77.45a.38.38,0,0,0,.38.38h1.2a.38.38,0,0,0,.38-.38V73.14h-2Z"/><path class="cls-32" d="M30.28,77.45a.38.38,0,0,0,.38.38h1.2a.38.38,0,0,0,.38-.38V73.14h-2Z"/><path class="cls-32" d="M34.09,77.45a.38.38,0,0,0,.38.38h1.19a.38.38,0,0,0,.38-.38V73.14H34.09Z"/><path class="cls-32" d="M37.89,77.45a.38.38,0,0,0,.38.38h1.2a.38.38,0,0,0,.38-.38V73.14h-2Z"/><path class="cls-32" d="M41.7,77.45a.38.38,0,0,0,.38.38h1.2a.38.38,0,0,0,.38-.38V73.14h-2Z"/><path class="cls-32" d="M45.51,77.45a.38.38,0,0,0,.38.38h1.2a.38.38,0,0,0,.38-.38V73.14h-2Z"/><rect class="cls-32" x="13.75" y="80.12" width="0.6" height="37.82"/><rect class="cls-32" x="16.3" y="80.12" width="0.6" height="37.82"/><rect class="cls-32" x="18.85" y="80.12" width="0.6" height="37.82"/><rect class="cls-32" x="21.4" y="80.12" width="0.6" height="37.82"/><rect class="cls-32" x="23.95" y="80.12" width="0.6" height="37.82"/><rect class="cls-32" x="26.5" y="80.12" width="0.6" height="37.82"/><rect class="cls-32" x="29.05" y="80.12" width="0.6" height="37.82"/><rect class="cls-32" x="31.6" y="80.12" width="0.6" height="37.82"/><rect class="cls-32" x="34.16" y="80.12" width="0.6" height="37.82"/><rect class="cls-32" x="36.71" y="80.12" width="0.6" height="37.82"/><rect class="cls-32" x="39.26" y="80.12" width="0.6" height="37.82"/><rect class="cls-32" x="41.81" y="80.12" width="0.6" height="37.82"/><rect class="cls-32" x="44.36" y="80.12" width="0.6" height="37.82"/></g></g></g></svg>